<svg width="148" height="44" viewBox="0 0 148 44" fill="none" xmlns="http://www.w3.org/2000/svg">
<path fill-rule="evenodd" clip-rule="evenodd" d="M24.6093 3.56224C23.2275 2.13403 20.9878 2.1345 19.6067 3.56331L8.07993 15.4877L8.07011 15.4848L8.03368 15.4888C8.04868 15.4963 8.06341 15.5036 8.07784 15.5111C6.05581 15.7301 5.19789 16.3585 5.18818 17.1654C5.1916 17.4655 5.31069 17.7897 5.52945 18.1262L5.51893 18.1371C7.35716 21.0041 16.4637 24.7861 22.9063 22.2237C18.0778 24.7202 6.70649 25.215 3.36655 20.3677C2.64122 21.1791 2.33774 22.2455 2.45203 23.2702C3.33435 28.299 13.1987 29.6709 23.0632 22.3848L25.1978 24.5922C22.5416 27.4141 18.618 43.8056 24.448 41.3029C24.5863 41.2058 24.7037 41.119 24.8633 40.9941L25.1232 40.7404C25.1082 40.7442 25.0933 40.7479 25.0785 40.7515L40.6925 25.5086C42.1423 24.0933 42.1751 21.7193 40.7649 20.2616L24.6093 3.56224ZM22.9089 8.52974L23.4426 6.32238L23.9762 8.52974L25.5772 9.08159L23.9762 9.63344L23.4426 11.8408L22.9089 9.63344L21.3079 9.08159L22.9089 8.52974ZM16.3036 15.7356L16.6593 14.264L17.0151 15.7356L18.0825 16.1034L17.0151 16.4713L16.6593 17.9429L16.3036 16.4713L15.2363 16.1034L16.3036 15.7356ZM28.6945 28.1483L28.3388 29.6198L27.2715 29.9877L28.3388 30.3556L28.6945 31.8271L29.0503 30.3556L30.1176 29.9877L29.0503 29.6198L28.6945 28.1483Z" fill="#4845D2"/>
<path d="M50.7807 11.7418H47.4672V27.2022H56.6399V24.1728H50.7807V11.7418Z" fill="#4845D2"/>
<path d="M56.9563 21.9582C56.9563 25.2593 59.0979 27.453 62.3305 27.453C65.5431 27.453 67.6846 25.2593 67.6846 21.9582C67.6846 18.6572 65.5431 16.4426 62.3305 16.4426C59.0979 16.4426 56.9563 18.6572 56.9563 21.9582ZM60.088 21.9374C60.088 20.3704 60.9769 19.3258 62.3305 19.3258C63.664 19.3258 64.553 20.3704 64.553 21.9374C64.553 23.5252 63.664 24.5698 62.3305 24.5698C60.9769 24.5698 60.088 23.5252 60.088 21.9374Z" fill="#4845D2"/>
<path d="M68.1852 21.7911C68.1852 24.9458 70.1652 27.0768 72.9735 27.0768C74.3273 27.0768 75.499 26.5754 76.0849 25.7607V27.2022C76.0849 28.6438 75.2162 29.6049 73.6807 29.6049C72.3068 29.6049 71.3573 28.9363 71.2966 27.7455H68.1448C68.4276 30.6077 70.5693 32.5299 73.4988 32.5299C76.9538 32.5299 79.1358 30.2108 79.1358 26.5336V16.756H76.3274L76.1658 17.8214C75.6001 16.9649 74.408 16.4008 73.0342 16.4008C70.2056 16.4008 68.1852 18.5945 68.1852 21.7911ZM71.337 21.7075C71.337 20.2033 72.3069 19.2004 73.5393 19.2004C74.9737 19.2004 76.0244 20.1823 76.0244 21.7075C76.0244 23.2327 74.994 24.2773 73.5595 24.2773C72.327 24.2773 71.337 23.2327 71.337 21.7075Z" fill="#4845D2"/>
<path d="M80.0427 21.9582C80.0427 25.2593 82.1842 27.453 85.4169 27.453C88.6293 27.453 90.771 25.2593 90.771 21.9582C90.771 18.6572 88.6293 16.4426 85.4169 16.4426C82.1842 16.4426 80.0427 18.6572 80.0427 21.9582ZM83.1742 21.9374C83.1742 20.3704 84.0633 19.3258 85.4169 19.3258C86.7504 19.3258 87.6393 20.3704 87.6393 21.9374C87.6393 23.5252 86.7504 24.5698 85.4169 24.5698C84.0633 24.5698 83.1742 23.5252 83.1742 21.9374Z" fill="#4845D2"/>
<path d="M93.4537 15.1264C94.4231 15.1264 95.2112 14.3116 95.2112 13.2878C95.2112 12.2641 94.4231 11.4702 93.4537 11.4702C92.4635 11.4702 91.6755 12.2641 91.6755 13.2878C91.6755 14.3116 92.4635 15.1264 93.4537 15.1264ZM91.8776 27.2023H95.0095V16.756H91.8776V27.2023Z" fill="#4845D2"/>
<path d="M96.8318 32.2164H99.9028V26.1576C100.489 26.9515 101.822 27.4947 103.217 27.4947C106.227 27.4947 108.046 25.113 107.964 21.8119C107.884 18.4482 106.005 16.4216 103.197 16.4216C101.762 16.4216 100.409 17.0693 99.8427 18.0304L99.6808 16.7559H96.8318V32.2164ZM99.9638 21.979C99.9638 20.4121 100.974 19.3675 102.429 19.3675C103.903 19.3675 104.833 20.433 104.833 21.979C104.833 23.5251 103.903 24.5906 102.429 24.5906C100.974 24.5906 99.9638 23.546 99.9638 21.979Z" fill="#4845D2"/>
<path d="M108.296 23.9012C108.377 26.0113 109.994 27.4738 112.539 27.4738C114.984 27.4738 116.681 26.1366 116.681 23.9848C116.681 22.4387 115.791 21.415 114.135 20.9972L112.337 20.5374C111.69 20.3703 111.287 20.2032 111.287 19.66C111.287 19.1168 111.71 18.7616 112.337 18.7616C113.044 18.7616 113.509 19.2421 113.488 19.9525H116.297C116.216 17.7797 114.62 16.4216 112.398 16.4216C110.155 16.4216 108.478 17.8006 108.478 19.8898C108.478 21.2897 109.226 22.4387 111.226 22.9819L113.004 23.4624C113.529 23.6086 113.751 23.8594 113.751 24.2146C113.751 24.7369 113.287 25.0712 112.498 25.0712C111.589 25.0712 111.104 24.6324 111.104 23.9012H108.296Z" fill="#4845D2"/>
<path d="M121.443 27.4738C122.676 27.4738 123.908 26.8889 124.535 26.0322L124.737 27.2023H127.667V16.756H124.555V22.1881C124.555 23.7549 124.11 24.6116 122.676 24.6116C121.564 24.6116 120.837 24.0893 120.837 22.1463V16.756H117.726V23.3162C117.726 25.8025 119.06 27.4738 121.443 27.4738Z" fill="#4845D2"/>
<path d="M132.601 27.2022V21.4986C132.601 19.7436 133.51 19.2422 134.399 19.2422C135.389 19.2422 136.035 19.869 136.035 21.1643V27.2022H139.106V21.4986C139.106 19.7227 139.995 19.2213 140.884 19.2213C141.874 19.2213 142.541 19.848 142.541 21.1643V27.2022H145.572V20.3704C145.572 17.9886 144.359 16.4008 141.753 16.4008C140.298 16.4008 139.106 17.1321 138.581 18.2602C137.975 17.1321 136.924 16.4008 135.247 16.4008C134.136 16.4008 133.106 16.9231 132.5 17.7588L132.379 16.756H129.469V27.2022H132.601Z" fill="#4845D2"/>
<path fill-rule="evenodd" clip-rule="evenodd" d="M41.8949 5.02295C38.5569 5.02295 35.3912 6.55617 33.2542 9.20793L25.6516 18.642L30.0417 11.8324L22.7545 15.062C21.8291 15.4721 21.5969 16.7189 22.3088 17.4552L24.6538 19.88L23.4565 21.3658L26.0906 24.0896L27.5273 22.8515L29.8724 25.2765C30.5843 26.0126 31.7901 25.7725 32.1867 24.8156L35.3097 17.2801L28.7247 21.8198L37.8478 13.958C40.4122 11.7483 41.8949 8.47477 41.8949 5.02295ZM34.6513 12.5136C35.3786 13.2657 36.5579 13.2657 37.2854 12.5136C38.0127 11.7614 38.0127 10.5419 37.2854 9.78979C36.5579 9.0376 35.3786 9.0376 34.6513 9.78979C33.9239 10.5419 33.9239 11.7614 34.6513 12.5136Z" fill="#A3A2FF"/>
<path opacity="0.6" d="M3.28186 20.2408C5.02591 26.4198 15.6294 26.0976 22.9043 22.2246C18.0329 24.7418 6.5092 25.2225 3.28186 20.2408Z" fill="#424242"/>
<path opacity="0.6" d="M24.448 41.3029C19.5355 43.4116 21.5483 32.1052 23.8926 26.806C22.1838 31.5161 20.7251 41.8993 25.1232 40.7404L24.8633 40.994C24.7037 41.1189 24.5863 41.2058 24.448 41.3029Z" fill="#424242"/>
</svg>
