<svg width="148" height="53" viewBox="0 0 148 53" fill="none" xmlns="http://www.w3.org/2000/svg">
<path d="M14.745 22.8165C14.7035 23.7827 14.6827 25.0059 14.6827 26.4861C14.6827 27.9663 14.7035 29.1997 14.745 30.1865C14.7865 31.1528 14.8694 31.9237 14.994 32.4994C15.1393 33.0749 15.3364 33.4758 15.5855 33.702C15.8554 33.9281 16.2082 34.0412 16.6441 34.0412C17.0799 34.0412 17.4223 33.9281 17.6714 33.702C17.9412 33.4758 18.1384 33.0749 18.263 32.4994C18.4082 31.9237 18.5016 31.1528 18.5431 30.1865C18.5847 29.1997 18.6054 27.9663 18.6054 26.4861C18.6054 25.0059 18.5847 23.7827 18.5431 22.8165C18.5016 21.8297 18.4082 21.0484 18.263 20.4729C18.1384 19.8972 17.9412 19.4963 17.6714 19.2702C17.4223 19.044 17.0799 18.9309 16.6441 18.9309C16.2082 18.9309 15.8554 19.044 15.5855 19.2702C15.3364 19.4963 15.1393 19.8972 14.994 20.4729C14.8694 21.0484 14.7865 21.8297 14.745 22.8165Z" fill="#394149"/>
<path fill-rule="evenodd" clip-rule="evenodd" d="M15.848 3.57842C8.34117 3.73753 2.37426 9.87335 2.49471 17.3096L2.64271 26.4463L2.49471 35.5831C2.37426 43.0194 8.34117 49.1553 15.848 49.3143L25.0736 49.5098L34.2992 49.3143C41.806 49.1553 47.773 43.0194 47.6526 35.5831L47.5046 26.4463L47.6526 17.3096C47.773 9.87335 41.806 3.73753 34.2992 3.57842L25.0736 3.383L15.848 3.57842ZM25.3924 38.0809L21.9055 41.0721L18.73 37.68C18.4809 37.7211 18.2318 37.752 17.9828 37.7726C17.7544 37.8136 17.495 37.8342 17.2044 37.8342H16.6441C15.1705 37.8342 13.9251 37.6389 12.9081 37.2483C11.8911 36.8577 11.0713 36.2101 10.4487 35.3056C9.82606 34.3804 9.37979 33.1983 9.10997 31.7593C8.84015 30.2997 8.70525 28.5419 8.70525 26.4861C8.70525 24.4303 8.84015 22.6829 9.10997 21.2438C9.37979 19.7841 9.82606 18.6021 10.4487 17.6975C11.0713 16.7724 11.8911 16.1042 12.9081 15.6931C13.9251 15.2613 15.1705 15.0455 16.6441 15.0455C18.1177 15.0455 19.363 15.2613 20.3799 15.6931C21.3969 16.1042 22.2169 16.7724 22.8395 17.6975C23.4621 18.6021 23.9084 19.7841 24.1782 21.2438C24.448 22.6829 24.5829 24.4303 24.5829 26.4861C24.5829 28.6036 24.4376 30.3921 24.147 31.8518C23.8565 33.3114 23.3791 34.5038 22.7149 35.4289L25.3924 38.0809ZM35.2198 23.4023V22.1689C35.2198 20.9148 35.0952 20.0616 34.8461 19.6095C34.5972 19.1571 34.1924 18.9309 33.632 18.9309C33.1962 18.9309 32.8434 19.044 32.5735 19.2703C32.3245 19.4963 32.1273 19.8972 31.982 20.4729C31.8575 21.0485 31.7745 21.8297 31.7329 22.8165C31.6914 23.7827 31.6706 25.006 31.6706 26.4861C31.6706 27.9663 31.6914 29.1997 31.7329 30.1866C31.7745 31.1529 31.8575 31.9237 31.982 32.4994C32.1273 33.0749 32.3245 33.4758 32.5735 33.702C32.8434 33.9281 33.1962 34.0412 33.632 34.0412C33.9848 34.0412 34.2754 33.959 34.5037 33.7945C34.7321 33.6095 34.9084 33.3114 35.033 32.9003C35.1575 32.4891 35.2405 31.9442 35.2821 31.2658C35.3443 30.5669 35.3754 29.6932 35.3754 28.6447H40.9793V30.2791C40.9793 31.821 40.7717 33.0853 40.3566 34.072C39.9416 35.0588 39.3916 35.8401 38.7067 36.4156C38.0217 36.9708 37.233 37.3408 36.3405 37.5258C35.4689 37.7314 34.566 37.8342 33.632 37.8342C32.0131 37.8342 30.6848 37.6389 29.647 37.2483C28.6093 36.8577 27.7999 36.2101 27.2187 35.3056C26.6375 34.3804 26.2328 33.1983 26.0045 31.7593C25.797 30.2997 25.6931 28.5419 25.6931 26.4861C25.6931 24.3892 25.8177 22.6109 26.0668 21.1513C26.3366 19.6917 26.7829 18.5095 27.4055 17.605C28.0281 16.7004 28.8479 16.0528 29.8649 15.6622C30.8819 15.251 32.1376 15.0455 33.632 15.0455C34.9396 15.0455 36.05 15.21 36.9632 15.5389C37.8764 15.8679 38.6132 16.3407 39.1737 16.9574C39.7547 17.5536 40.1698 18.2834 40.4189 19.1469C40.6887 19.9897 40.8236 20.9457 40.8236 22.0147V23.4023H35.2198Z" fill="#394149"/>
<path fill-rule="evenodd" clip-rule="evenodd" d="M74.8594 19.0985L79.9349 24.3156L85.0104 19.0985H93.8286L84.3374 28.0422L93.8286 36.9858H85.0104L79.9349 31.7554L74.8594 36.9858H66.0278L75.5192 28.0422L66.0278 19.0985H74.8594ZM74.3701 28.0422L64.0471 18.3149H75.1969L79.9349 23.1851L84.673 18.3149H95.4247V18.3016H113.647C117.814 18.2594 121.341 21.7107 121.284 25.8518C121.283 27.3414 120.876 28.7144 120.062 29.9364C119.45 30.8615 118.673 31.6225 117.743 32.2012L121.629 37.1428V33.9381C121.629 31.4272 123.523 29.8265 125.702 28.7649C127.903 27.6932 130.679 27.0236 132.992 26.4819L132.995 26.4811L133.021 26.4745C134.447 26.1273 135.66 25.8318 136.524 25.513C136.961 25.3514 137.248 25.2051 137.412 25.0809C137.433 25.0651 137.45 25.0511 137.465 25.039C137.415 24.9935 137.312 24.9255 137.111 24.8471C136.64 24.6647 135.838 24.5274 134.622 24.5271C133.323 24.5404 132.219 24.645 131.465 24.9069C131.094 25.036 130.87 25.183 130.743 25.321C130.636 25.4396 130.572 25.5802 130.578 25.8008L130.597 26.6032H121.911V25.8196C121.911 24.2109 122.23 22.8658 122.867 21.7637C123.508 20.6567 124.442 19.8484 125.58 19.2687C127.814 18.1312 130.891 17.8491 134.323 17.8491C137.836 17.8491 140.753 18.2506 142.818 19.2845C143.863 19.8084 144.712 20.5056 145.296 21.4124C145.881 22.3215 146.168 23.3916 146.168 24.6085C146.168 26.8603 144.796 28.2946 143.115 29.2294C141.482 30.1371 139.427 30.6525 137.721 31.0649H145.872V37.7429H122.1L122.11 37.7562H112.588L109.182 33.3908H104.064V37.7562H95.7947L95.8095 37.7695H84.6724L79.9349 32.8874L75.1974 37.7695H64.0471L74.3701 28.0422ZM95.4247 37.4066V18.6777L85.4863 28.0422L95.4247 37.4066ZM109.572 32.6072L112.979 36.9725H120.49L116.545 31.955C116.792 31.8416 117.028 31.7162 117.255 31.5791C118.118 31.0556 118.835 30.3602 119.4 29.5061C120.127 28.4148 120.49 27.1904 120.49 25.8462C120.545 22.1462 117.381 19.0453 113.651 19.0852H96.2171V36.9725H103.271V32.6072H109.572ZM133.569 31.8485C133.816 31.5493 134.263 31.2949 134.858 31.0649C135.558 30.7934 136.459 30.5556 137.473 30.318C140.946 29.4795 145.376 28.3349 145.376 24.6085C145.376 20.2431 141.283 18.6327 134.323 18.6327C127.778 18.6327 123.136 19.6888 122.733 25.0359C122.714 25.2876 122.703 25.5486 122.703 25.8196H129.786C129.785 25.79 129.785 25.7609 129.786 25.7323C129.824 24.1424 132.04 23.7695 134.619 23.7433C137.136 23.7433 138.293 24.3023 138.293 25.061C138.293 25.9974 136.06 26.5417 133.255 27.225L133.178 27.2436C128.52 28.3349 122.421 29.8522 122.421 33.9381V36.9592H145.079V31.8485H133.569ZM137.509 25.0991C137.509 25.0991 137.505 25.0942 137.502 25.0827C137.509 25.093 137.509 25.0991 137.509 25.0991ZM112.63 25.8462C112.63 25.4273 112.298 25.0993 111.874 25.0993H104.064V26.5797H111.874C112.102 26.5797 112.261 26.5113 112.404 26.3701C112.567 26.2093 112.63 26.0485 112.63 25.8462ZM113.423 25.8462C113.423 24.9944 112.736 24.3156 111.874 24.3156H103.271V27.3634H111.874C112.305 27.3634 112.669 27.217 112.965 26.9242C113.275 26.6181 113.423 26.2588 113.423 25.8462Z" fill="#394149"/>
<path d="M66.6807 49.8902H70.0596V45.3078L73.4447 49.8902H75.134L78.5192 45.3078V49.8902H81.8981V41.3004H77.6746L74.2894 45.5953L70.9107 41.3004H66.6807V49.8902Z" fill="#394149"/>
<path d="M89.0163 41.0895C85.7539 41.096 83.0845 42.029 83.0973 45.2822V45.9085C83.0845 49.1552 85.7539 50.0948 89.0163 50.1011C92.2723 50.0948 94.942 49.1552 94.9295 45.9085V45.2822C94.9295 42.0354 92.2791 41.0895 89.0163 41.0895ZM91.5505 45.6976C91.5699 47.1037 90.3961 47.3593 89.0163 47.3785C87.6304 47.3593 86.4567 47.1037 86.4761 45.6976V45.4867C86.4567 44.087 87.6304 43.8313 89.0163 43.8122C90.3961 43.8313 91.5699 44.087 91.5505 45.4867V45.6976Z" fill="#394149"/>
<path d="M104.395 45.6082C104.395 46.4709 103.898 47.1803 103.022 47.1803H99.3205V44.0359H103.022C103.898 44.0359 104.395 44.7389 104.395 45.6082ZM95.9416 41.3132V49.903H103.654C106.033 49.935 107.8 47.941 107.78 45.6082C107.8 43.2625 106.033 41.2812 103.654 41.3132H95.9416Z" fill="#394149"/>
<path d="M117.188 45.704C117.207 47.1164 116.034 47.3593 114.653 47.3785C113.268 47.3593 112.101 47.1164 112.113 45.704V41.3004H108.734V45.9149C108.722 49.1617 111.404 50.0948 114.653 50.1011C117.904 50.0948 120.586 49.1617 120.573 45.9149V41.3004H117.188V45.704Z" fill="#394149"/>
<path d="M122.094 41.3004V49.8902H132.238V47.1676H125.473V41.3004H122.094Z" fill="#394149"/>
<path d="M133.391 49.903H143.535V47.6981H136.77V46.5987H143.535V44.6111H136.77V43.5118H143.535V41.3133H133.391V49.903Z" fill="#394149"/>
<path d="M68.6261 8.57653V6.7663H73.6341C73.8767 6.7663 74.0879 6.85324 74.26 7.03502C74.44 7.20902 74.5261 7.42237 74.5261 7.67531C74.5261 7.92046 74.44 8.13381 74.26 8.31571C74.0879 8.48959 73.8767 8.57653 73.6341 8.57653H68.6261ZM64.5259 3.65971V14.2838H68.6261V11.691H74.6592C76.8267 11.7227 78.6655 9.865 78.6342 7.67531C78.6655 5.47784 76.8267 3.63592 74.6592 3.65971H64.5259Z" fill="#394149"/>
<path d="M86.7955 3.383C82.8362 3.39089 79.5967 4.54505 79.6123 8.56865V9.34335C79.5967 13.3591 82.8362 14.521 86.7955 14.5289C90.7468 14.521 93.9869 13.3591 93.9709 9.34335V8.56865C93.9709 4.55294 90.7548 3.383 86.7955 3.383ZM89.8702 9.08241C89.8941 10.8215 88.4699 11.1377 86.7955 11.1615C85.1132 11.1377 83.6891 10.8215 83.7126 9.08241V8.82159C83.6891 7.0904 85.1132 6.77421 86.7955 6.75053C88.4699 6.77421 89.8941 7.0904 89.8702 8.82159V9.08241Z" fill="#394149"/>
<path d="M109.957 10.3868L107.523 3.65973H102.907L100.466 10.3868L98.0318 3.65973H93.4153L98.0318 14.2839H102.907L105.215 8.9718L107.523 14.2839H112.398L117.016 3.65973H112.398L109.957 10.3868Z" fill="#394149"/>
<path d="M117.329 14.2839H129.637V11.5567H121.428V10.197H129.637V7.73859H121.428V6.37897H129.637V3.65973H117.329V14.2839Z" fill="#394149"/>
<path d="M131.82 3.65172V14.276H135.92V11.6831H139.582L141.562 14.276H145.928L143.635 11.2958C144.324 10.9717 144.879 10.4816 145.294 9.84132C145.717 9.19315 145.928 8.46592 145.928 7.66742C145.96 5.46984 144.12 3.62803 141.954 3.65172H131.82ZM140.92 6.75842C141.421 6.75842 141.82 7.16155 141.82 7.66742C141.82 7.91246 141.734 8.12593 141.554 8.30771C141.382 8.48171 141.17 8.56865 140.92 8.56865H135.92V6.75842H140.92Z" fill="#394149"/>
</svg>
