<svg width="148" height="75" viewBox="0 0 148 75" fill="none" xmlns="http://www.w3.org/2000/svg">
<path d="M3.82605 43.4066H8.01877V63.8341H3.82605V43.4066Z" fill="#394149"/>
<path d="M10.4505 56.8351C10.4478 55.3679 10.8831 53.9328 11.7015 52.7114C12.5198 51.4901 13.6844 50.5375 15.0479 49.9741C16.4113 49.4107 17.9123 49.2619 19.3609 49.5464C20.8095 49.831 22.1407 50.5361 23.1857 51.5728C24.2309 52.6092 24.943 53.9306 25.2321 55.3694C25.5213 56.8082 25.3743 58.3 24.8098 59.6559C24.2454 61.0116 23.2888 62.1706 22.0612 62.986C20.8337 63.8016 19.3902 64.2367 17.9136 64.2367C16.9315 64.2479 15.9572 64.0642 15.0476 63.6963C14.138 63.3285 13.3115 62.7839 12.6164 62.0945C11.9213 61.4053 11.3717 60.585 10.9998 59.6817C10.6279 58.7786 10.4412 57.8109 10.4505 56.8351ZM21.1559 56.8351C21.1394 56.2017 20.9353 55.5872 20.5692 55.0685C20.203 54.5497 19.6911 54.1498 19.0973 53.9186C18.5036 53.6875 17.8544 53.6356 17.2312 53.7691C16.6078 53.9026 16.038 54.2159 15.5928 54.6695C15.1478 55.1232 14.8472 55.6973 14.7287 56.32C14.6102 56.9425 14.6792 57.586 14.9268 58.1698C15.1746 58.7536 15.59 59.252 16.1212 59.6025C16.6525 59.9529 17.2759 60.14 17.9136 60.1401C18.3498 60.1523 18.7839 60.0745 19.1883 59.9116C19.5928 59.7486 19.959 59.5042 20.2637 59.1937C20.5683 58.8831 20.805 58.5132 20.9584 58.1073C21.1121 57.7013 21.1792 57.2682 21.1559 56.8351Z" fill="#394149"/>
<path d="M42.2312 49.8362V63.1397C42.2312 67.8473 38.5276 69.8332 34.7822 69.8332C33.4652 69.9306 32.1465 69.6659 30.9706 69.0682C29.7948 68.4706 28.8072 67.5629 28.1158 66.4448L31.7216 64.3757C32.0077 64.9487 32.4604 65.4232 33.021 65.7376C33.5816 66.052 34.2244 66.192 34.8661 66.1393C35.2882 66.2093 35.721 66.1819 36.1309 66.0593C36.5409 65.9368 36.917 65.7223 37.2303 65.4325C37.5434 65.1426 37.7856 64.7851 37.9379 64.3876C38.0902 63.9901 38.1485 63.5632 38.1084 63.1397V61.8482C37.6155 62.4509 36.9865 62.9295 36.2727 63.2456C35.5589 63.5616 34.7801 63.7062 33.9996 63.6675C32.1018 63.6675 30.2818 62.9184 28.9398 61.585C27.5978 60.2516 26.8439 58.4431 26.8439 56.5573C26.8439 54.6716 27.5978 52.8632 28.9398 51.5298C30.2818 50.1965 32.1018 49.4473 33.9996 49.4473C34.7797 49.4119 35.5573 49.5579 36.2706 49.8737C36.984 50.1895 37.6133 50.6665 38.1084 51.2665V49.8778L42.2312 49.8362ZM38.1084 56.5573C38.1363 55.882 37.9602 55.2138 37.6029 54.6385C37.2455 54.0634 36.7232 53.6075 36.1031 53.3297C35.483 53.0518 34.7933 52.9645 34.1229 53.0793C33.4524 53.1938 32.8319 53.5051 32.3409 53.9729C31.8499 54.4409 31.511 55.044 31.3677 55.7047C31.2243 56.3654 31.2832 57.0538 31.5367 57.681C31.7902 58.3084 32.2267 58.8459 32.7901 59.2247C33.3536 59.6037 34.0181 59.8063 34.6983 59.8069C35.1424 59.8381 35.5881 59.7766 36.0066 59.6262C36.4253 59.4757 36.8076 59.24 37.1289 58.9338C37.4501 58.6276 37.7033 58.2579 37.872 57.8487C38.0407 57.4394 38.1212 56.9995 38.1084 56.5573Z" fill="#394149"/>
<path d="M44.6491 56.8351C44.6463 55.3679 45.0817 53.9328 45.9 52.7114C46.7184 51.4901 47.883 50.5375 49.2464 49.9741C50.6098 49.4107 52.1108 49.2619 53.5594 49.5464C55.008 49.831 56.3392 50.5361 57.3843 51.5728C58.4294 52.6092 59.1415 53.9306 59.4307 55.3694C59.7198 56.8082 59.5728 58.3 59.0083 59.6559C58.4439 61.0116 57.4873 62.1706 56.2598 62.986C55.0322 63.8016 53.5887 64.2367 52.1121 64.2367C51.1302 64.2479 50.1557 64.0642 49.2461 63.6963C48.3365 63.3285 47.5099 62.7839 46.8149 62.0945C46.1199 61.4053 45.5702 60.585 45.1983 59.6817C44.8264 58.7786 44.6396 57.8109 44.6491 56.8351ZM55.3545 56.8351C55.3379 56.2017 55.1338 55.5872 54.7677 55.0685C54.4015 54.5497 53.8896 54.1498 53.2958 53.9186C52.7022 53.6875 52.0531 53.6356 51.4297 53.7691C50.8063 53.9026 50.2365 54.2159 49.7913 54.6695C49.3463 55.1232 49.0457 55.6973 48.9272 56.32C48.8088 56.9425 48.8777 57.586 49.1253 58.1698C49.3731 58.7536 49.7885 59.252 50.3197 59.6025C50.851 59.9529 51.4744 60.14 52.1121 60.1401C52.5461 60.1484 52.977 60.0678 53.3783 59.9031C53.7794 59.7384 54.1421 59.4934 54.4437 59.1832C54.7453 58.8732 54.9793 58.5045 55.1313 58.1006C55.2832 57.6966 55.3496 57.2657 55.3265 56.8351H55.3545Z" fill="#394149"/>
<path d="M61.5178 46.0868C61.5178 45.5869 61.667 45.0982 61.9464 44.6827C62.226 44.2671 62.6232 43.9431 63.088 43.7518C63.5528 43.5604 64.0642 43.5104 64.5576 43.6079C65.051 43.7054 65.5042 43.9462 65.86 44.2996C66.2158 44.6531 66.4579 45.1034 66.556 45.5937C66.6543 46.084 66.6038 46.5922 66.4114 47.054C66.2189 47.5157 65.8929 47.9106 65.4746 48.1882C65.0562 48.4659 64.5645 48.6141 64.0613 48.6141C63.3879 48.6106 62.7431 48.3431 62.2668 47.8699C61.7906 47.3968 61.5215 46.756 61.5178 46.0868ZM61.951 49.8362H66.1437V63.8341H61.951V49.8362Z" fill="#394149"/>
<path d="M84.4238 56.8352C84.4746 57.7605 84.3408 58.6866 84.03 59.5603C83.719 60.434 83.2374 61.238 82.6126 61.9259C81.9877 62.6138 81.2322 63.1722 80.3893 63.5688C79.5465 63.9655 78.633 64.1925 77.7015 64.2369C76.9195 64.2741 76.1386 64.1406 75.4143 63.8455C74.6898 63.5503 74.0394 63.1009 73.5088 62.5288V69.4722H69.3161V49.8362H73.5088V51.1555C74.0394 50.5834 74.6898 50.134 75.4143 49.8388C76.1386 49.5437 76.9195 49.4102 77.7015 49.4474C78.6318 49.4918 79.5441 49.7184 80.3859 50.1141C81.2279 50.51 81.9828 51.0671 82.6074 51.7536C83.2321 52.44 83.714 53.2422 84.0257 54.1143C84.3375 54.9863 84.4728 55.9111 84.4238 56.8352ZM80.2311 56.8352C80.2145 56.1834 80.0058 55.5508 79.631 55.0156C79.2561 54.4806 78.7316 54.0663 78.1222 53.8246C77.5129 53.5827 76.8455 53.5237 76.2028 53.655C75.5601 53.7862 74.9701 54.1019 74.5062 54.563C74.0422 55.024 73.7246 55.61 73.5924 56.2487C73.4604 56.8874 73.5197 57.5505 73.7631 58.1559C74.0065 58.7614 74.4233 59.2827 74.9619 59.655C75.5004 60.0275 76.1371 60.2349 76.7931 60.2514C77.2508 60.2803 77.7095 60.2115 78.1384 60.0497C78.5671 59.8878 78.9561 59.6366 79.2792 59.3131C79.6021 58.9894 79.8518 58.6009 80.0112 58.1736C80.1704 57.7462 80.236 57.2899 80.2031 56.8352H80.2311Z" fill="#394149"/>
<path d="M97.4772 59.6403C97.4772 62.8621 94.6821 64.2368 91.6074 64.2368C90.3791 64.3449 89.1464 64.0852 88.068 63.4912C86.9896 62.8972 86.1147 61.9962 85.556 60.904L89.2176 58.8349C89.3662 59.34 89.6844 59.7794 90.1191 60.08C90.5539 60.3806 91.079 60.5244 91.6074 60.4874C92.6277 60.4874 93.1308 60.168 93.1308 59.6125C93.1308 58.0711 86.1429 58.8905 86.1429 54.0578C86.1429 51.0027 88.7424 49.4612 91.7332 49.4612C92.8368 49.428 93.9294 49.6884 94.8976 50.2159C95.8658 50.7433 96.6743 51.5184 97.2397 52.4608L93.5641 54.3772C93.4017 54.0105 93.1356 53.6984 92.7982 53.479C92.4608 53.2596 92.0666 53.1422 91.6633 53.1412C90.9367 53.1412 90.4894 53.419 90.4894 53.9328C90.5453 55.5297 97.4772 54.4605 97.4772 59.6403Z" fill="#394149"/>
<path d="M112.906 49.8362V63.8341H108.714V62.5288C108.226 63.1088 107.607 63.5659 106.907 63.8628C106.208 64.1597 105.447 64.2878 104.689 64.2369C101.893 64.2369 99.4197 62.2232 99.4197 58.4322V49.8362H103.612V57.8212C103.576 58.1615 103.616 58.5056 103.729 58.8287C103.843 59.1518 104.027 59.4456 104.27 59.689C104.512 59.9324 104.806 60.119 105.129 60.2354C105.453 60.3521 105.799 60.3953 106.142 60.3625C107.679 60.3625 108.756 59.4737 108.756 57.4879V49.8362H112.906Z" fill="#394149"/>
<path d="M137.14 55.2519V63.834H132.947V55.6131C132.947 54.2244 132.263 53.3078 130.921 53.3078C129.579 53.3078 128.713 54.2938 128.713 55.9463V63.834H124.52V55.6131C124.52 54.2244 123.849 53.3078 122.494 53.3078C121.138 53.3078 120.299 54.2938 120.299 55.9463V63.834H116.107V49.8362H120.299V51.1276C120.738 50.5572 121.312 50.1047 121.971 49.8113C122.63 49.5178 123.353 49.3926 124.073 49.4473C124.796 49.4123 125.516 49.5642 126.162 49.8878C126.809 50.2114 127.36 50.696 127.762 51.2942C128.23 50.6688 128.85 50.1713 129.564 49.8484C130.277 49.5254 131.062 49.3873 131.843 49.4473C135.03 49.4473 137.14 51.7525 137.14 55.2519Z" fill="#394149"/>
<path d="M140.718 49.7529C142.447 49.7529 143.849 48.3601 143.849 46.6422C143.849 44.9243 142.447 43.5316 140.718 43.5316C138.989 43.5316 137.587 44.9243 137.587 46.6422C137.587 48.3601 138.989 49.7529 140.718 49.7529Z" fill="#394149"/>
<path d="M51.2736 32.8111C59.3703 32.8111 65.934 26.289 65.934 18.2437C65.934 10.1985 59.3703 3.67645 51.2736 3.67645C43.1768 3.67645 36.613 10.1985 36.613 18.2437C36.613 26.289 43.1768 32.8111 51.2736 32.8111Z" fill="#394149"/>
<path d="M84.0466 32.8111C92.1434 32.8111 98.707 26.289 98.707 18.2437C98.707 10.1985 92.1434 3.67645 84.0466 3.67645C75.9498 3.67645 69.386 10.1985 69.386 18.2437C69.386 26.289 75.9498 32.8111 84.0466 32.8111Z" fill="#394149"/>
<path d="M33.161 3.67645H3.854V32.7971H33.161V3.67645Z" fill="#394149"/>
</svg>
