<svg width="148" height="34" viewBox="0 0 148 34" fill="none" xmlns="http://www.w3.org/2000/svg">
<g clip-path="url(#clip0_8_2506)">
<path d="M144.105 6.51453L147.635 10.0868C147.758 10.1855 147.849 10.3187 147.897 10.4695C147.969 11.3488 147.307 11.3969 146.63 11.446C146.337 11.4673 146.042 11.4888 145.803 11.5779C144.615 11.9008 143.557 12.5828 142.769 13.5314C141.981 14.48 141.503 15.6493 141.399 16.8804C141.323 17.0226 141.208 17.1397 141.067 17.2174C140.926 17.2953 140.767 17.3305 140.606 17.319C140.42 17.3024 140.246 17.2206 140.114 17.0877L138.955 15.9152C138.964 15.9955 138.964 16.0749 138.964 16.1389V16.9123C138.964 16.9612 138.965 17.0082 138.959 17.0553C138.952 17.108 138.934 17.1605 138.893 17.2152V17.287C138.893 17.3237 138.897 17.3578 138.901 17.3924C138.909 17.4632 138.919 17.5361 138.893 17.6379C138.867 17.7329 138.865 17.8436 138.861 17.9425C138.86 18.0012 138.859 18.0558 138.853 18.1003C138.844 18.1621 138.844 18.2281 138.839 18.294C138.834 18.3557 138.824 18.4173 138.797 18.4751C138.76 18.556 138.747 18.6333 138.744 18.7118C138.741 18.7494 138.741 18.7872 138.741 18.826L138.694 19.0732L136.893 27.7007L136.75 28.3466L136.694 29.2875L135.901 33.3621L135.774 34H71.5684L71.259 33.689L71.2034 33.9601H64.333L60.509 30.0929L60.8739 28.3466H58.716L57.3753 26.9831C55.7113 28.2009 53.6973 28.8392 51.6393 28.8011C49.4271 28.8886 47.2704 28.0915 45.6416 26.5844L43.555 24.4714L43.1028 26.5923C43.0474 26.8954 42.9759 27.1825 42.8966 27.4615L42.8252 27.7247L42.7062 28.1074C42.6964 28.1406 42.6831 28.1727 42.6665 28.2031C42.5484 28.5546 42.408 28.8982 42.246 29.2317C42.2503 29.2446 42.2503 29.2586 42.246 29.2715C42.2252 29.3157 42.2014 29.3583 42.1746 29.3991C42.0548 29.6374 41.9225 29.8689 41.7779 30.0929C41.7511 30.1336 41.7273 30.1763 41.7066 30.2205L41.6193 30.3161C41.4254 30.5957 41.2133 30.862 40.9846 31.1135C40.9218 31.1766 40.8591 31.2358 40.7953 31.2939C40.7302 31.3534 40.6641 31.4118 40.5958 31.4723L40.4213 31.6397C40.3113 31.7316 40.1987 31.8203 40.0838 31.9057C39.989 31.9762 39.8926 32.0443 39.7946 32.1102C38.1596 33.0839 36.2735 33.5473 34.376 33.4418C31.7579 33.4418 29.6634 32.6763 28.3385 31.3368L24.6098 27.5652C23.1204 28.4123 21.434 28.847 19.7227 28.825C17.5172 28.8936 15.3736 28.0857 13.7567 26.5764L11.6703 24.4634L10.9959 27.7247L10.861 28.3705H3.83985L0 24.4793L0.198338 23.5385L4.41898 3.16555L4.54589 2.52766H11.5909L11.7734 2.70311V2.52766H59.2397L59.4142 2.70311V2.52766H66.2846L70.1244 6.41884L69.9341 7.35176L69.7278 8.37242H71.7032L72.0127 8.68343C72.8819 8.17142 73.8692 7.89654 74.8767 7.88604C75.6175 7.87133 76.3532 8.01276 77.0364 8.30117C77.7196 8.58959 78.3351 9.0185 78.8434 9.56046L78.7402 9.44087L80.6046 11.3307C81.7391 9.18578 84.2857 7.88604 87.7445 7.88604C90.4263 7.88604 92.4019 8.57174 93.5994 9.81563L94.9483 11.1792L95.4008 8.98637L95.5353 8.34847H102.413L104.381 10.334L104.659 8.99436L104.794 8.35645H118.329L118.693 8.7233C119.61 8.1796 120.66 7.90345 121.725 7.92589C122.365 7.90078 123.002 8.0186 123.593 8.2709C124.182 8.5232 124.709 8.90375 125.135 9.38511C125.113 9.36003 125.092 9.33496 125.071 9.31031C125.033 9.26458 124.995 9.21995 124.954 9.17864L125.644 9.87148C126.244 9.24647 126.966 8.75152 127.764 8.417C128.562 8.08245 129.42 7.91529 130.284 7.92589C130.743 7.89752 131.202 7.93679 131.646 8.04128L130.895 7.28002C130.793 7.16999 130.724 7.03308 130.696 6.88518C130.668 6.73728 130.682 6.58436 130.736 6.44425C130.791 6.30408 130.884 6.18242 131.005 6.09326C131.126 6.0041 131.269 5.9511 131.419 5.94044H132.022C132.184 5.92487 132.346 5.90092 132.506 5.86866C133.349 5.69053 134.142 5.3263 134.828 4.80225C135.515 4.27825 136.076 3.60755 136.473 2.83865C136.508 2.77918 136.539 2.718 136.568 2.65526V2.61541C136.841 2.02483 137.007 1.39044 137.06 0.741554C137.073 0.539923 137.164 0.35114 137.311 0.213508C137.458 0.0758267 137.652 -0.000484364 137.853 2.3136e-06H137.917C138.037 0.0114879 138.153 0.0505195 138.257 0.114079C138.36 0.177688 138.447 0.264122 138.512 0.366812C139.083 0.924978 142.256 4.17024 142.256 4.17024C142.521 4.45602 142.501 4.82702 142.481 5.20239C142.468 5.43449 142.455 5.66829 142.51 5.88462C142.654 5.91065 142.801 5.93037 142.946 5.9437C143.086 5.9564 143.227 5.96331 143.367 5.96434C143.531 5.96779 143.691 6.02259 143.823 6.12119C143.955 6.21975 144.054 6.35724 144.105 6.51453Z" fill="black"/>
<path d="M36.3117 9.13792H41.3256L38.5172 22.5258C38.0016 25.0614 37.0177 26.5127 35.5262 27.5413C34.0177 28.4211 32.2854 28.8369 30.5441 28.7373C27.2278 28.7373 24.0464 27.3419 23.7291 23.9531H28.7748C28.9335 24.7505 29.6634 25.205 30.7741 25.205C32.2735 25.205 32.9637 24.296 33.2732 22.8687L33.5746 21.3935H33.4636C33.0208 21.8827 32.4838 22.2762 31.8851 22.5503C31.2863 22.8245 30.6385 22.9735 29.9807 22.9882C27.0612 22.9882 24.7446 20.6519 24.7922 17.2312C24.8557 13.2444 27.442 8.7153 31.7817 8.7153C32.6041 8.65963 33.4251 8.84178 34.1477 9.24026C34.8704 9.63866 35.4643 10.2368 35.8595 10.9639H35.9467L36.3117 9.13792ZM32.0038 19.2486C33.9317 19.2486 35.0027 17.016 35.0344 15.0943C35.0344 13.8105 34.5346 12.4948 33.059 12.4948C31.0438 12.4948 30.0204 14.7514 29.9887 16.689C29.9887 17.9967 30.4885 19.2486 31.9641 19.2486M88.2926 19.6792C88.2926 20.5323 87.5619 20.8752 86.602 20.8752C85.0154 20.8752 84.4841 20.0778 84.4761 18.9615H79.486C79.3987 23.1238 83.0957 24.1524 86.3804 24.1524C90.5768 24.1524 93.2983 22.3264 93.3542 18.6825C93.3542 15.772 90.8864 14.887 88.4592 14.3208C86.5944 13.8903 85.7774 13.5793 85.785 12.8696C85.7935 12.1599 86.6265 11.8729 87.4435 11.8729C88.4668 11.8729 89.1645 12.2397 89.2364 13.1806H94.084C94.0282 9.70402 90.91 8.68343 87.7369 8.68343C83.8811 8.68343 80.8743 10.4456 80.8267 13.7786C80.8267 16.4019 82.588 17.3668 85.2455 18.0526C86.9513 18.507 88.3078 18.6505 88.2926 19.6792ZM125.365 11.2988H125.278C125.063 10.5136 124.586 9.82617 123.928 9.35042C123.27 8.87476 122.47 8.6394 121.66 8.68343C119.503 8.68343 118.186 9.75987 116.94 11.3865H116.853L117.313 9.13792H112.267L109.244 23.666H114.521L116.107 15.8278C116.472 14.1215 117.337 12.9254 118.646 12.9254C119.955 12.9254 120.129 13.9779 119.86 15.2617L118.114 23.666H123.39L124.977 15.8278C125.342 14.0099 126.207 12.9254 127.515 12.9254C128.824 12.9254 128.999 13.9221 128.73 15.2617L126.984 23.666H132.26L134.148 15.0305C134.941 11.3865 133.728 8.65147 130.245 8.65147C129.276 8.64747 128.322 8.88768 127.469 9.35017C126.617 9.81265 125.894 10.4826 125.365 11.2988ZM0.967834 23.666H6.41817L10.6309 3.29315H5.18847L0.967834 23.666ZM17.3743 8.70731C21.0555 8.70731 24.5701 10.7326 24.5145 15.3175C24.4669 20.333 21.0714 24.0887 15.8828 24.0887C12.3127 24.0887 8.74273 22.0952 8.80616 17.5342C8.89344 12.6384 12.2414 8.70731 17.3743 8.70731ZM16.0336 20.5323C18.3582 20.5323 19.207 17.1435 19.207 15.1501C19.207 13.7228 18.7707 12.3274 17.2395 12.3274C14.9388 12.3274 14.1534 15.9156 14.1534 17.7655C14.1534 19.2486 14.5659 20.5323 16.0653 20.5323M12.4476 3.29315L11.6543 7.36773H57.4228L58.2162 3.29315H12.4476ZM49.2592 8.70731C52.9404 8.70731 56.4549 10.7326 56.3994 15.3175C56.3518 20.333 52.9483 24.0887 47.7598 24.0887C44.1897 24.0887 40.6196 22.0952 40.691 17.5342C40.8021 12.6384 44.15 8.70731 49.2592 8.70731ZM47.9423 20.5323C50.2668 20.5323 51.1156 17.1435 51.1156 15.1501C51.1156 13.7228 50.6714 12.3274 49.1402 12.3274C46.8474 12.3274 46.054 15.9156 46.054 17.7655C46.054 19.2486 46.4666 20.5323 47.974 20.5323M60.0885 3.29315L59.2951 7.36773H64.563L65.3564 3.29315H60.0885ZM55.8679 23.666H61.1436L64.1663 9.13792H58.8587L55.8679 23.666ZM72.7028 24.1524C71.8631 24.2123 71.0234 24.036 70.2778 23.643C69.5323 23.25 68.9105 22.6561 68.4821 21.9278H68.3949L66.8082 29.2795H61.4689L65.753 9.13792H70.767L70.3704 11.0755C70.8939 10.3598 71.5722 9.7727 72.3541 9.35833C73.1359 8.94404 74.0011 8.71326 74.8845 8.68343C78.0579 8.68343 79.9223 11.4184 79.8668 14.9747C79.7953 19.4479 77.4867 24.1524 72.671 24.1524H72.7028ZM72.4965 12.7979C70.4576 12.7979 69.2041 15.4212 69.1724 17.4386C69.1724 18.8419 69.6643 20.4048 71.3382 20.4048C73.52 20.4048 74.4164 17.5023 74.4402 15.5647C74.4402 14.2491 74.0594 12.7979 72.4965 12.7979ZM103.001 21.3776H103.088L102.628 23.682H107.642L110.665 9.15382H105.397L103.715 17.2711C103.374 18.9536 102.342 19.8387 101.042 19.8387C99.7402 19.8387 99.4543 18.6107 99.7165 17.3269L101.422 9.15382H96.1543L94.2895 18.1243C93.4962 22.0314 95.3052 24.1365 98.3363 24.1365C99.2877 24.1272 100.221 23.8658 101.039 23.3786C101.858 22.8913 102.535 22.1956 103.001 21.3616V21.3776ZM131.3 29.3513L132.093 25.2767H69.5294L68.736 29.3513H131.3Z" fill="white"/>
<path d="M136.972 13.1248C136.92 13.1208 136.87 13.1064 136.823 13.0825C136.776 13.0587 136.734 13.0258 136.7 12.9858C136.667 12.9458 136.641 12.8995 136.625 12.8494C136.609 12.7993 136.603 12.7466 136.607 12.6942C136.673 11.9841 136.59 11.2679 136.361 10.5926C136.133 9.9174 135.765 9.29817 135.281 8.77576C134.798 8.25332 134.211 7.83935 133.558 7.56098C132.904 7.28261 132.2 7.14612 131.49 7.16045C131.385 7.16045 131.284 7.11845 131.21 7.04368C131.136 6.96891 131.093 6.8675 131.093 6.76176C131.093 6.65602 131.136 6.55462 131.21 6.47985C131.284 6.40508 131.385 6.36307 131.49 6.36307C131.68 6.37543 131.871 6.37543 132.062 6.36307C133.471 6.21219 134.783 5.57232 135.774 4.55357C136.765 3.53482 137.37 2.20091 137.488 0.781459C137.496 0.681344 137.541 0.587958 137.615 0.519955C137.688 0.451953 137.785 0.414353 137.884 0.414675C137.937 0.4187 137.988 0.433054 138.034 0.456906C138.081 0.480758 138.122 0.513639 138.156 0.553658C138.191 0.593677 138.216 0.640041 138.232 0.690086C138.248 0.740131 138.254 0.792861 138.25 0.845251C138.184 1.55472 138.268 2.2702 138.495 2.94492C138.723 3.61962 139.09 4.23836 139.572 4.76069C140.055 5.283 140.641 5.69714 141.293 5.97602C141.946 6.25489 142.65 6.39222 143.359 6.37902C143.464 6.37902 143.565 6.42103 143.639 6.4958C143.714 6.57057 143.755 6.67197 143.755 6.77771C143.755 6.88345 143.714 6.98486 143.639 7.05963C143.565 7.1344 143.464 7.17639 143.359 7.17639C141.852 7.20142 140.406 7.78498 139.301 8.81512C138.196 9.84523 137.507 11.2493 137.369 12.758C137.361 12.8581 137.316 12.9516 137.243 13.0196C137.169 13.0876 137.073 13.1251 136.972 13.1248Z" fill="white"/>
</g>
<defs>
<clipPath id="clip0_8_2506">
<rect width="148" height="34" fill="white"/>
</clipPath>
</defs>
</svg>
