<svg width="92" height="88" viewBox="0 0 92 88" fill="none" xmlns="http://www.w3.org/2000/svg">
<path d="M50.6566 70.6455C50.7393 62.5683 48.5984 56 45.8752 55.9745C43.1518 55.9492 40.8772 62.4763 40.7948 70.5533C40.7122 78.6305 42.853 85.199 45.5762 85.2243C48.2996 85.2498 50.5742 78.7227 50.6566 70.6455Z" fill="black"/>
<path d="M34.8624 68.8111C39.4976 62.059 41.4095 55.4263 39.1331 53.9964C36.8565 52.5666 31.2535 56.8811 26.6185 63.6332C21.9834 70.3852 20.0714 77.0178 22.3479 78.4478C24.6245 79.8776 30.2273 75.5631 34.8624 68.8111Z" fill="black"/>
<path d="M22.5937 59.1237C30.3096 55.8409 35.6671 51.2502 34.5602 48.8699C33.4534 46.4897 26.3013 47.2215 18.5855 50.5044C10.8697 53.7872 5.51209 58.378 6.61895 60.7582C7.72578 63.1384 14.8779 62.4066 22.5937 59.1237Z" fill="black"/>
<path d="M33.6341 42.1951C34.0485 39.6204 27.6182 36.5371 19.272 35.3083C10.9255 34.0794 3.82362 35.1706 3.40933 37.7453C2.99503 40.32 9.42524 43.4032 17.7716 44.632C26.1179 45.8609 33.2199 44.7697 33.6341 42.1951Z" fill="black"/>
<path d="M36.6308 36.0615C38.4343 34.1097 34.7668 28.191 28.4393 22.8418C22.1117 17.4927 15.5201 14.7387 13.7166 16.6906C11.913 18.6426 15.5805 24.5613 21.9082 29.9105C28.2358 35.2596 34.8274 38.0135 36.6308 36.0615Z" fill="black"/>
<path d="M42.5986 32.4769C45.2191 31.7677 45.4795 24.8919 43.1802 17.1196C40.8809 9.34728 36.8926 3.62158 34.272 4.33088C31.6515 5.04017 31.3911 11.9159 33.6904 19.6882C35.9897 27.4604 39.9781 33.1862 42.5986 32.4769Z" fill="black"/>
<path d="M58.8035 19.9301C61.2626 12.2026 61.1442 5.32332 58.5387 4.56474C55.9333 3.80614 51.8277 9.4555 49.3685 17.1829C46.9095 24.9103 47.028 31.7896 49.6335 32.5482C52.2389 33.3068 56.3445 27.6575 58.8035 19.9301Z" fill="black"/>
<path d="M70.3826 30.3715C76.8184 25.1416 80.6062 19.2926 78.8427 17.3074C77.0795 15.3221 70.4328 17.9524 63.9973 23.182C57.5615 28.4119 53.7738 34.2609 55.5371 36.2462C57.3004 38.2314 63.947 35.6013 70.3826 30.3715Z" fill="black"/>
<path d="M74.2112 45.1473C82.5814 44.0762 89.0738 41.1148 88.7126 38.5327C88.3516 35.9508 81.2735 34.726 72.9033 35.797C64.5334 36.8681 58.0407 39.8295 58.4019 42.4116C58.7631 44.9935 65.8411 46.2185 74.2112 45.1473Z" fill="black"/>
<path d="M85.0087 61.4962C86.1644 59.1374 80.9025 54.4465 73.2559 51.0187C65.6094 47.591 58.4737 46.7245 57.318 49.0833C56.1623 51.4422 61.4241 56.1331 69.0708 59.5609C76.7173 62.9885 83.853 63.8551 85.0087 61.4962Z" fill="black"/>
<path d="M68.9244 78.9006C71.2299 77.5141 69.4551 70.8465 64.9601 64.0084C60.4652 57.1703 54.9522 52.7511 52.6467 54.1376C50.3412 55.5241 52.116 62.1917 56.611 69.0299C61.1059 75.868 66.6189 80.2873 68.9244 78.9006Z" fill="black"/>
</svg>
