<svg width="148" height="80" viewBox="0 0 148 80" fill="none" xmlns="http://www.w3.org/2000/svg">
<g clip-path="url(#clip0_8_2457)">
<path d="M147.989 28.4524C148.004 28.3412 148.004 28.2288 147.989 28.1176C148.003 28.027 148.003 27.9346 147.989 27.8438L146.892 20.0234C146.734 19.0878 146.311 18.2133 145.671 17.4978L145.483 17.2847L145.138 16.95L126.158 1.0658L126.69 1.58314C126.255 1.07679 125.708 0.67177 125.09 0.397926C124.472 0.124081 123.799 -0.0116334 123.12 0.000794836H117.356C116.419 -0.0172443 115.504 0.272228 114.757 0.822404C113.973 0.275542 113.028 -0.0124496 112.063 0.000794836H106.3C105.544 -0.0111193 104.799 0.171129 104.139 0.529142C103.479 0.887154 102.928 1.40822 102.542 2.03956C101.946 2.9413 101.723 4.02776 101.915 5.08252L102.636 10.0121C102.158 9.74924 101.618 9.61286 101.069 9.61654H73.1624C72.1611 9.62264 71.1829 9.90776 70.3434 10.4381C69.5316 10.9317 68.88 11.6386 68.4642 12.4769L66.303 10.6815C65.4524 9.91692 64.3297 9.50248 63.1709 9.52524H19.3841C18.3792 9.54302 17.3967 9.81574 16.5339 10.3164C15.3535 10.9876 14.4884 12.0791 14.1221 13.3593L0.215587 58.5472C-0.0442525 59.2918 -0.0698135 60.0948 0.142177 60.8536C0.354168 61.6122 0.794111 62.2926 1.4058 62.8074C1.56519 62.9386 1.73255 63.0606 1.90695 63.1724C1.90695 63.1724 1.62502 62.9898 1.46841 62.8378L20.4491 78.7524C21.252 79.4706 22.3018 79.872 23.393 79.8782H67.5246C68.5324 79.8528 69.5156 79.5694 70.3748 79.0566C70.8608 78.7986 71.2955 78.4586 71.6589 78.0524L71.8156 77.8394L72.0661 77.5352L72.254 77.2004L74.3213 78.935C75.1127 79.6246 76.1396 80.004 77.2028 80H121.428C122.435 79.9674 123.416 79.6846 124.278 79.1784C124.753 78.9046 125.186 78.5664 125.563 78.1742L125.719 77.9612L125.97 77.657C126.103 77.4644 126.218 77.2608 126.314 77.0482C126.416 76.8638 126.5 76.6702 126.565 76.4702L139.25 35.2078V34.8426C139.265 34.701 139.265 34.5582 139.25 34.4166V34.1428C139.265 34.052 139.265 33.9596 139.25 33.8688C139.264 33.6764 139.264 33.4832 139.25 33.2906H143.322C143.676 33.3222 144.032 33.3222 144.386 33.2906H144.668C144.898 33.2242 145.118 33.1322 145.326 33.0168H145.639L146.203 32.5908L146.454 32.4082L146.892 31.8604V31.678L147.205 31.1606C147.188 31.06 147.188 30.957 147.205 30.8564C147.189 30.807 147.189 30.7536 147.205 30.7042C147.272 30.5258 147.324 30.3426 147.362 30.1564C147.347 30.0964 147.347 30.0338 147.362 29.9738C147.347 29.8832 147.347 29.7906 147.362 29.7C147.362 29.7 147.989 28.5132 147.989 28.4524Z" fill="black"/>
<path d="M64.455 12.9943C64.6213 13.1403 64.7375 13.3324 64.7878 13.5446C64.8384 13.7568 64.8205 13.9789 64.737 14.181L50.8618 59.3384C50.6871 59.8314 50.3297 60.2436 49.8596 60.4948C49.477 60.7434 49.0343 60.8902 48.5752 60.9208H4.4753C4.09868 60.9032 3.74187 60.7516 3.47301 60.4948C3.31306 60.351 3.20081 60.1642 3.15059 59.9584C3.10038 59.7524 3.11452 59.5366 3.19113 59.3384L17.0977 14.181C17.2579 13.6818 17.6041 13.2586 18.0686 12.9943C18.4575 12.7635 18.8981 12.6278 19.3528 12.5987H63.4527C63.8264 12.6022 64.1847 12.7436 64.455 12.9943ZM41.434 50.24L49.7342 23.2794H26.4941L18.2252 50.24H41.434ZM106.551 13.4507C106.701 13.6206 106.889 13.7553 107.101 13.8448C107.312 13.9344 107.542 13.9765 107.772 13.968H113.504C113.722 13.9701 113.937 13.9181 114.129 13.8169C114.321 13.7157 114.483 13.5687 114.6 13.3898C114.702 13.2501 114.774 13.0918 114.811 12.9246C114.849 12.7573 114.852 12.5844 114.819 12.4161L113.692 4.3827C113.584 4.0109 113.392 3.66758 113.128 3.37852C112.977 3.20864 112.79 3.07392 112.578 2.98436C112.367 2.8948 112.137 2.85272 111.906 2.86122H106.175C105.956 2.85916 105.741 2.91116 105.549 3.01232C105.358 3.11348 105.196 3.26046 105.079 3.4394C104.859 3.8654 104.765 4.13926 104.859 4.3827L106.018 12.4161C106.078 12.8073 106.264 13.1697 106.551 13.4507ZM124.748 4.32184C124.641 3.95002 124.448 3.6067 124.184 3.31766C124.04 3.1484 123.858 3.01372 123.651 2.924C123.445 2.8343 123.22 2.79198 122.994 2.80036H117.231C117.016 2.79442 116.804 2.84502 116.617 2.9468C116.429 3.04858 116.274 3.19778 116.166 3.37852C115.958 3.64848 115.868 3.98758 115.916 4.32184L117.074 12.3552C117.147 12.7423 117.332 13.1011 117.607 13.3898C117.76 13.5564 117.949 13.6888 118.159 13.7781C118.37 13.8674 118.598 13.9114 118.828 13.9071H124.592C124.806 13.9099 125.017 13.8579 125.203 13.7564C125.391 13.655 125.547 13.5076 125.657 13.329C125.765 13.1928 125.842 13.0347 125.88 12.8662C125.918 12.6977 125.916 12.5231 125.876 12.3552L124.748 4.32184ZM101.508 16.4936L100.944 12.5378H73.1624C72.7262 12.5612 72.3042 12.6978 71.9407 12.9334C71.7101 13.0556 71.5093 13.225 71.3524 13.4299C71.1958 13.6348 71.0867 13.8703 71.0326 14.1201L68.7148 21.6666C68.6223 21.8552 68.5906 22.0668 68.6241 22.2732C68.6578 22.4796 68.7548 22.6712 68.9026 22.823C69.1668 23.0642 69.5115 23.2048 69.8737 23.2186H103.638L95.3377 50.1792H61.6675C61.2334 50.1888 60.8105 50.3152 60.4461 50.5442C60.0031 50.8176 59.6796 51.2402 59.5377 51.731L57.1886 59.2776C57.112 59.4712 57.0918 59.6816 57.1305 59.8856C57.1693 60.0898 57.2651 60.2794 57.4078 60.4338C57.6637 60.6912 58.0111 60.8436 58.3788 60.8598H102.604C103.061 60.8216 103.502 60.6754 103.888 60.4338C104.351 60.1814 104.698 59.7684 104.859 59.2776L117.576 18.0151H103.262C103.035 18.0195 102.809 17.9785 102.599 17.8948C102.389 17.811 102.199 17.6862 102.04 17.5282C101.781 17.2523 101.598 16.9174 101.508 16.5545V16.4936Z" fill="white"/>
</g>
<defs>
<clipPath id="clip0_8_2457">
<rect width="148" height="80" fill="white"/>
</clipPath>
</defs>
</svg>
