<svg width="588" height="400" viewBox="0 0 588 400" fill="none" xmlns="http://www.w3.org/2000/svg">
<rect opacity="0.5" x="118" y="23" width="384" height="352" rx="40" fill="#E0E7FF"/>
<rect x="68" y="49" width="408" height="351" rx="40" fill="#E0E7FF"/>
<path opacity="0.19" d="M430 335.561C430 361.79 377.76 375 264.486 375C173.087 375 99 353.742 99 327.514C99 301.285 173.087 280 264.486 280C355.886 280 430 309.332 430 335.561Z" fill="#1B6393"/>
<path d="M321.945 239H232V187.397C232 185.368 232.4 183.359 233.176 181.486C233.952 179.612 235.09 177.911 236.523 176.481C237.957 175.05 239.658 173.917 241.53 173.149C243.401 172.38 245.405 171.989 247.427 172H306.655C310.725 172 314.628 173.622 317.505 176.51C320.383 179.397 322 183.313 322 187.397L321.945 239Z" fill="#BA662D"/>
<path d="M266.403 314.564L260.326 315L256 309.053L257.313 233L268 233.246L266.403 314.564Z" fill="#AD5317"/>
<path d="M266.917 314.509L260 315L261.003 233L269 233.191L266.917 314.509Z" fill="#DB7C3B"/>
<path d="M324.726 314.536L318.805 315L314 309.079L314.982 233L326 233.191L324.726 314.536Z" fill="#AD5317"/>
<path d="M326.111 314.481L319 315V233L328 233.137L326.111 314.481Z" fill="#DB7C3B"/>
<path d="M322 247H239V190.535C239 186.149 240.718 181.944 243.776 178.843C246.834 175.742 250.982 174 255.306 174H305.694C310.018 174 314.166 175.742 317.224 178.843C320.282 181.944 322 186.149 322 190.535V247Z" fill="#ED8A48"/>
<path d="M252.81 267.323C258.448 277.264 271.785 274.84 292.089 274.486C317.218 274.078 325.703 276.066 326.977 266.941C327.303 264.626 324.077 246.676 320.119 234.256C317.734 226.82 269.373 240.112 257.309 240.548C254.734 240.711 247.713 258.334 252.81 267.323Z" fill="#FCB12B"/>
<path d="M341.139 271.28L302.873 262.896L307.451 241.975L339.495 248.995C341.145 249.357 342.584 250.359 343.496 251.782C344.407 253.206 344.716 254.933 344.355 256.584L341.139 271.28Z" fill="#FCB12B"/>
<path d="M320.234 267.99C323.347 283.029 326.221 296.779 328.057 306L342 303.969C341.335 294.446 340.563 280.395 339.738 265.273C339.664 263.909 339.315 262.577 338.713 261.36C338.111 260.144 337.27 259.07 336.244 258.208C335.217 257.345 334.028 256.713 332.751 256.351C331.474 255.989 330.138 255.906 328.829 256.106H328.137C326.839 256.304 325.595 256.775 324.482 257.492C323.37 258.208 322.412 259.153 321.67 260.269C320.928 261.385 320.418 262.646 320.171 263.975C319.924 265.303 319.945 266.67 320.234 267.99Z" fill="#FFD5C7"/>
<path d="M342.893 305.093L327.451 308C326.897 305.82 325.712 299.279 325 296.692L344 293C343.526 297.215 343.315 302.855 342.893 305.093Z" fill="white"/>
<path d="M349.49 300.64C349.034 299.647 348.228 298.466 347.584 297.338C346.939 296.211 338.534 298.09 338.856 300.211C338.856 300.748 339.044 301.231 339.152 301.66C337.666 301.929 336.081 302.17 334.399 302.385C331.282 302.811 328.144 303.062 325 303.137C325.403 306.492 326.665 312.237 327.148 315.969C327.148 315.969 366.73 316.774 371.859 310.197C373.363 308.345 362.622 302.976 349.49 300.64Z" fill="#2A87B5"/>
<path d="M326 313.553C326.164 314.413 326.273 315.246 326.382 315.968C326.382 315.968 366.639 316.801 371.856 309.999C372.074 309.722 372.02 309.389 371.856 309C361.368 313.192 335.996 313.58 326 313.553Z" fill="#0D6E99"/>
<path d="M361.834 303L361.221 303.265C359.24 304.075 357.629 305.721 356.741 307.843C355.853 309.965 355.759 312.39 356.481 314.587C356.527 314.733 356.59 314.872 356.668 315C363.857 314.086 369.982 312.553 371.872 309.958C372.804 308.631 368.544 305.624 361.834 303Z" fill="#0D6E99"/>
<path d="M352.515 301.212C352.583 301.22 352.652 301.212 352.717 301.187C352.782 301.162 352.843 301.121 352.895 301.068C352.946 301.014 352.988 300.948 353.018 300.874C353.048 300.799 353.065 300.719 353.068 300.636C353.069 300.478 353.02 300.324 352.932 300.207C352.843 300.089 352.722 300.015 352.591 300C351.45 299.989 350.329 300.359 349.352 301.07C348.376 301.782 347.583 302.806 347.062 304.029C346.998 304.174 346.983 304.343 347.02 304.501C347.058 304.66 347.145 304.794 347.263 304.877C347.362 304.906 347.465 304.906 347.564 304.877C347.649 304.864 347.729 304.827 347.799 304.769C347.869 304.711 347.926 304.634 347.966 304.543C348.39 303.531 349.041 302.681 349.845 302.092C350.649 301.503 351.574 301.198 352.515 301.212ZM355.506 302.211C355.574 302.208 355.641 302.187 355.703 302.151C355.764 302.115 355.819 302.064 355.864 302.002C355.908 301.94 355.942 301.867 355.963 301.788C355.983 301.71 355.99 301.627 355.983 301.545C355.971 301.387 355.91 301.24 355.812 301.134C355.715 301.027 355.587 300.969 355.456 300.969C354.334 301.054 353.245 301.451 352.272 302.129C351.3 302.807 350.471 303.747 349.851 304.877C349.783 305.015 349.76 305.179 349.788 305.336C349.816 305.494 349.893 305.633 350.002 305.725C350.116 305.769 350.239 305.769 350.354 305.725C350.496 305.693 350.623 305.595 350.706 305.452C351.238 304.495 351.95 303.703 352.784 303.14C353.618 302.577 354.551 302.259 355.506 302.211ZM358.597 302.211C357.445 302.295 356.322 302.69 355.313 303.366C354.304 304.042 353.434 304.983 352.767 306.118C352.674 306.232 352.623 306.384 352.623 306.542C352.623 306.701 352.674 306.853 352.767 306.967C352.889 307.011 353.021 307.011 353.144 306.967C353.273 306.935 353.389 306.849 353.47 306.724C354.044 305.739 354.793 304.92 355.662 304.328C356.532 303.736 357.5 303.385 358.497 303.302C358.564 303.306 358.631 303.293 358.693 303.264C358.756 303.236 358.813 303.191 358.86 303.134C358.908 303.077 358.944 303.008 358.968 302.933C358.992 302.857 359.003 302.777 358.999 302.696C359.002 302.554 358.963 302.416 358.889 302.305C358.816 302.195 358.712 302.118 358.597 302.09V302.211Z" fill="#D3DAE5"/>
<path d="M343 286.847C337.132 290.371 330.671 292.795 323.933 294L316 274.18C317.802 274.557 333.668 267.699 335.174 267L343 286.847Z" fill="#7AA1C1"/>
<path d="M347 288.026C338.821 291.873 330.434 295.203 321.883 298L318 289.032C320.064 288.687 341.243 279.862 343.253 279L347 288.026Z" fill="#5A93BA"/>
<path d="M278.911 265.75C277.39 281.088 276.005 295.159 275 304.522L289.177 307C291.404 297.72 294.907 284.035 298.682 269.358C299.025 268.031 299.091 266.646 298.877 265.292C298.662 263.938 298.17 262.644 297.434 261.493C296.698 260.343 295.733 259.36 294.601 258.609C293.469 257.858 292.195 257.355 290.861 257.131H290.154C288.854 256.914 287.523 256.967 286.243 257.287C284.963 257.607 283.76 258.188 282.708 258.994C281.657 259.801 280.778 260.815 280.125 261.977C279.472 263.138 279.059 264.422 278.911 265.75Z" fill="#FFD5C7"/>
<path d="M290.275 308L274 305.806C274 303.528 274.912 296.694 274.967 294L295 296.778C293.287 300.583 291.408 305.972 290.275 308Z" fill="white"/>
<path d="M298.181 305.391C298.045 304.274 297.666 302.821 297.396 301.536C297.125 300.251 288.461 299.385 288.109 301.536C288.029 302.035 287.984 302.539 287.974 303.045C286.458 302.849 284.86 302.57 283.155 302.263C280.038 301.688 276.956 300.932 273.922 300C273.272 303.464 272.704 309.553 272 313.408C272 313.408 309.904 326.816 316.727 321.928C318.676 320.615 309.958 311.844 298.181 305.391Z" fill="#3191BC"/>
<path d="M272.379 312C272.379 312.792 272.135 313.559 272 314.224C272 314.224 309.914 326.491 316.739 322.019C317.01 321.84 317.064 321.533 316.929 321.099C305.906 321.814 281.804 314.888 272.379 312Z" fill="#0D6E99"/>
<path d="M308.215 313H307.477C305.138 313.09 302.935 314.011 301.347 315.561C299.76 317.11 298.918 319.164 299.006 321.271C299.006 321.404 299.006 321.537 299.006 321.67C306.916 323.08 313.764 323.638 316.715 321.989C318.073 321.192 314.472 317.309 308.215 313Z" fill="#0D6E99"/>
<path d="M300.053 307.455C300.115 307.482 300.182 307.494 300.248 307.491C300.314 307.488 300.38 307.469 300.44 307.437C300.5 307.405 300.555 307.359 300.6 307.302C300.645 307.245 300.68 307.179 300.703 307.106C300.726 307.034 300.736 306.957 300.734 306.879C300.731 306.802 300.715 306.726 300.688 306.656C300.66 306.586 300.62 306.523 300.571 306.47C300.523 306.418 300.465 306.377 300.403 306.35C299.324 305.943 298.17 305.89 297.067 306.197C295.964 306.505 294.956 307.162 294.154 308.095C294.105 308.146 294.067 308.209 294.04 308.279C294.014 308.349 294 308.425 294 308.502C294 308.578 294.014 308.654 294.04 308.724C294.067 308.794 294.105 308.857 294.154 308.909C294.231 308.994 294.325 309.054 294.429 309.083C294.51 309.097 294.594 309.089 294.672 309.058C294.75 309.028 294.821 308.977 294.879 308.909C295.536 308.124 296.37 307.571 297.286 307.314C298.201 307.057 299.16 307.106 300.053 307.455ZM302.553 309.403C302.615 309.425 302.681 309.431 302.745 309.422C302.81 309.413 302.872 309.389 302.929 309.351C302.985 309.313 303.034 309.261 303.072 309.2C303.111 309.139 303.138 309.07 303.153 308.996C303.171 308.921 303.177 308.843 303.17 308.766C303.163 308.689 303.142 308.614 303.109 308.546C303.077 308.479 303.033 308.419 302.98 308.372C302.927 308.324 302.867 308.289 302.803 308.269C301.722 307.943 300.591 307.918 299.501 308.196C298.411 308.474 297.393 309.047 296.529 309.868C296.48 309.92 296.441 309.982 296.415 310.053C296.388 310.123 296.375 310.198 296.375 310.275C296.375 310.351 296.388 310.427 296.415 310.497C296.441 310.567 296.48 310.63 296.529 310.682C296.568 310.739 296.617 310.787 296.673 310.822C296.729 310.857 296.79 310.878 296.853 310.885C296.917 310.917 296.985 310.934 297.053 310.934C297.122 310.934 297.19 310.917 297.253 310.885C297.982 310.156 298.85 309.64 299.785 309.382C300.72 309.124 301.695 309.131 302.628 309.403H302.553ZM305.502 310.391C304.388 310.062 303.225 310.024 302.097 310.281C300.969 310.537 299.904 311.081 298.978 311.874C298.885 311.987 298.833 312.138 298.833 312.295C298.833 312.452 298.885 312.603 298.978 312.717C299.059 312.837 299.174 312.919 299.303 312.949C299.361 312.983 299.426 313 299.491 313C299.556 313 299.62 312.983 299.678 312.949C300.473 312.259 301.39 311.782 302.362 311.551C303.334 311.319 304.338 311.34 305.302 311.612C305.364 311.639 305.431 311.65 305.497 311.646C305.563 311.641 305.628 311.62 305.687 311.584C305.746 311.549 305.797 311.499 305.839 311.439C305.88 311.379 305.91 311.309 305.927 311.234C305.97 311.155 305.995 311.064 305.999 310.971C306.004 310.877 305.988 310.784 305.953 310.7C305.918 310.616 305.865 310.543 305.799 310.489C305.734 310.435 305.657 310.401 305.577 310.391H305.502Z" fill="#D3DAE5"/>
<path d="M301.031 294C291.944 293.269 282.917 292.047 274 290.341L274.831 282C276.825 282.683 299.757 285.537 302 285.805L301.031 294Z" fill="#5A93BA"/>
<path d="M326 245.237C319.166 249.645 316.796 256.336 292.683 255.987C276.106 255.543 259.967 250.703 246 241.986C246 241.986 266.503 195.898 268.735 179.371C282.734 178.296 303.706 178 312.635 178C317.87 188.83 326 245.237 326 245.237Z" fill="#DB3F33"/>
<path d="M172 362.27L165.922 363L161.371 356.431L160 270.162L170.707 270L172 362.27Z" fill="#AD5317"/>
<path d="M174 362.162L166.164 363L164 270.108L173.123 270L174 362.162Z" fill="#DB7C3B"/>
<path d="M408 362.378L400.742 363L396 356.344V270H408V362.378Z" fill="#AD5317"/>
<path d="M409 362.296L401 363V270H409V362.296Z" fill="#DB7C3B"/>
<path d="M380.605 327.477L374.789 328L370 321.288L371.105 235L382 235.193L380.605 327.477Z" fill="#AD5317"/>
<path d="M382.214 327.394L376 328V235L384 235.165L382.214 327.394Z" fill="#DB7C3B"/>
<path d="M145 327.285L138.402 328L133.51 321.428L132 235.165L143.602 235L145 327.285Z" fill="#AD5317"/>
<path d="M146 327.175L138.927 328L137 235.11L145.235 235L146 327.175Z" fill="#DB7C3B"/>
<path d="M418 271H151V285H418V271Z" fill="#ED8A48"/>
<path d="M386.2 228H119L150.828 271H418L417.945 270.888L386.2 228Z" fill="#FFB164"/>
<path d="M119 242.416L151 285V270.556L119 228V242.416Z" fill="#BA662D"/>
<path opacity="0.21" d="M363.619 240.904C363.619 240.124 360.883 240.096 360.883 239.706C360.883 239.316 364.495 239.316 366.794 236.921C366.794 236.364 367.943 236.114 364.057 234.304C363.455 234.025 367.45 233.942 366.958 233.301C364.983 230.838 362.321 229.042 359.323 228.149C356.289 226.947 352.973 226.681 349.791 227.384C346.608 228.088 343.7 229.729 341.428 232.104L340.881 231.073H267L277.863 255.078L357.791 257L350.157 245.387C351.447 245.751 352.797 245.846 354.124 245.666C354.918 245.666 352.291 244.357 353.139 243.995C353.988 243.633 360.391 244.775 363.619 240.904Z" fill="black"/>
<path d="M334.139 232L265 232.619L275.711 255L348 253.734L347.863 250.799L334.139 232Z" fill="#006284"/>
<path d="M332.233 227L267 228.183L277.758 252L348 250.652L332.233 227Z" fill="#B5B5B5"/>
<path d="M301.462 227.791C299.495 226.38 297.223 225.47 294.838 225.14C292.453 224.809 290.026 225.067 287.759 225.893C281.232 227.254 274.635 228.242 268 228.852L278.113 251.19C282.982 251.622 287.887 251.245 292.638 250.073C307.327 245.745 313 252 313 252L301.462 227.791Z" fill="#F7F7F7"/>
<path d="M329.44 225.809C324.091 225.25 320.187 222.791 314.704 223.014C310.087 223.133 305.63 224.81 302 227.794L313.393 252C317.214 248.569 322.166 246.833 327.194 247.164C332.543 247.164 335.886 248.562 343 248.394L329.44 225.809Z" fill="#D6D6D6"/>
<path d="M325.554 223.411C320.255 222.86 320.467 221.922 314.956 222.005C310.071 222.361 305.473 224.534 302 228.125L313.287 252C314.677 249.693 316.506 247.705 318.661 246.16C320.816 244.614 323.252 243.543 325.819 243.013C330.429 241.91 331.807 242.682 337 243.013L325.554 223.411Z" fill="#F7F7F7"/>
<path d="M304 179H280.272L280 171H304V179Z" fill="#E29D23"/>
<path d="M284 167V181.342C284 184.426 288.691 187 294.5 187C300.309 187 305 184.511 305 181.342V167H284Z" fill="#E4A78E"/>
<path d="M260.082 209.84C259.863 206.137 268.802 197.73 272 190.352C269.242 187.84 266.75 185.041 264.565 182C250.897 190.992 240.975 206.75 243.353 213.376C246.633 222.424 256.528 231.722 264.428 237.93C265.604 238.849 272.957 230.386 271.508 228.771C265.877 222.312 260.355 214.127 260.082 209.84Z" fill="#FFD5C7"/>
<path opacity="0.22" d="M245 201.25C248.188 211.385 265.244 219.128 268.023 217.865C268.023 217.865 279.33 194.932 267.859 182.001C265.734 181.866 245 201.25 245 201.25Z" fill="black"/>
<path d="M243 196.178C246.41 205.989 264.571 212.035 267.344 210.853C267.344 210.853 281.013 191.616 269.174 179.001C266.928 178.836 243 196.178 243 196.178Z" fill="#F46437"/>
<path d="M243 196.178C246.41 205.989 264.571 212.035 267.344 210.853C267.344 210.853 281.013 191.616 269.174 179.001C266.928 178.836 243 196.178 243 196.178Z" fill="#DB3F33"/>
<path d="M281.428 233.977C282.113 233.809 284.991 228.782 280.661 223.109C278.413 220.16 272.026 218.756 264.215 221.396C263.502 221.649 264.735 222.716 265.421 223.643C266.106 224.569 277.015 235.353 276.385 233.668C275.754 231.983 273.178 229.596 276.385 229.54C279.975 229.512 279.701 234.371 281.428 233.977Z" fill="#FFD5C7"/>
<path d="M280.744 231.827C279.673 233.098 272.095 226.995 273.09 225.723C274.085 224.451 275.871 224.988 277.81 226.316C279.749 227.645 281.714 230.583 280.744 231.827Z" fill="#C68C75"/>
<path d="M285.51 235L283 236.801L284.76 239.27L289 242L287.269 237.469L285.51 235Z" fill="#443F3D"/>
<path d="M267.208 209.545L264.833 211.252L285.055 239.421L287.43 237.714L267.208 209.545Z" fill="#3685B2"/>
<path d="M271.479 222.765C274.079 224.667 275.213 230.475 281.989 227.417C283.261 226.826 284.949 231.144 283.344 232.763C282.432 233.405 283.621 234.099 281.851 235.718C280.772 236.721 279.694 237.003 279.528 237.62C278.864 240.19 276.762 239.239 276.264 240.319C276.006 240.888 275.549 241.359 274.967 241.658C274.385 241.956 273.712 242.064 273.056 241.963C270.29 241.835 265.92 238.365 260.748 234.819C257.512 232.608 259.531 225.515 260.748 224.796C265.201 221.686 269.792 221.429 271.479 222.765Z" fill="#FFD5C7"/>
<path d="M337.461 209.649C332.869 202.355 327.621 192.799 322.975 185C319.312 185 315.54 185 312.042 185.213C311.304 195.461 320.569 214.068 326.501 220.11C331.885 226.155 338.641 230.894 346.235 233.952C347.574 234.617 353.369 228.202 351.701 226.685C346.264 221.588 341.482 215.868 337.461 209.649Z" fill="#FFD5C7"/>
<path d="M312.844 251.977C312.816 251.992 312.786 252 312.756 252C312.725 252 312.695 251.992 312.668 251.977L302.055 227.373C302.02 227.331 302 227.275 302 227.217C302 227.16 302.02 227.104 302.055 227.062C302.093 227.022 302.142 227 302.194 227C302.245 227 302.295 227.022 302.332 227.062L312.945 251.553C312.98 251.595 313 251.651 313 251.709C313 251.766 312.98 251.822 312.945 251.864L312.844 251.977Z" fill="#A5A5A5"/>
<path d="M339 194.631C335.521 204.049 317.105 209.983 314.248 208.865C314.248 208.865 299.708 190.24 311.815 178.001C314.022 177.841 339 194.631 339 194.631Z" fill="#DB3F33"/>
<path d="M268 207.878C266.159 207.434 264.349 206.877 262.582 206.209C255.939 203.818 250.193 199.565 246.084 194L245 194.757C249.254 200.493 255.186 204.88 262.04 207.357C263.811 208.007 265.62 208.556 267.458 209C267.512 208.687 267.756 208.243 268 207.878Z" fill="black"/>
<path d="M265.548 202.136C259.562 200.031 254.251 196.542 250.118 192L249 192.71C253.273 197.477 258.78 201.157 265.002 203.403C266.786 204.03 268.607 204.563 270.455 205C270.646 204.645 270.836 204.265 271 203.885C269.144 203.411 267.323 202.827 265.548 202.136Z" fill="black"/>
<path d="M318.259 201C323.986 198.501 329.039 194.674 333 189.835L331.851 189C328.118 193.56 323.376 197.186 318 199.59L318.259 201Z" fill="black"/>
<path d="M333.949 192C330.2 197.252 325.012 201.329 319 203.749L319.236 205C325.58 202.513 331.057 198.25 335 192.729L333.949 192Z" fill="black"/>
<path opacity="0.22" d="M290.344 203C290.536 200.977 293.094 189.989 297 186.673C287.016 185.1 282.835 180.66 279.975 174C279.975 174 277.582 179.62 276.977 181.643C274.419 189.343 276.234 197.071 290.344 203Z" fill="black"/>
<path opacity="0.22" d="M305.444 203C304.589 201.739 302.077 187.949 297 186.716C302.519 186.407 308.838 183.913 306.272 175C308.054 177.107 309.626 179.388 310.963 181.811C311.405 183.324 317.779 192.658 305.444 203Z" fill="black"/>
<path d="M286.846 197C289.544 193.894 291.662 187.023 297 186.446C287.223 185.374 283.423 178.641 278.781 171C278.5 173.327 278.044 175.633 277.418 177.899C276.751 181.004 275.445 192.08 286.846 197Z" fill="#F9BB3D"/>
<path d="M306.817 196C305.955 194.804 301.867 187.907 297 186.906C304.203 185.432 304.675 181.955 304.787 173C306.441 174.949 307.903 177.054 309.153 179.285C310.688 181.932 311.292 185.016 310.868 188.046C310.445 191.076 309.018 193.876 306.817 196Z" fill="#F9BB3D"/>
<path d="M295 195.978C294.996 196.374 295.109 196.763 295.326 197.095C295.543 197.427 295.854 197.687 296.219 197.841C296.584 197.996 296.987 198.039 297.377 197.964C297.766 197.89 298.124 197.701 298.406 197.422C298.688 197.143 298.881 196.787 298.96 196.398C299.039 196.01 299.001 195.607 298.85 195.24C298.699 194.873 298.443 194.559 298.114 194.339C297.784 194.118 297.397 194 297 194C296.474 194 295.968 194.208 295.594 194.578C295.219 194.948 295.006 195.451 295 195.978Z" fill="#F9BB3D"/>
<path d="M295 205.5C295 205.995 295.117 206.478 295.337 206.889C295.557 207.3 295.869 207.62 296.235 207.81C296.6 207.999 297.002 208.048 297.39 207.952C297.778 207.856 298.135 207.617 298.414 207.268C298.694 206.918 298.884 206.473 298.962 205.988C299.039 205.503 298.999 205 298.848 204.543C298.696 204.087 298.44 203.696 298.111 203.421C297.782 203.147 297.396 203 297 203C296.737 202.996 296.475 203.059 296.231 203.183C295.987 203.307 295.766 203.491 295.579 203.724C295.393 203.957 295.246 204.234 295.146 204.539C295.047 204.844 294.997 205.171 295 205.5Z" fill="#F9BB3D"/>
<path d="M370.918 122.035C370.081 137.447 362.283 148.89 355.537 148.999C348.791 149.109 346.309 137.228 346.012 122.637C345.715 108.046 350.95 96.0829 357.669 96.0008C366.87 95.8913 371.7 107.553 370.918 122.035Z" fill="#FCC8B4"/>
<path d="M363.182 129.554C361.288 135.692 356.771 139.287 353.071 137.572C349.37 135.858 347.942 129.554 349.836 123.444C351.73 117.333 356.276 113.711 359.948 115.426C363.619 117.14 365.047 123.333 363.182 129.554Z" fill="#E4A78E"/>
<path d="M355.963 85.9716C357.193 133.642 327.948 155.867 286.186 156.959C244.424 158.051 213.266 137.356 212.036 89.6848C210.806 42.0141 241.117 30.1374 282.879 29.0725C324.641 28.0077 354.733 38.2736 355.963 85.9716Z" fill="#C67456"/>
<path d="M349.822 61.5338C351.404 62.9745 352.195 65.0676 351.868 69.8518C349.358 106.168 357.323 109.811 357.977 132.21C358.632 154.608 344.967 168.146 327.019 172.604C309.508 176.926 263.357 180.351 238.018 136.206C227.107 117.476 226.671 77.7893 229.426 70.0421C238.836 43.8377 252.774 46.0939 286.705 45.224C318.373 44.3814 331.793 45.1425 349.822 61.5338Z" fill="#FFD5C7"/>
<path d="M245.33 96.7805C248.145 111.064 249.552 122.903 239.476 131.226C227.738 140.923 215.607 108.757 215.016 85.9304C214.425 63.104 230.525 45.8263 260.333 47.0624C275.673 47.6942 237.421 58.4619 245.33 96.7805Z" fill="#C67456"/>
<path d="M285.995 149.596C286.074 152.562 285.273 155.486 283.691 157.996C282.109 160.507 279.818 162.492 277.108 163.7C274.397 164.908 271.39 165.286 268.465 164.784C265.54 164.283 262.83 162.925 260.677 160.883C258.524 158.84 257.025 156.206 256.37 153.311C255.715 150.417 255.933 147.394 256.997 144.623C258.06 141.853 259.922 139.461 262.346 137.748C264.769 136.036 267.646 135.082 270.613 135.005C274.587 134.902 278.439 136.381 281.323 139.117C284.207 141.853 285.887 145.622 285.995 149.596Z" fill="#FFC6C5"/>
<path d="M350.994 145.751C351.175 152.372 347.067 157.867 341.796 157.998C336.526 158.128 332.159 152.764 332.004 146.249C331.849 139.733 335.931 134.133 341.202 134.002C346.473 133.872 350.839 139.105 350.994 145.751Z" fill="#FFC6C5"/>
<path d="M350.251 89.9977C350.609 90.0019 350.96 89.8994 351.255 89.7044C351.55 89.5094 351.774 89.2315 351.896 88.9092C352.018 88.5869 352.033 88.2361 351.938 87.9054C351.843 87.5748 351.643 87.2805 351.366 87.0635C346.072 82.7689 336.738 81.7286 329.076 84.6628C328.651 84.8291 328.313 85.1501 328.135 85.5553C327.957 85.9605 327.955 86.4166 328.129 86.8234C328.302 87.2302 328.638 87.5543 329.061 87.7244C329.484 87.8945 329.961 87.8966 330.385 87.7304C333.41 86.5133 336.706 86.0464 339.969 86.3727C343.232 86.6991 346.357 87.8083 349.053 89.5976C349.382 89.8765 349.813 90.0202 350.251 89.9977Z" fill="#9B4734"/>
<path d="M268.709 91.9998C269.145 92.0056 269.566 91.8458 269.888 91.5531C274.04 87.6717 282.065 86.4151 288.575 88.6211C288.795 88.7149 289.033 88.7625 289.272 88.7609C289.512 88.7593 289.748 88.7085 289.967 88.6117C290.186 88.5148 290.382 88.3741 290.544 88.1983C290.706 88.0224 290.829 87.8152 290.906 87.5897C290.984 87.3642 291.014 87.1252 290.994 86.8877C290.975 86.6502 290.906 86.4192 290.792 86.2094C290.679 85.9995 290.523 85.8152 290.335 85.668C290.146 85.5208 289.929 85.4139 289.698 85.354C281.953 82.5616 272.609 84.237 267.503 89.012C267.18 89.3406 267 89.7815 267 90.2407C267 90.6998 267.18 91.1407 267.503 91.4693C267.821 91.7945 268.253 91.9845 268.709 91.9998Z" fill="#9B4734"/>
<path d="M318.353 132.767C318.191 132.771 318.032 132.716 317.905 132.612C317.777 132.507 317.688 132.36 317.653 132.195C317.397 131.084 316.783 130.098 315.915 129.402C315.047 128.707 313.976 128.344 312.882 128.373C311.788 128.403 310.737 128.824 309.905 129.566C309.072 130.308 308.509 131.325 308.309 132.449C308.276 132.605 308.194 132.745 308.075 132.845C307.956 132.945 307.807 133 307.654 133C307.501 133 307.353 132.945 307.234 132.845C307.115 132.745 307.032 132.605 307 132.449C307.205 130.966 307.905 129.607 308.976 128.61C310.047 127.614 311.421 127.044 312.855 127.002C314.289 126.961 315.691 127.449 316.814 128.382C317.937 129.314 318.708 130.631 318.992 132.099C319.019 132.284 318.977 132.473 318.876 132.626C318.774 132.78 318.619 132.887 318.444 132.926L318.353 132.767Z" fill="#C68C75"/>
<path d="M208.158 135.202C213.916 150.225 229.991 158.242 240.908 155.451C251.825 152.66 252.698 139.717 249.096 125.023C245.493 110.329 233.485 100.67 222.431 103.489C207.421 107.374 202.781 121.083 208.158 135.202Z" fill="#FFD5C7"/>
<path d="M225.772 137.451C229.102 144.105 236.964 146.333 240.238 144.243C243.848 141.905 243.512 137.863 241.553 131.236C239.259 123.509 235.342 119.439 229.997 121.557C224.653 123.674 221.995 129.614 225.772 137.451Z" fill="#E4A78E"/>
<path d="M321.958 147.573C321.311 153.6 313.655 157.777 304.84 156.878C296.025 155.979 289.42 150.349 290.04 144.321C290.66 138.294 298.128 140.171 306.916 140.673C315.704 141.175 322.605 141.545 321.958 147.573Z" fill="#701608"/>
<path d="M306.759 151.219C302.707 150.556 298.574 151.409 295 153.647C298.007 156.023 301.521 157.468 305.187 157.834C309.247 158.384 313.362 157.559 317 155.467C314.003 153.017 310.458 151.546 306.759 151.219Z" fill="#DD7868"/>
<path d="M318 141.75C314.482 140.973 310.878 140.565 307.258 140.534C303.194 140.061 299.093 139.902 295 140.058C295.967 142.441 300.41 144.419 305.925 144.824C311.858 145.515 316.955 144.109 318 141.75Z" fill="white"/>
<path d="M347.12 43.809C353.938 41.0606 358.072 37.845 357.552 35.0417C356.867 30.177 343.342 27.8409 325.492 28.9952C332.747 22.2067 335.183 18.7437 333.157 12.5049C329.051 -0.137717 304.328 -3.76559 277.963 4.2597C251.597 12.285 234.951 24.8176 239.058 37.5702C235.867 37.9409 232.818 39.1053 230.189 40.9578C227.56 42.8104 225.432 45.2924 224 48.1789C227.998 54.8519 233.286 60.6549 239.551 65.2464C251.351 74.5085 265.506 74.7559 268.545 69.7538C269.694 67.8574 269.229 65.1915 267.477 62.1957C279.189 66.3219 291.332 69.0883 303.671 70.4409C336.525 74.3986 369.708 70.0011 370.967 60.1069C371.651 54.7476 361.631 45.5405 347.12 43.809Z" fill="#C67456"/>
<path d="M327.47 127.242C327.47 127.242 343.48 133.087 349.577 123.46C357.019 111.717 345.622 102.302 338.235 104.259C331.425 105.925 325.218 112.696 327.47 127.242Z" fill="#F9FEFF"/>
<path d="M350.254 108.599C349.12 106.637 347.451 105.069 345.46 104.096C343.468 103.123 341.244 102.787 339.069 103.132C336.84 103.5 334.741 104.464 332.977 105.929C331.212 107.393 329.842 109.308 329 111.488C329.951 109.773 331.236 108.284 332.773 107.118C334.311 105.952 336.066 105.134 337.926 104.718C340.201 104.262 342.556 104.564 344.657 105.581C346.758 106.598 348.497 108.279 349.628 110.383C350.687 112.691 351.173 115.239 351.04 117.793C350.906 120.347 350.159 122.825 348.866 125C350.627 122.714 351.698 119.937 351.945 117.018C352.192 114.099 351.604 111.17 350.254 108.599Z" fill="black"/>
<path d="M332.955 116.541C332.01 118.482 331.756 120.712 332.239 122.831C332.722 124.951 333.91 126.82 335.59 128.105C336.424 128.599 337.351 128.896 338.307 128.977C339.262 129.058 340.223 128.921 341.123 128.574C342.022 128.228 342.839 127.681 343.517 126.97C344.195 126.26 344.717 125.404 345.047 124.462C345.991 122.525 346.244 120.299 345.761 118.185C345.278 116.07 344.091 114.205 342.413 112.925C341.582 112.421 340.656 112.114 339.699 112.026C338.742 111.938 337.779 112.072 336.877 112.416C335.975 112.761 335.156 113.309 334.479 114.022C333.801 114.735 333.281 115.594 332.955 116.541Z" fill="#63190D"/>
<path d="M333.293 115.344C333.013 115.907 332.93 116.559 333.06 117.182C333.19 117.805 333.524 118.357 334.001 118.738C334.241 118.883 334.508 118.97 334.784 118.994C335.059 119.017 335.335 118.976 335.594 118.873C335.853 118.77 336.088 118.608 336.283 118.397C336.478 118.187 336.628 117.934 336.722 117.655C336.994 117.088 337.069 116.435 336.935 115.813C336.8 115.192 336.464 114.642 335.988 114.262C335.749 114.116 335.484 114.029 335.21 114.006C334.937 113.983 334.662 114.025 334.406 114.128C334.149 114.231 333.916 114.393 333.724 114.603C333.532 114.814 333.385 115.066 333.293 115.344Z" fill="#FEFFFE"/>
<path d="M296.439 127.242C296.439 127.242 277.22 133.087 269.916 123.46C260.974 111.717 274.638 102.302 283.497 104.259C291.69 105.925 299.133 112.696 296.439 127.242Z" fill="#F9FEFF"/>
<path d="M269.059 108.626C270.587 106.577 272.605 104.992 274.907 104.032C277.21 103.073 279.714 102.775 282.162 103.169C284.636 103.429 287.01 104.327 289.075 105.782C291.14 107.237 292.831 109.205 294 111.511C291.482 107.884 287.7 105.453 283.48 104.752C280.923 104.252 278.283 104.516 275.862 105.516C273.44 106.516 271.335 108.211 269.786 110.408C268.547 112.661 267.97 115.248 268.128 117.845C268.286 120.442 269.172 122.932 270.674 125C268.636 122.893 267.36 120.106 267.066 117.118C266.771 114.13 267.476 111.127 269.059 108.626Z" fill="black"/>
<path d="M276.653 117.316C275.985 118.881 275.825 120.599 276.194 122.251C276.562 123.902 277.443 125.413 278.723 126.59C280.003 127.767 281.625 128.558 283.382 128.861C285.139 129.165 286.952 128.967 288.59 128.294C290.228 127.621 291.617 126.502 292.58 125.081C293.543 123.659 294.037 121.999 293.998 120.312C293.959 118.624 293.39 116.986 292.362 115.605C291.335 114.224 289.896 113.164 288.229 112.558C286.024 111.765 283.578 111.819 281.415 112.708C279.251 113.597 277.542 115.251 276.653 117.316Z" fill="#63190D"/>
<path d="M277.178 116.601C277.057 116.904 276.996 117.227 277 117.552C277.004 117.877 277.073 118.199 277.202 118.498C277.331 118.797 277.518 119.068 277.752 119.295C277.987 119.523 278.264 119.702 278.568 119.823C278.873 119.944 279.198 120.004 279.525 120C279.853 119.996 280.177 119.928 280.478 119.8C280.779 119.671 281.052 119.486 281.281 119.253C281.509 119.02 281.69 118.744 281.811 118.442C282.058 117.846 282.063 117.178 281.826 116.577C281.588 115.977 281.127 115.491 280.537 115.221C280.227 115.081 279.891 115.006 279.55 115C279.21 114.995 278.872 115.059 278.557 115.188C278.242 115.317 277.957 115.51 277.72 115.753C277.483 115.996 277.299 116.285 277.178 116.601Z" fill="#FEFFFE"/>
<path d="M318.319 132.936C318.191 132.933 318.066 132.875 317.967 132.771C317.867 132.667 317.798 132.523 317.77 132.363C317.581 131.245 317.098 130.242 316.4 129.523C315.703 128.804 314.833 128.412 313.936 128.412C313.039 128.412 312.169 128.804 311.471 129.523C310.773 130.242 310.29 131.245 310.102 132.363C310.093 132.455 310.069 132.544 310.032 132.625C309.996 132.706 309.947 132.776 309.889 132.833C309.831 132.889 309.765 132.93 309.694 132.953C309.623 132.977 309.55 132.982 309.477 132.968C309.336 132.944 309.207 132.851 309.119 132.708C309.03 132.566 308.989 132.385 309.003 132.204C309.17 130.695 309.777 129.323 310.703 128.361C311.629 127.398 312.806 126.917 313.998 127.012C315.185 126.946 316.35 127.438 317.271 128.395C318.192 129.352 318.805 130.708 318.994 132.204C319.015 132.385 318.98 132.57 318.896 132.719C318.812 132.868 318.686 132.969 318.544 133L318.319 132.936Z" fill="#C68C75"/>
<path d="M371 239.217C371 238.665 370.83 238.417 367.12 236.155C366.553 235.797 370.292 236.624 369.952 235.935C367.864 233.005 365.035 230.649 361.739 229.094C352.845 224.405 344.745 225.812 343.159 228.294C342.026 230.032 347.039 245.037 355.055 246.995C355.848 247.188 352.845 241.479 353.752 241.313C354.658 241.148 357.065 242.141 359.756 243.327C365.421 245.754 367.233 244.954 368.593 243.327C368.593 242.527 359.501 237.81 359.529 237.534C359.558 237.259 368.338 241.341 371 239.217Z" fill="#FFD5C7"/>
<path d="M81.1529 170.576C81.1335 170.922 81.0422 171.26 80.885 171.567C80.7279 171.874 80.5085 172.144 80.2415 172.357C79.989 172.59 79.6917 172.767 79.3685 172.875C79.0454 172.984 78.7036 173.022 78.3652 172.988C78.0298 172.966 77.7023 172.875 77.4027 172.719C77.1031 172.564 76.8377 172.347 76.6229 172.083C76.1795 171.54 75.9586 170.843 76.0064 170.137C76.2745 166.812 77.0697 159.759 78.392 148.978C79.5893 138.892 80.1879 133.785 80.1879 133.658C80.1953 133.001 80.4331 132.369 80.858 131.876C81.17 131.532 81.5631 131.276 81.9995 131.132C82.436 130.988 82.9012 130.961 83.3508 131.054C83.8403 131.189 84.2908 131.443 84.6643 131.794C84.9389 132.053 85.1901 132.338 85.4148 132.643C85.8437 133.192 86.4602 134.069 87.2643 135.22C88.7117 137.33 90.5345 140.181 92.8128 143.771C98.0129 151.902 101.64 157.84 103.695 161.586C104.006 162.193 104.082 162.897 103.91 163.559C103.707 164.221 103.266 164.779 102.677 165.122C102.384 165.295 102.059 165.406 101.723 165.449C101.387 165.491 101.046 165.464 100.72 165.368C100.078 165.167 99.5325 164.727 99.1923 164.135C98.1737 162.216 96.5119 159.284 93.9922 155.31C90.2153 156.741 86.3462 157.904 82.4127 158.79C81.7426 164.354 81.3941 168.274 81.1529 170.576ZM84.557 140.427C84.557 141.249 84.3426 142.702 84.1014 144.758C83.8601 146.813 83.19 152.076 83.0292 153.172C85.7602 152.544 88.4467 151.729 91.0705 150.733C90.2664 149.362 85.7364 142.236 84.557 140.482V140.427Z" fill="#484D56"/>
<path d="M78.7825 40.7378C78.821 40.3019 79.0325 39.8981 79.3719 39.6128C79.5281 39.4675 79.7136 39.3559 79.9167 39.285C80.1197 39.2141 80.3357 39.1856 80.5507 39.2012C80.8764 39.2235 81.1884 39.338 81.4488 39.5305C83.6554 39.0313 85.9299 38.8831 88.1848 39.0915C89.8611 39.1841 91.455 39.8325 92.7035 40.9299C93.4299 41.6309 93.9471 42.5123 94.1993 43.4793C94.4515 44.4462 94.4292 45.4621 94.1349 46.4176C94.0175 47.0184 93.7781 47.5901 93.4311 48.099C93.084 48.608 92.6362 49.0438 92.1141 49.3809C92.5677 49.5729 93.0082 49.7929 93.4333 50.0394C94.4782 50.6402 95.3781 51.4545 96.0715 52.4266C96.7065 53.339 97.0306 54.4241 96.9977 55.5271C96.963 56.6687 96.5269 57.7637 95.7628 58.6277C94.8057 59.6756 93.628 60.5086 92.3106 61.0697C88.0256 62.5806 83.469 63.2157 78.9228 62.9355C78.6231 62.938 78.3296 62.852 78.0808 62.6886C77.7427 62.7651 77.3886 62.7377 77.0671 62.61C76.7456 62.4823 76.4723 62.2606 76.2845 61.9752C76.0363 61.6126 75.9454 61.1685 76.0319 60.7405C76.2845 59.6429 76.481 58.5179 76.6494 57.3381C76.8178 56.1582 76.9581 54.7863 77.0704 53.2223C77.1827 51.6583 77.323 50.4785 77.4072 49.573C77.4914 48.6675 77.7721 47.2133 78.1931 45.0182C78.6141 42.8231 78.7263 41.7805 78.7825 40.7378ZM85.6588 51.7132L84.7326 51.9327L81.9259 52.5089C81.6858 52.5667 81.4355 52.5721 81.193 52.5247C80.9504 52.4773 80.7215 52.3782 80.5226 52.2345C80.1577 55.9113 79.8771 58.3808 79.6525 59.6704C83.4694 59.906 87.2944 59.3545 90.8792 58.0515C92.7503 57.2832 93.6859 56.3686 93.6859 55.3076C93.6659 54.8188 93.4891 54.3484 93.1807 53.9632C92.7911 53.4114 92.2712 52.9597 91.6651 52.6461C89.8922 51.6731 87.8282 51.3336 85.8272 51.6858L85.6588 51.7132ZM80.8313 49.4358H81.112L83.9187 48.8322C85.0396 48.6163 86.1458 48.3322 87.2305 47.9816C88.1546 47.7272 89.0345 47.3387 89.8407 46.8291C90.2524 46.5837 90.576 46.2194 90.7669 45.7865C90.8858 45.3693 90.902 44.9306 90.8142 44.5062C90.7264 44.0817 90.5371 43.6837 90.2617 43.3445C89.5168 42.7863 88.6168 42.4612 87.6796 42.4115C85.7144 42.2348 83.7329 42.3738 81.8137 42.8231C81.8137 43.564 81.5611 44.5243 81.3365 45.567C81.112 47.6523 80.9155 48.8322 80.8313 49.4632V49.4358Z" fill="#FB3C3C"/>
<path d="M124.62 78.7077C124.9 78.7763 125.164 78.9058 125.394 79.0878C125.623 79.2698 125.813 79.5003 125.952 79.7642C126.24 80.2754 126.326 80.8838 126.192 81.4601C126.126 81.7494 126.005 82.0217 125.835 82.2607C125.666 82.4996 125.452 82.7002 125.206 82.8502C124.717 83.154 124.133 83.2439 123.581 83.1005C121.09 82.2257 118.417 82.0793 115.853 82.6772C113.288 83.2752 110.929 84.5946 109.033 86.4923C107.495 88.0701 106.289 89.9635 105.489 92.0527C104.704 94.1911 104.306 96.4631 104.316 98.753C104.301 100.688 104.74 102.597 105.595 104.313C105.913 104.969 106.352 105.552 106.888 106.029C107.423 106.506 108.043 106.868 108.713 107.094C110.717 107.616 112.831 107.41 114.708 106.51C117.935 105.122 120.889 103.124 123.421 100.616C123.629 100.414 123.875 100.259 124.143 100.159C124.411 100.059 124.695 100.017 124.979 100.036C125.263 100.054 125.541 100.132 125.795 100.265C126.049 100.398 126.275 100.584 126.458 100.81C126.652 101.024 126.8 101.278 126.892 101.556C126.984 101.834 127.018 102.13 126.991 102.423C126.975 102.725 126.898 103.019 126.764 103.288C126.631 103.556 126.445 103.792 126.218 103.98C118.784 110.764 112.47 113.266 107.274 111.403C105.703 110.871 104.295 109.911 103.197 108.623C102.108 107.317 101.284 105.794 100.773 104.147C100.279 102.461 100.019 100.71 100 98.9477C100.001 96.0953 100.507 93.2678 101.492 90.607C102.473 87.8707 104.02 85.3933 106.022 83.3507C107.435 81.8682 109.085 80.6544 110.898 79.7642C112.877 78.864 114.982 78.3008 117.133 78.0961C119.643 77.8574 122.175 78.0642 124.62 78.7077Z" fill="#FB3C3C"/>
<path d="M55.987 82.3037C56.0235 82.6357 55.9829 82.9713 55.8682 83.2865C55.7534 83.6018 55.5673 83.8889 55.3232 84.1272C55.3104 84.2559 55.3104 84.3854 55.3232 84.514C55.3232 84.9008 54.8036 86.0613 54.0821 88.023C53.2842 89.9796 52.732 92.02 52.4369 94.1014C52.5892 95.9238 53.4429 97.6272 54.8325 98.8813C55.2705 99.3689 55.4967 99.9987 55.4645 100.641C55.4323 101.284 55.1441 101.89 54.6593 102.335C54.4132 102.558 54.123 102.731 53.8057 102.845C53.4885 102.959 53.1507 103.011 52.8122 102.998C52.4722 102.991 52.1375 102.915 51.8295 102.777C51.5214 102.64 51.2467 102.442 51.0227 102.197C48.9674 100.219 47.6576 97.6435 47.2995 94.875C46.1773 95.9576 44.9607 96.9467 43.6629 97.8314C41.8641 99.1855 39.6584 99.9507 37.371 100.014C36.0076 100.048 34.6708 99.649 33.5692 98.8793C32.4676 98.1096 31.663 97.0125 31.2811 95.7592C31.0435 95.0745 30.9551 94.3504 31.0213 93.6317C31.0317 93.0206 31.0896 92.4111 31.1945 91.8082C31.3254 90.8145 31.5084 89.8279 31.7429 88.8518C32.4561 85.6871 33.8413 82.6965 35.8124 80.0657C37.1572 78.3916 38.8468 76.9997 40.7767 75.9766C42.6059 74.9239 44.6563 74.2728 46.78 74.0701C47.8732 73.9283 48.9852 74.0021 50.0474 74.2872C51.1096 74.5723 52.0997 75.0626 52.9565 75.7279C53.9007 76.5702 54.6562 77.5875 55.1771 78.7179C55.6981 79.8483 55.9736 81.0682 55.987 82.3037ZM49.926 82.9392C49.926 82.9392 50.0991 81.8616 50.0991 81.7787C50.1939 81.4015 50.3193 81.032 50.4743 80.6735C50.2923 80.2302 50.0059 79.8331 49.6373 79.5131C49.2947 79.2663 48.9025 79.0899 48.4853 78.9948C48.0682 78.8997 47.635 78.888 47.2129 78.9605C45.8147 79.1247 44.4679 79.5671 43.2588 80.2591C41.976 80.9547 40.8561 81.8951 39.9686 83.022C38.4399 85.1192 37.3608 87.4857 36.7937 89.9846C36.5968 90.795 36.4522 91.6162 36.3608 92.4436C36.3608 92.9962 36.2165 93.4659 36.1876 93.8251C36.2022 93.9074 36.2022 93.9915 36.1876 94.0738C36.534 94.7369 36.9092 95.0961 37.3421 95.0684C38.5545 94.9381 39.6994 94.467 40.6324 93.7146C42.0063 92.7962 43.2824 91.7504 44.4422 90.5925C45.4756 89.6045 46.4397 88.5523 47.3284 87.4427C48.3398 86.0228 49.2095 84.515 49.926 82.9392Z" fill="#484D56"/>
<path d="M512.987 58.3037C513.024 58.6357 512.983 58.9713 512.868 59.2865C512.753 59.6018 512.567 59.8889 512.323 60.1272C512.31 60.2559 512.31 60.3854 512.323 60.514C512.323 60.9008 511.804 62.0613 511.082 64.023C510.284 65.9796 509.732 68.02 509.437 70.1014C509.589 71.9238 510.443 73.6272 511.832 74.8813C512.271 75.3689 512.497 75.9987 512.465 76.6411C512.432 77.2835 512.144 77.8897 511.659 78.3349C511.413 78.5578 511.123 78.7313 510.806 78.8452C510.489 78.9591 510.151 79.011 509.812 78.998C509.472 78.9905 509.138 78.9154 508.829 78.7775C508.521 78.6395 508.247 78.4418 508.023 78.1968C505.967 76.2193 504.658 73.6435 504.3 70.875C503.177 71.9576 501.961 72.9467 500.663 73.8314C498.864 75.1855 496.658 75.9507 494.371 76.0141C493.008 76.048 491.671 75.649 490.569 74.8793C489.468 74.1096 488.663 73.0125 488.281 71.7592C488.043 71.0745 487.955 70.3504 488.021 69.6317C488.032 69.0206 488.09 68.4111 488.195 67.8082C488.325 66.8145 488.508 65.8279 488.743 64.8518C489.456 61.6871 490.841 58.6965 492.812 56.0657C494.157 54.3916 495.847 52.9997 497.777 51.9766C499.606 50.9239 501.656 50.2728 503.78 50.0701C504.873 49.9283 505.985 50.0021 507.047 50.2872C508.11 50.5723 509.1 51.0626 509.956 51.7279C510.901 52.5702 511.656 53.5875 512.177 54.7179C512.698 55.8483 512.974 57.0682 512.987 58.3037ZM506.926 58.9392C506.926 58.9392 507.099 57.8616 507.099 57.7787C507.194 57.4015 507.319 57.032 507.474 56.6735C507.292 56.2302 507.006 55.8331 506.637 55.5131C506.295 55.2663 505.902 55.0899 505.485 54.9948C505.068 54.8997 504.635 54.888 504.213 54.9605C502.815 55.1247 501.468 55.5671 500.259 56.2591C498.976 56.9547 497.856 57.8951 496.969 59.022C495.44 61.1192 494.361 63.4857 493.794 65.9846C493.597 66.795 493.452 67.6162 493.361 68.4436C493.361 68.9962 493.217 69.4659 493.188 69.8251C493.202 69.9074 493.202 69.9915 493.188 70.0738C493.534 70.7369 493.909 71.0961 494.342 71.0684C495.554 70.9381 496.699 70.467 497.632 69.7146C499.006 68.7962 500.282 67.7504 501.442 66.5925C502.476 65.6045 503.44 64.5523 504.328 63.4427C505.34 62.0228 506.21 60.515 506.926 58.9392Z" fill="#FB3C3C"/>
<path d="M34.1344 209.812C34.1782 209.282 34.4262 208.787 34.8299 208.423C34.992 208.259 35.1938 208.137 35.4171 208.067C35.6405 207.997 35.8784 207.982 36.1096 208.022C36.3497 208.075 36.5754 208.176 36.7719 208.319C36.9684 208.462 37.1315 208.643 37.2503 208.85C37.5219 209.323 37.6383 209.863 37.5841 210.4C36.9442 215.745 36.5269 219.514 36.3044 221.919C36.2941 221.848 36.2941 221.776 36.3044 221.705C37.095 220.189 38.3864 218.967 39.9767 218.231C40.8519 217.904 41.8027 217.811 42.7284 217.962C43.6542 218.113 44.5202 218.501 45.2347 219.086C46.0906 219.706 46.7935 220.5 47.2934 221.411C47.859 222.32 48.2897 223.301 48.5732 224.324C49.1423 226.364 49.1423 228.511 48.5732 230.551C48.0694 232.394 47.169 234.114 45.9302 235.602C44.7661 236.999 43.3178 238.154 41.6737 238.996C40.8026 239.423 39.8616 239.704 38.8917 239.825C38.1099 239.945 37.3186 239.999 36.5269 239.985C35.9427 239.985 35.1359 239.985 34.0787 239.691H33.8005C33.652 239.812 33.4783 239.9 33.2912 239.951C33.104 240.002 32.9078 240.013 32.7155 239.985C32.2696 239.907 31.8716 239.668 31.6027 239.317L31.2967 238.809C30.9695 237.953 30.9115 237.024 31.1298 236.137C31.2225 235.623 31.3433 235.115 31.4914 234.613C31.714 232.983 31.8809 230.872 32.0479 228.253C32.4744 224.137 33.1699 217.99 34.1344 209.812ZM35.1081 235.575C36.0261 235.731 36.9585 235.794 37.8901 235.762C38.7572 235.721 39.6034 235.493 40.3662 235.094C42.2013 234.2 43.6922 232.768 44.6227 231.005C45.4865 229.352 45.7131 227.459 45.2626 225.66C45.1026 225.104 44.8589 224.573 44.5392 224.084C44.287 223.618 43.9364 223.209 43.5099 222.881C43.1703 222.601 42.7654 222.404 42.3295 222.306C41.8936 222.208 41.4396 222.213 41.006 222.32C40.1623 222.752 39.4883 223.437 39.0864 224.271C38.8917 224.565 38.7248 224.912 38.53 225.233C38.3353 225.553 38.1962 225.954 38.0292 226.382L37.5841 227.478L37.1668 228.707L36.1931 231.941C36.1931 231.941 34.9968 235.468 34.969 235.575H35.1081Z" fill="#FB923C"/>
<path d="M555.021 115.913C555.322 116.096 555.576 116.34 555.763 116.628C555.95 116.916 556.067 117.24 556.103 117.575C556.161 117.907 556.149 118.246 556.065 118.573C555.982 118.9 555.831 119.209 555.619 119.479C555.408 119.753 555.141 119.984 554.834 120.16C554.527 120.335 554.186 120.451 553.831 120.501C553.476 120.551 553.114 120.534 552.766 120.45C552.418 120.367 552.091 120.219 551.804 120.016C550.671 118.955 549.179 118.301 547.588 118.169C545.996 118.037 544.406 118.434 543.093 119.292C541.847 120.178 540.826 121.314 540.104 122.617C539.302 124.046 538.781 125.6 538.566 127.203C538.32 128.527 538.407 129.887 538.822 131.173C539.108 132.076 539.723 132.855 540.559 133.372C541.051 133.622 541.595 133.768 542.153 133.801C542.955 133.844 543.758 133.79 544.545 133.64C545.808 133.421 547.034 133.042 548.189 132.514C549.803 131.82 551.355 131.004 552.829 130.073C553.129 129.889 553.466 129.765 553.818 129.71C554.171 129.655 554.532 129.669 554.879 129.751C555.232 129.815 555.568 129.946 555.866 130.135C556.164 130.323 556.419 130.567 556.616 130.851C556.973 131.431 557.087 132.117 556.934 132.772C556.781 133.428 556.373 134.005 555.79 134.391C548.246 139.004 542.296 140.13 537.968 137.878C536.968 137.387 536.081 136.716 535.358 135.901C534.635 135.086 534.09 134.145 533.755 133.131C533.026 131.003 532.821 128.746 533.157 126.533C533.489 124.289 534.241 122.119 535.378 120.123C536.457 118.161 537.995 116.455 539.876 115.135C541.219 114.191 542.763 113.532 544.402 113.204C546.11 112.886 547.873 112.941 549.555 113.365C551.536 113.871 553.393 114.736 555.021 115.913Z" fill="#484D56"/>
<path d="M459.043 94.2635C459.135 93.7634 459.349 93.2997 459.664 92.9221C459.979 92.5445 460.382 92.2672 460.831 92.1199C461.279 91.9726 461.756 91.9608 462.21 92.0858C462.665 92.2108 463.079 92.4678 463.409 92.8295C463.634 93.0959 463.801 93.4131 463.899 93.7583C463.998 94.1035 464.024 94.4681 463.978 94.8259C463.687 98.0865 463.222 101.326 462.583 104.527C461.911 107.957 461.058 111.725 459.999 115.774C458.94 119.824 458.32 122.945 457.906 124.941C457.747 125.637 457.35 126.241 456.796 126.628C456.233 126.979 455.571 127.086 454.939 126.93C454.308 126.774 453.753 126.365 453.385 125.785C453.042 125.18 452.922 124.457 453.049 123.76C453.489 121.454 454.238 118.305 455.22 114.284C456.201 110.263 457.028 106.636 457.648 103.43C458.269 100.405 458.734 97.3449 459.043 94.2635Z" fill="#FB923C"/>
<path d="M465.018 171.078C464.996 171.303 464.925 171.521 464.811 171.716C464.697 171.912 464.543 172.08 464.358 172.21C463.984 172.481 463.522 172.6 463.064 172.542C462.84 172.52 462.624 172.446 462.433 172.326C462.242 172.206 462.081 172.044 461.964 171.851C461.692 171.487 461.574 171.031 461.633 170.58C461.777 169.598 462.123 168.657 462.652 167.818C463.15 166.998 463.793 166.278 464.55 165.691C465.294 165.155 466.109 164.727 466.972 164.421C467.855 164.108 468.789 163.968 469.725 164.006C470.578 164.026 471.42 164.214 472.201 164.559C473.301 165.049 474.197 165.908 474.733 166.989C475.302 168.203 475.503 169.557 475.311 170.884C474.478 175.03 472.58 178.886 469.807 182.071C469.434 182.568 469.103 183.095 468.816 183.646L468.569 184.088L468.321 184.53L470.468 184.143C473.714 183.692 476.988 183.48 480.265 183.508C480.492 183.507 480.717 183.553 480.925 183.643C481.134 183.734 481.321 183.866 481.476 184.032C481.648 184.184 481.783 184.371 481.874 184.581C481.964 184.791 482.007 185.019 481.999 185.248C482.003 185.476 481.959 185.703 481.869 185.912C481.778 186.122 481.645 186.31 481.476 186.463C481.32 186.626 481.131 186.754 480.923 186.84C480.714 186.925 480.49 186.966 480.265 186.96C477.145 186.952 474.028 187.155 470.935 187.568C468.386 187.793 465.907 188.525 463.642 189.723C463.376 189.908 463.058 190.005 462.734 189.999C462.445 190.01 462.158 189.944 461.902 189.808C461.646 189.672 461.43 189.471 461.275 189.225C461.101 188.943 461.006 188.618 461 188.286C460.995 187.994 461.066 187.705 461.206 187.448C461.346 187.191 461.55 186.976 461.798 186.822C463.03 186.037 464.066 184.979 464.826 183.729L465.789 181.988C466.177 181.304 466.6 180.641 467.055 180C469.419 177.285 471.066 174.017 471.844 170.497C472.009 169.061 471.623 168.122 470.743 167.735C470.254 167.474 469.688 167.396 469.147 167.514C468.545 167.614 467.961 167.8 467.413 168.067C466.828 168.347 466.319 168.764 465.927 169.282C465.475 169.792 465.163 170.411 465.018 171.078Z" fill="#FB3C3C"/>
<path d="M520.616 206.014C520.48 206.331 520.28 206.617 520.03 206.852C519.78 207.088 519.485 207.268 519.164 207.382C518.525 207.641 517.812 207.641 517.173 207.382C516.861 207.243 516.58 207.04 516.349 206.786C516.118 206.532 515.94 206.232 515.828 205.904C515.574 205.254 515.574 204.53 515.828 203.88C516.608 202.224 517.695 200.738 519.029 199.501C520.325 198.231 521.863 197.244 523.548 196.601C524.509 196.196 525.54 195.991 526.58 196C527.619 196.009 528.647 196.231 529.601 196.652C530.555 197.073 531.415 197.686 532.132 198.453C532.848 199.22 533.405 200.125 533.77 201.116C534.329 202.492 534.56 203.983 534.443 205.467C534.326 206.951 533.865 208.386 533.097 209.653L532.775 210.228C533.336 210.494 533.861 210.834 534.335 211.24C535.971 212.384 537.263 213.966 538.071 215.811C538.878 217.655 539.167 219.691 538.907 221.693C538.277 225.255 536.357 228.447 533.528 230.641C532.145 231.75 530.626 232.67 529.009 233.377C527.355 234.122 525.608 234.629 523.817 234.882C522.012 235.137 520.174 234.978 518.437 234.417C516.628 233.823 514.998 232.768 513.703 231.352C513.464 231.11 513.278 230.819 513.158 230.498C513.037 230.177 512.985 229.834 513.004 229.492C513.035 228.799 513.323 228.143 513.811 227.658C514.047 227.412 514.333 227.221 514.649 227.099C514.964 226.976 515.303 226.924 515.64 226.947C515.976 226.961 516.307 227.043 516.612 227.189C516.917 227.334 517.19 227.541 517.415 227.795C518.182 228.558 519.116 229.127 520.139 229.455C521.162 229.783 522.247 229.861 523.306 229.683C525.895 229.373 528.333 228.277 530.3 226.536C532.213 225.161 533.54 223.097 534.012 220.763C534.134 219.649 533.947 218.523 533.471 217.512C532.996 216.501 532.251 215.646 531.322 215.044C530.844 214.739 530.298 214.56 529.735 214.524L528.793 215.427C528.281 215.884 527.711 216.271 527.099 216.576C526.605 216.827 526.064 216.967 525.512 216.987C525.069 217.016 524.626 216.925 524.229 216.723C523.832 216.522 523.495 216.216 523.252 215.837C523.002 215.487 522.838 215.08 522.772 214.652C522.707 214.224 522.742 213.786 522.876 213.375C523.194 212.385 523.77 211.501 524.542 210.817C525.313 210.133 526.253 209.674 527.26 209.489C527.846 208.738 528.36 207.932 528.793 207.081C529.188 206.517 529.45 205.868 529.557 205.185C529.664 204.501 529.615 203.802 529.412 203.141C529.104 202.315 528.498 201.64 527.717 201.253C527.02 201.067 526.281 201.125 525.619 201.417C524.612 201.829 523.698 202.443 522.929 203.223C521.972 203.976 521.184 204.927 520.616 206.014Z" fill="#FB923C"/>
<path d="M284.427 236.98C285.112 236.818 287.995 232.157 283.656 226.873C281.401 224.163 275.092 222.835 267.213 225.301C266.499 225.518 267.755 226.521 268.412 227.361C269.068 228.201 280.087 238.2 279.317 236.682C278.546 235.165 276.119 232.889 279.317 232.862C282.999 232.834 282.742 237.333 284.427 236.98Z" fill="#FFD5C7"/>
<path d="M282.692 233.829C281.604 235.091 274.04 228.99 275.102 227.729C276.163 226.468 277.756 226.966 279.826 228.286C281.896 229.606 283.753 232.568 282.692 233.829Z" fill="#C68C75"/>
<path d="M288.09 238L286 239.81L287.468 242.284L291 245L289.557 240.474L288.09 238Z" fill="#443F3D"/>
<path d="M269.697 212.866L267.41 214.509L286.883 241.635L289.169 239.991L269.697 212.866Z" fill="#3685B2"/>
<path d="M274.009 224.691C276.52 226.694 277.596 232.931 284.108 229.601C285.322 228.98 286.868 233.552 285.405 235.245C284.522 235.951 285.653 236.656 283.97 238.377C282.922 239.45 281.901 239.732 281.735 240.409C281.1 243.231 278.976 242.131 278.589 243.231C278.352 243.836 277.917 244.337 277.358 244.651C276.8 244.965 276.153 245.071 275.526 244.953C272.767 244.953 268.655 241.171 263.661 237.418C260.57 235.076 262.53 227.569 263.661 226.779C267.966 223.731 272.491 223.449 274.009 224.691Z" fill="#FFD5C7"/>
<path d="M264 258.804L212.385 260L205 241H253.046L264 258.804Z" fill="#6DB98F"/>
<path d="M207.042 248.081L213 260.216L212.329 267L205 248L207.042 248.081Z" fill="#5A9B63"/>
<path d="M206 242L213 259.645L212.462 265L206 247.993V242Z" fill="#DAECEF"/>
<path d="M264 258L212.655 259.342L212 267L262.58 265.841L264 258Z" fill="#5A9B63"/>
<path d="M223 259.904L215.107 241H214L221.992 260.126L221.574 266.972L222.066 267H222.582L223 259.904Z" fill="#A07320"/>
<path d="M257 258.358L246.311 241H245L255.777 258.565L255.311 264.948L255.893 265L256.476 264.974L257 258.358Z" fill="#A07320"/>
<path d="M265 246.88L215.503 252L207 233.995L253.117 230L265 246.88Z" fill="#A0AAF7"/>
<path d="M209.036 240L216 250.742L215.882 257L207 240.052L209.036 240Z" fill="#8D8CDD"/>
<path d="M208 235L216 250.968L215.915 256L208.482 240.576L208 235Z" fill="#DAECEF"/>
<path d="M265 246L215.112 250.744L215 257L264.135 252.464L265 246Z" fill="#8D8CDD"/>
<path d="M226.91 249.511L216.254 233L215 233.106L225.776 249.802L225.836 256H226.403L227 255.947L226.91 249.511Z" fill="#A34876"/>
<path d="M257.919 247.103L247.16 230L246 230.112L256.894 247.383L256.948 254H257.461L258 253.944L257.919 247.103Z" fill="#A34876"/>
<path d="M221 256C221.552 256 222 255.328 222 254.5C222 253.672 221.552 253 221 253C220.448 253 220 253.672 220 254.5C220 255.328 220.448 256 221 256Z" fill="#A34876"/>
<path d="M183 224V246.681C183 248.519 187.255 250 192.514 250C197.772 250 202 248.519 202 246.681V224H183Z" fill="#C14C38"/>
<path d="M202 223.486C202 225.416 197.745 227 192.514 227C187.282 227 183 225.416 183 223.486C183 221.556 187.255 220 192.514 220C197.772 220 202 221.556 202 223.486Z" fill="#C14C38"/>
<path d="M201 224.489C201 225.869 197.175 227 192.5 227C187.825 227 184 225.869 184 224.489C184 223.109 187.798 222 192.5 222C197.202 222 201 223.109 201 224.489Z" fill="#933124"/>
<path d="M157.924 253.378C160.647 253.145 163.369 253 166.5 253C169.631 253 172.462 253.145 175.076 253.378H187V256.985C187 259.196 177.825 261 166.5 261C155.175 261 146 259.196 146 256.985V253.378H157.924Z" fill="#0A6F7F"/>
<path d="M186 253C186 255.219 177.049 257 166 257C154.951 257 146 255.219 146 253C146 250.781 154.951 249 166 249C177.049 249 186 250.781 186 253Z" fill="#49A5BA"/>
<path d="M164.244 238.185L164.028 247.4L168.483 247.504L168.698 238.289L164.244 238.185Z" fill="#6CA7BC"/>
<path d="M161.889 243.006L161.674 252.221L170.555 252.429L170.771 243.213L161.889 243.006Z" fill="#248DAA"/>
<path d="M171.981 238.016L157.475 162.896C157.449 162.752 157.394 162.614 157.313 162.492C157.231 162.369 157.126 162.264 157.003 162.183C156.88 162.101 156.741 162.046 156.596 162.019C156.45 161.992 156.301 161.994 156.156 162.026C146.795 163.83 138.4 168.906 132.504 176.328C126.609 183.751 123.605 193.024 124.042 202.456C124.478 211.888 128.325 220.851 134.882 227.708C141.438 234.566 150.266 238.861 159.755 239.811C163.57 240.181 167.419 240.007 171.184 239.294C171.454 239.218 171.685 239.044 171.832 238.808C171.98 238.571 172.032 238.289 171.981 238.016ZM142.557 231.434C136.522 227.364 131.819 221.638 129.027 214.958C126.234 208.278 125.474 200.936 126.84 193.834C128.206 186.732 131.638 180.18 136.715 174.983C141.791 169.786 148.291 166.171 155.415 164.582L169.59 237.417C160.134 238.929 150.453 236.777 142.557 231.407V231.434Z" fill="#6CA7BC"/>
<path d="M195.424 195.548C196.619 201.666 195.945 207.995 193.487 213.736C191.028 219.476 186.896 224.37 181.612 227.799C176.329 231.228 170.131 233.038 163.803 232.999C157.474 232.961 151.3 231.076 146.059 227.583C140.819 224.091 136.748 219.147 134.362 213.377C131.976 207.606 131.381 201.269 132.653 195.166C133.925 189.064 137.006 183.469 141.508 179.09C146.009 174.711 151.728 171.744 157.942 170.565C166.277 168.991 174.906 170.737 181.934 175.421C188.962 180.106 193.814 187.344 195.424 195.548Z" fill="#43A8BF"/>
<path d="M159.605 170.362C159.524 170.257 159.416 170.179 159.294 170.139L157.713 170.418C156.405 170.701 155.115 171.073 153.851 171.533C153.515 171.685 153.234 171.949 153.048 172.285C152.737 173.038 151.311 173.094 151 174.153C151 174.599 152.97 173.902 153.281 174.153C154.11 174.599 153.721 175.574 154.603 176.327C155.484 177.079 153.955 177.33 153.929 178.194C154.94 180.675 157.687 183.295 157.92 181.288C158.055 180.324 158.317 179.385 158.698 178.501C159.864 176.383 162.767 176.466 163 174.905C163 174.069 162.197 174.181 162.274 173.595C162.482 172.007 161.004 172.592 161.004 171.421C161.004 171.087 161.212 170.279 161.004 170H160.616C160.227 170.195 159.812 170.585 159.605 170.362Z" fill="#B1D57E"/>
<path d="M165.112 211.383C164.692 210.655 158.63 212.732 160.426 210.224C160.651 209.873 159.416 209.064 158.546 208.848C157.676 208.632 156.694 209.064 156.189 208.848C153.888 207.607 153.551 207.553 151.615 208.066C149.679 208.578 148.809 206.879 147.209 209.738C146.816 209.36 146.311 208.983 146.143 209.198C145.975 209.414 145.806 210.304 144.375 209.36C143.505 208.794 143.786 207.121 143.758 207.013C143.73 206.906 141.821 207.364 141.765 207.013C141.541 205.908 142.074 204.694 141.765 204.316C141.457 203.938 140.559 204.316 140.531 204.613C140.531 205.449 140.531 206.663 139.436 206.177C137.332 205.125 137.388 200.782 138.23 200.782C138.859 200.904 139.508 200.904 140.138 200.782C140.138 200.782 140.643 199.191 141.26 199.541C141.878 199.892 142.551 202.617 143.758 201.969C144.01 201.969 142.691 198.22 142.916 198.058C143.926 197.303 144.824 196.601 145.105 196.331C145.918 195.495 144.515 194.389 146.255 192.609C147.995 190.829 149.061 191.044 149.931 189.561C150.464 188.644 147.125 189.075 147.714 188.374C148.304 187.672 153.327 186.486 153.327 185.676C153.327 184.867 151.194 184.84 149.875 182.089C149.651 181.63 149.314 183.491 148.697 183.303C148.079 183.114 148.472 182.493 148.023 182.17C147.574 181.846 145.722 181.118 145.666 181.846C145.385 184.705 143.674 188.536 143.028 187.888C142.383 187.241 143.028 186.836 142.86 186.27C142.86 185.272 139.801 186.27 140.054 184.166C140.306 182.062 145.666 179.796 146.143 177.503C146.143 177.179 147.771 177.665 147.827 178.366C147.883 179.067 147.125 181.064 147.434 181.225C149.707 182.035 150.689 179.472 151.222 178.69C151.755 177.908 149.174 178.258 149.875 177.395C150.577 176.532 147.714 175.345 148.444 174.697C149.42 173.704 150.491 172.801 151.643 172C146.219 174.193 141.522 177.77 138.059 182.343C134.597 186.917 132.502 192.314 132 197.95C134.329 204.154 137.612 209.01 139.52 207.337C140.11 206.798 140.559 208.281 141.26 208.146C141.737 208.12 142.212 208.232 142.622 208.467C143.033 208.703 143.36 209.052 143.561 209.468C143.73 209.765 146.171 210.52 146.171 210.197C146.171 209.414 146.873 209.846 147.322 210.035C147.771 210.223 148.051 211.329 147.939 211.545C147.619 212.083 147.451 212.692 147.451 213.312C147.451 213.932 147.619 214.541 147.939 215.079C150.745 216.967 151.755 218.829 154.618 219.044C156.227 220.732 157.484 222.701 158.322 224.844C160.038 226.569 162.314 227.682 164.776 228C165.477 228 161.408 226.247 161.97 225.303C162.582 224.433 163.144 223.533 163.653 222.605C164.243 221.445 163.962 220.123 164.186 219.638C164.832 218.181 166.824 218.64 166.628 217.372C166.095 214.027 168.255 213.056 167.975 211.977C168.115 211.734 165.477 211.977 165.112 211.383Z" fill="#B1D57E"/>
<path d="M168 177.288C168 177.531 166.91 177.969 166.698 177.985C165.82 178.083 164.095 177.677 164.004 177.434C163.913 177.19 165.487 177.109 166.365 177.028C167.243 176.947 167.909 177.044 168 177.288Z" fill="#B1D57E"/>
<path d="M171.911 179.085C171.911 179.085 173.229 178.893 173.069 179.085C172.908 179.278 172.844 179.494 173.069 179.47C173.294 179.446 173.583 179.254 173.776 179.47C173.831 179.496 173.877 179.531 173.91 179.573C173.944 179.614 173.964 179.661 173.969 179.71C173.954 179.83 173.954 179.95 173.969 180.07C174.495 180.405 175.053 180.71 175.641 180.983C175.724 181.093 175.846 181.184 175.994 181.247C175.994 181.247 176.219 181.247 176.348 181.247C176.502 181.289 176.636 181.364 176.734 181.463C176.734 181.463 176.734 181.703 176.734 181.823C176.734 181.943 176.927 181.823 176.991 181.967C177.055 182.111 176.766 182.376 176.541 182.424C176.316 182.472 175.641 182.424 175.223 182.64L174.387 183C174.194 183 174.13 182.736 174.387 182.352C174.428 182.122 174.347 181.889 174.162 181.703C174.162 181.559 174.162 181.511 174.162 181.415C174.185 181.377 174.197 181.336 174.197 181.295C174.197 181.253 174.185 181.212 174.162 181.175C174.162 180.863 173.519 180.911 173.229 180.791C172.94 180.67 172.361 180.238 172.201 180.142C172.04 180.046 171.14 179.782 171.011 179.71C170.883 179.638 171.911 179.109 171.911 179.085Z" fill="#B1D57E"/>
<path d="M173.207 182.71C172.857 182.939 171.769 183.066 171.808 182.965C171.808 182.1 170.72 181.922 171.069 181.693C171.419 181.464 171.73 180.854 172.468 181.032C173.207 181.21 173.634 181.235 173.44 181.388C173.246 181.541 173.867 182.151 173.984 182.202C174.101 182.253 173.556 182.481 173.207 182.71Z" fill="#B1D57E"/>
<path d="M188.337 182.431C188.626 182.131 188.821 181.754 188.898 181.347C186.263 178.109 183.01 175.417 179.326 173.423L179.607 173.701C179.775 173.701 180.084 174.062 180.112 174.312C178.596 174.145 178.961 173.284 178.653 173.006C178.344 172.728 178.653 173.006 178.653 173.006L176.912 172.199C176.435 172.199 175.902 172.394 175.593 172.199C175.361 172.045 175.082 171.977 174.804 172.007C174.526 172.038 174.269 172.165 174.077 172.366C173.881 172.7 174.077 173.367 174.47 173.784C174.743 174.119 174.919 174.521 174.978 174.947C175.038 175.373 174.978 175.808 174.807 176.203C174.105 177.538 176.07 178.983 176.295 178.622C176.519 178.26 176.94 177.788 177.193 177.871C177.954 178.192 178.621 178.699 179.13 179.345C179.326 179.678 180.056 179.345 180 178.678C179.861 178.23 179.619 177.822 179.292 177.484C178.966 177.146 178.564 176.888 178.119 176.731C177.67 176.731 177.67 175.452 177.389 175.091C177.109 174.729 177.024 174.479 177.081 174.285C177.137 174.09 178.035 174.285 178.063 174.285C178.091 174.285 178.961 176.592 179.719 176.592C180.477 176.592 180.617 176.231 180.982 176.592C181.881 177.232 180.533 177.232 180.561 177.538C180.589 177.843 181.684 178.594 181.712 179.428C181.235 179.845 181.151 179.428 180.954 179.428C180.758 179.428 180.758 180.235 179.803 180.04C179.118 179.905 178.492 179.565 178.007 179.067C177.305 179.539 178.175 180.068 178.653 180.401C179.13 180.735 177.502 180.846 177.642 181.875C177.446 183.877 176.21 183.71 175.481 183.849C175.2 183.849 175.481 184.767 177.361 184.906C177.361 185.156 178.035 186.463 177.614 186.379C177.108 186.238 176.576 186.214 176.06 186.311C175.544 186.407 175.057 186.621 174.638 186.935C175.874 188.353 175.116 189.41 175.677 189.716C176.239 190.022 176.884 189.716 177.305 190.161C177.726 190.605 179.635 188.854 179.382 188.604C178.596 187.881 179.382 187.714 179.382 187.519C179.382 185.545 180.73 185.907 180.982 185.851C181.235 185.795 181.347 185.128 181.544 185.045C182.526 186.129 184.547 186.629 185.137 187.825C185.137 187.825 184.968 186.713 185.137 186.713C184.828 185.74 184.295 186.435 182.33 184.572L182.807 184.266C183.602 184.87 184.481 185.357 185.417 185.712C185.614 185.712 186.428 188.187 187.607 188.492C187.775 188.492 186.821 187.186 187.158 186.185C187.382 186.185 187.832 186.546 187.888 186.852C187.944 187.158 188.393 187.825 188.589 188.103C188.786 188.381 189.74 187.769 190.414 188.103C190.98 188.79 191.47 189.536 191.874 190.327C191.088 190.327 189.768 191.523 187.916 190.327C186.681 190.327 188.056 191.857 187.439 191.968C186.821 192.079 185.109 190.661 184.435 190.8C183.565 190.049 184.435 189.021 183.593 189.16C181.543 189.573 179.619 190.459 177.979 191.745C176.575 192.663 176.912 193.275 176.323 194.526C175.733 195.777 174.161 197.445 174.189 199.28C174.189 199.975 174.919 199.28 174.891 201.171C174.891 202.061 174.386 202.005 174.695 202.784C175.284 204.118 178.821 208.011 179.242 206.732C179.663 205.453 181.74 206.732 183.817 204.841C184.014 204.674 185.053 205.008 185.305 205.23C186.653 205.23 186.119 208.011 186.316 210.291C186.316 211.347 185.081 212.348 184.968 213.266C184.547 217.381 183.144 217.992 183.144 217.992C185.137 218.215 191.565 213.544 191.902 209.429C192.126 207.316 193.923 205.481 193.923 202.589C193.627 199.179 192.814 195.832 191.509 192.663C191.284 192.135 191.93 191.662 192.239 191.217C193.867 194.581 194.905 198.557 195.635 198.363C195.776 198.326 195.904 198.249 196 198.14C196 197.334 195.775 196.528 195.635 195.721C194.931 192.159 193.631 188.739 191.789 185.601C190.785 184.398 189.624 183.332 188.337 182.431ZM189.544 185.211C189.067 184.961 188.73 184.933 188.674 185.045C188.582 185.159 188.467 185.254 188.337 185.323C186.933 185.795 187.074 183.766 186.653 182.987C187.058 182.994 187.456 182.888 187.803 182.681C188.533 183.488 189.628 184.739 189.572 185.35L189.544 185.211Z" fill="#B1D57E"/>
<path d="M146.999 204.683C146.51 204.912 145.924 205.022 145.334 204.996C144.789 204.996 144.759 204.558 144.002 204.391C142.67 204.12 141.943 204.85 142.004 204.537C142.064 204.224 143.336 203.765 144.698 204.141C146.061 204.516 147.03 204.475 146.999 204.683Z" fill="#B1D57E"/>
<path d="M149 204.538C149 204.82 148.576 204.897 148.106 205C147.881 205.006 147.659 204.945 147.464 204.823C147.269 204.701 147.108 204.522 147 204.307C147 204.051 147.471 203.948 147.941 204.025C148.412 204.102 148.953 204.281 149 204.538Z" fill="#B1D57E"/>
<path d="M155 188.871C155 189.161 154.022 188.871 153.407 188.871C152.792 188.871 152.121 189.145 152.009 188.871C151.897 188.597 152.82 188 153.435 188C153.838 188.004 154.224 188.096 154.515 188.257C154.805 188.419 154.979 188.638 155 188.871Z" fill="#B1D57E"/>
<path opacity="0.14" d="M181.999 181.645C181.97 183.719 181.328 185.738 180.153 187.448C178.978 189.157 177.323 190.48 175.397 191.25C173.471 192.02 171.36 192.202 169.331 191.774C167.302 191.345 165.444 190.325 163.994 188.842C162.544 187.36 161.565 185.481 161.181 183.442C160.798 181.404 161.026 179.297 161.838 177.389C162.65 175.48 164.01 173.855 165.744 172.718C167.479 171.581 169.512 170.983 171.586 171C172.97 171.012 174.338 171.296 175.611 171.838C176.885 172.38 178.038 173.168 179.006 174.158C179.974 175.147 180.736 176.318 181.25 177.603C181.764 178.888 182.018 180.262 181.999 181.645Z" fill="white"/>
<path opacity="0.21" d="M175 194C174.939 194.276 174.702 194.53 174.334 194.714C173.966 194.898 173.491 195 173 195C172.509 195 172.034 194.898 171.666 194.714C171.298 194.53 171.061 194.276 171 194C171.061 193.724 171.298 193.47 171.666 193.286C172.034 193.102 172.509 193 173 193C173.491 193 173.966 193.102 174.334 193.286C174.702 193.47 174.939 193.724 175 194Z" fill="white"/>
<path opacity="0.28" d="M155 223.563C154.983 224.756 154.493 225.894 153.637 226.726C152.782 227.558 151.631 228.016 150.437 228C149.244 227.983 148.106 227.493 147.274 226.637C146.442 225.782 145.984 224.631 146 223.437C146.009 222.846 146.133 222.263 146.367 221.72C146.601 221.177 146.939 220.686 147.363 220.274C147.786 219.862 148.287 219.537 148.836 219.319C149.385 219.1 149.972 218.992 150.563 219C151.154 219.009 151.737 219.133 152.28 219.367C152.823 219.601 153.314 219.939 153.726 220.363C154.138 220.786 154.463 221.287 154.681 221.836C154.9 222.385 155.008 222.972 155 223.563Z" fill="#12849F"/>
<path opacity="0.28" d="M149 217.991C149 218.124 148.961 218.255 148.886 218.377C148.81 218.5 148.7 218.611 148.561 218.704C148.421 218.798 148.256 218.872 148.074 218.923C147.892 218.974 147.697 219 147.5 219C147.303 219 147.108 218.974 146.926 218.923C146.744 218.872 146.579 218.798 146.439 218.704C146.3 218.611 146.19 218.5 146.114 218.377C146.039 218.255 146 218.124 146 217.991C146.014 217.725 146.181 217.473 146.466 217.288C146.751 217.103 147.131 217 147.527 217C147.915 217.005 148.286 217.111 148.561 217.295C148.836 217.48 148.993 217.73 149 217.991Z" fill="#12849F"/>
<path opacity="0.33" d="M143.999 217.014C143.999 217.275 143.841 217.526 143.56 217.711C143.279 217.896 142.897 218 142.5 218C142.098 217.993 141.717 217.883 141.437 217.694C141.157 217.504 141 217.25 141 216.986C141.011 216.722 141.178 216.471 141.466 216.287C141.754 216.103 142.14 216 142.541 216C142.738 216.004 142.932 216.033 143.112 216.085C143.292 216.138 143.454 216.214 143.59 216.308C143.725 216.402 143.831 216.513 143.901 216.634C143.972 216.755 144.005 216.884 143.999 217.014Z" fill="#12849F"/>
<path opacity="0.21" d="M169.999 188.02C169.993 188.218 169.899 188.41 169.729 188.572C169.56 188.734 169.322 188.859 169.045 188.931C168.769 189.003 168.467 189.019 168.178 188.977C167.888 188.934 167.624 188.835 167.418 188.693C167.213 188.55 167.075 188.37 167.023 188.175C166.971 187.981 167.007 187.78 167.126 187.599C167.245 187.418 167.442 187.264 167.691 187.158C167.941 187.051 168.233 186.996 168.529 187C168.727 187 168.923 187.027 169.106 187.078C169.288 187.13 169.453 187.206 169.59 187.301C169.727 187.397 169.834 187.509 169.905 187.633C169.975 187.756 170.007 187.888 169.999 188.02Z" fill="white"/>
<path opacity="0.29" d="M196 201.532C195.994 202.225 195.781 202.901 195.39 203.474C194.999 204.047 194.447 204.49 193.803 204.748C193.159 205.007 192.453 205.068 191.775 204.924C191.096 204.78 190.476 204.438 189.992 203.941C189.508 203.444 189.183 202.815 189.058 202.133C188.932 201.451 189.012 200.747 189.288 200.11C189.563 199.474 190.021 198.933 190.604 198.558C191.187 198.182 191.869 197.988 192.562 198.001C193.485 198.017 194.364 198.397 195.008 199.059C195.652 199.72 196.008 200.609 196 201.532Z" fill="white"/>
<path d="M204 207.989L206.704 209L207.746 206.498L208 202L205.042 205.487L204 207.989Z" fill="#DBC9C3"/>
<path d="M200.478 225.985L208 206.072L205.304 205L197 227C198.203 226.854 199.376 226.511 200.478 225.985Z" fill="#006284"/>
<path d="M199 204.521L201.568 205L202 202.337L201.924 196L199.432 201.885L199 204.521Z" fill="#DBC9C3"/>
<path d="M198.46 226.624L202 202.456L199.701 202L196 227C196.827 226.944 197.649 226.818 198.46 226.624Z" fill="#F9BB3D"/>
</svg>
