<svg width="148" height="70" viewBox="0 0 148 70" fill="none" xmlns="http://www.w3.org/2000/svg">
<g clip-path="url(#clip0_8_2477)">
<path d="M134.014 68.1541V68.32C133.973 68.4138 133.923 68.5041 133.865 68.5893L133.653 68.838L133.441 69.0246C133.22 69.2083 132.969 69.3553 132.699 69.4596H132.592C132.329 69.5623 132.049 69.6185 131.765 69.6255H123.281C123.054 69.6327 122.829 69.5919 122.62 69.5061C122.412 69.4202 122.225 69.2913 122.072 69.1282L112.802 59.762L106.715 68.7965L106.587 68.9622L106.375 69.2109H106.269H106.163H106.015C105.845 69.3527 105.651 69.4649 105.442 69.5426L105.23 69.6461C104.964 69.7408 104.685 69.7967 104.403 69.8119H95.9181C95.6919 69.8191 95.4665 69.7785 95.2579 69.6925C95.0491 69.6068 94.862 69.4778 94.7091 69.3145L91.5486 65.7713L80.4338 69.6461C80.1739 69.7604 79.8914 69.817 79.6066 69.8119C79.2214 69.8222 78.8451 69.6971 78.5461 69.4596L78.3762 69.2939L73.0734 63.3675C72.8613 64.0721 72.6916 64.7766 72.4583 65.4397L72.3311 65.7298C72.2945 65.8257 72.2444 65.9164 72.1826 65.9991L72.0554 66.1649L71.8219 66.4136L71.525 66.683C71.361 66.8059 71.1831 66.9102 70.9947 66.9939L70.3796 67.7397C70.0879 67.8466 69.7792 67.9026 69.4675 67.9056H62.5103C62.2853 67.9168 62.0606 67.8799 61.8518 67.7976C61.6431 67.7152 61.4551 67.5895 61.3012 67.4289L59.0104 64.8596L58.0134 68.092C57.9897 68.202 57.9466 68.3072 57.8862 68.4029L57.7588 68.6723L57.6316 68.838L57.4196 69.0867C57.3311 69.187 57.2314 69.2773 57.1225 69.356C56.9462 69.4718 56.7619 69.5756 56.5711 69.6668L56.2953 69.8119C56.0113 69.923 55.71 69.9862 55.4043 69.9984H42.8048C42.575 70.0086 42.3456 69.9694 42.1331 69.8834C41.9205 69.7975 41.7298 69.667 41.5746 69.5011L39.7292 67.4289H33.0477L32.8992 67.9262C32.8734 68.0328 32.8379 68.1368 32.7931 68.237C32.7355 68.3224 32.6858 68.4126 32.6446 68.5064L32.5174 68.6723L32.3052 68.921C32.2168 69.0212 32.1172 69.1115 32.0083 69.1903C31.832 69.306 31.6477 69.4099 31.4567 69.5011L31.181 69.6461C30.8971 69.7573 30.5958 69.8203 30.2901 69.8327H22.4208C22.1944 69.8399 21.9692 69.7991 21.7604 69.7133C21.5518 69.6274 21.3645 69.4985 21.2117 69.3354L18.7724 66.6208H11.4969C11.272 66.632 11.0473 66.5952 10.8385 66.513C10.6297 66.4305 10.4418 66.3047 10.2878 66.1442L0.382113 55.6591C0.461439 55.7373 0.554945 55.8007 0.657871 55.8456C0.47441 55.7393 0.321257 55.5896 0.21245 55.4104C0.0728481 55.1442 0 54.8495 0 54.5505C0 54.2514 0.0728481 53.9567 0.21245 53.6905C5.8148 42.4485 10.4066 30.7521 13.9362 18.7334V18.5883L13.2362 17.8008C13.2362 17.8008 13.3423 17.8008 13.4059 17.9459C13.1712 17.7354 13.0057 17.4616 12.9301 17.1592C12.8546 16.8568 12.8726 16.5392 12.9817 16.2468L15.2937 8.66271C15.4867 8.09037 15.8503 7.58737 16.3378 7.21819C16.8253 6.84901 17.4145 6.63047 18.0299 6.59055H26.5146L27.8932 2.07324C28.0888 1.50238 28.453 1.00091 28.94 0.632109C29.427 0.263309 30.0149 0.0437175 30.6295 0.00109786H38.5626C38.7984 -0.00787029 39.0331 0.0382097 39.247 0.135508C39.461 0.232806 39.648 0.37853 39.7928 0.560588L42.5079 3.60666L42.72 3.04717C42.9117 2.47021 43.2778 1.96348 43.7699 1.59363C44.2622 1.22377 44.8576 1.00811 45.4776 0.975013H73.4977C73.7327 0.970898 73.9658 1.01915 74.179 1.11609C74.392 1.21303 74.5798 1.35612 74.728 1.5345L83.2125 11.0871L83.0641 3.13007C83.0759 2.77954 83.161 2.43507 83.3141 2.1179C83.4674 1.80073 83.6854 1.51755 83.9549 1.28582C84.4675 0.765492 85.1675 0.46077 85.9064 0.436264H94.3909C94.6627 0.428092 94.932 0.49101 95.1707 0.618513C95.4093 0.746016 95.6087 0.933459 95.7484 1.1615C95.7116 1.07827 95.6616 1.00131 95.5999 0.93356L101.963 7.9996L103.045 4.45625C103.233 3.88092 103.595 3.37484 104.084 3.00485C104.572 2.63489 105.164 2.41843 105.781 2.38409H136.75C136.987 2.37429 137.223 2.41776 137.44 2.51116C137.657 2.60458 137.849 2.74542 138.002 2.92283L147.674 13.7602L147.801 13.9053C147.905 14.0612 147.97 14.2385 147.992 14.4233C147.992 14.4233 147.992 14.4233 147.992 14.5269C148.003 14.6787 148.003 14.831 147.992 14.9827C147.999 15.1 147.999 15.2177 147.992 15.335L138.256 47.0183L138.129 47.3291L137.98 47.5984C137.98 47.5984 137.98 47.702 137.853 47.7642L137.641 48.0128L137.323 48.2823C137.153 48.4066 136.962 48.4895 136.792 48.5931C136.623 48.6967 136.602 48.7174 136.517 48.7382C136.229 48.8612 135.919 48.9248 135.605 48.9246H131.362L133.038 50.7896V50.9346C133.146 51.1264 133.211 51.3382 133.229 51.5562L134.162 67.1802V67.7397C134.162 67.7397 134.162 67.7397 134.162 67.8848C134.162 68.0299 134.014 68.092 134.014 68.1541Z" fill="black"/>
<path d="M2.29108 54.0843C7.95528 42.7133 12.6037 30.8857 16.1846 18.7334H22.7812C19.2953 30.8563 14.7975 42.6795 9.33327 54.0843H2.29108ZM44.9259 3.00574L42.6139 10.507H70.5918L72.9037 3.00574H44.9259ZM23.4601 54.8096H31.3506C36.2996 46.6667 40.2239 37.9697 43.038 28.9077H36.0172C33.1019 38.0515 28.8587 46.7395 23.4176 54.706L23.4601 54.8096ZM37.2262 18.0082L34.8929 25.6336H48.2772L40.8746 49.7742H36.0383L33.705 57.3375H46.3046L56.0196 25.6336H69.0221L71.3765 18.0082H37.2262ZM31.287 24.0382L33.6628 16.3089H38.5626L40.8957 8.7249H36.0383L38.1595 2.15619H30.078L27.9568 8.7249H17.4572L15.124 16.3089H25.7296L13.2149 57.379H21.0843L28.4658 33.3006L31.2445 35.9737L34.0657 26.7734L31.287 24.0382ZM57.1648 29.1564C57.368 37.9318 56.1364 46.6826 53.5166 55.079H60.4952C63.1299 46.6714 64.5578 37.9473 64.7373 29.1564H57.1648ZM93.9241 2.44629H85.3336L85.5669 15.6873H94.1787L93.9241 2.44629ZM75.9582 19.8317L73.4763 27.9545H79.3944L70.3796 57.379L85.5882 52.0744L88.3669 42.9775L82.3003 45.0497L90.0425 19.8109L75.9582 19.8317ZM95.2394 57.3375L105.739 41.7343H97.2545L86.6487 57.3375H95.2394ZM105.294 4.41483L95.5151 36.243H126.484L136.241 4.41483H105.294ZM120.82 28.3068H106.078L110.957 12.3304H125.805L120.905 28.3068M112.802 41.672L113.736 57.2754H122.22L121.266 41.672H112.802Z" fill="white"/>
</g>
<defs>
<clipPath id="clip0_8_2477">
<rect width="148" height="70" fill="white"/>
</clipPath>
</defs>
</svg>
