<svg width="148" height="56" viewBox="0 0 148 56" fill="none" xmlns="http://www.w3.org/2000/svg">
<path d="M67.8488 49.3333H71.703V34.8933H67.8488V49.3333ZM67.8488 32.6414H71.703V29.2073H67.8488V32.6414Z" fill="black"/>
<path d="M74.1865 54.0622H78.0407V47.7008H78.0975C78.9192 48.9392 80.2512 49.7556 82.2916 49.7556C86.0325 49.7556 88.5831 46.8 88.5831 42.1274C88.5831 37.6236 86.1175 34.4992 82.2633 34.4992C80.2795 34.4992 78.9192 35.4281 77.984 36.6947H77.899V34.8933H74.1865V54.0622ZM81.4699 46.5748C79.1743 46.5748 77.9557 44.8578 77.9557 42.2399C77.9557 39.6504 78.9192 37.5954 81.3281 37.5954C83.7086 37.5954 84.6722 39.5095 84.6722 42.2399C84.6722 44.9704 83.4253 46.5748 81.4699 46.5748Z" fill="black"/>
<path d="M96.2714 49.7556C99.8988 49.7556 102.393 48.0103 102.393 45.1111C102.393 41.7333 99.7005 41.0578 97.2633 40.5511C95.1944 40.1289 93.2673 40.0162 93.2673 38.7777C93.2673 37.7363 94.2592 37.1732 95.7613 37.1732C97.405 37.1732 98.3969 37.7363 98.5669 39.2844H102.053C101.769 36.3851 99.6439 34.4992 95.818 34.4992C92.5022 34.4992 89.8949 35.991 89.8949 39.1154C89.8949 42.2681 92.4456 42.9719 95.0528 43.4785C97.0365 43.8725 98.8786 44.0133 98.8786 45.3926C98.8786 46.4059 97.9151 47.0533 96.2146 47.0533C94.486 47.0533 93.2957 46.3215 93.0407 44.6607H89.4698C89.6966 47.7289 92.0488 49.7556 96.2714 49.7556Z" fill="black"/>
<path d="M117.026 49.3333V34.8933H113.172V43.2251C113.172 45.1392 112.067 46.4904 110.253 46.4904C108.609 46.4904 107.844 45.5615 107.844 43.8725V34.8933H104.018V44.52C104.018 47.6725 105.832 49.7274 109.063 49.7274C111.103 49.7274 112.237 48.9674 113.229 47.6444H113.314V49.3333H117.026Z" fill="black"/>
<path d="M119.519 49.3333H123.373V40.9451C123.373 39.031 124.422 37.7926 125.981 37.7926C127.398 37.7926 128.219 38.6369 128.219 40.2696V49.3333H132.074V40.9451C132.074 39.031 133.066 37.7926 134.681 37.7926C136.098 37.7926 136.92 38.6369 136.92 40.2696V49.3333H140.774V39.6222C140.774 36.4696 139.045 34.4992 135.985 34.4992C134.142 34.4992 132.612 35.4562 131.62 37.0325H131.564C130.855 35.5125 129.381 34.4992 127.539 34.4992C125.527 34.4992 124.11 35.5125 123.317 36.8355H123.232V34.8933H119.519V49.3333Z" fill="black"/>
<path d="M67.9055 24.6008H71.7597V4.47479H67.9055V24.6008Z" fill="black"/>
<path d="M81.1838 25.0231C85.6899 25.0231 88.7788 21.7016 88.7788 17.3949C88.7788 13.0882 85.6899 9.76672 81.1838 9.76672C76.6778 9.76672 73.5887 13.0882 73.5887 17.3949C73.5887 21.7016 76.6778 25.0231 81.1838 25.0231ZM81.1838 22.0957C78.8032 22.0957 77.4997 20.2097 77.4997 17.3949C77.4997 14.58 78.8032 12.666 81.1838 12.666C83.536 12.666 84.868 14.58 84.868 17.3949C84.868 20.2097 83.536 22.0957 81.1838 22.0957Z" fill="black"/>
<path d="M96.9752 29.5269C99.1291 29.5269 101 29.0202 102.218 27.8942C103.295 26.909 103.947 25.5297 103.947 23.5031V10.1608H100.234V11.6808H100.178C99.2991 10.4704 97.9671 9.76672 96.1534 9.76672C92.4693 9.76672 89.8619 12.5253 89.8619 16.832C89.8619 21.1949 93.036 23.7282 96.2668 23.7282C98.1089 23.7282 99.2141 22.9964 100.064 22.0394H100.149V23.6156C100.149 25.586 99.1008 26.6275 96.9186 26.6275C95.1331 26.6275 94.3114 25.9238 93.9996 25.0231H90.1737C90.5705 27.8379 93.0077 29.5269 96.9752 29.5269ZM96.9186 20.6601C94.9348 20.6601 93.6311 19.2245 93.6311 16.7757C93.6311 14.3549 94.9348 12.8349 96.8902 12.8349C99.2141 12.8349 100.348 14.6363 100.348 16.7475C100.348 18.8867 99.3558 20.6601 96.9186 20.6601Z" fill="black"/>
<path d="M113.315 25.0231C117.821 25.0231 120.91 21.7016 120.91 17.3949C120.91 13.0882 117.821 9.76672 113.315 9.76672C108.809 9.76672 105.72 13.0882 105.72 17.3949C105.72 21.7016 108.809 25.0231 113.315 25.0231ZM113.315 22.0957C110.935 22.0957 109.631 20.2097 109.631 17.3949C109.631 14.58 110.935 12.666 113.315 12.666C115.667 12.666 116.999 14.58 116.999 17.3949C116.999 20.2097 115.667 22.0957 113.315 22.0957Z" fill="black"/>
<path d="M124.289 19.0838H140.952V15.7905H124.289V19.0838Z" fill="black"/>
<path d="M142.174 32.4404C142.174 31.7926 142.703 31.2675 143.356 31.2675H145.717C146.369 31.2675 146.898 31.7926 146.898 32.4404C146.898 33.088 146.369 33.6132 145.717 33.6132H143.356C142.703 33.6132 142.174 33.088 142.174 32.4404Z" fill="black"/>
<path fill-rule="evenodd" clip-rule="evenodd" d="M28.9257 0C44.4949 0 57.1162 12.536 57.1162 28C57.1162 43.464 44.4949 56 28.9257 56C13.3565 56 0.735229 43.464 0.735229 28C0.735229 12.536 13.3565 0 28.9257 0ZM27.9068 2.09523C24.6908 2.54477 21.6285 5.11151 19.2513 9.40436C18.5617 10.6496 17.9396 12.0252 17.3973 13.5106C20.6297 12.7038 24.1804 12.2282 27.9068 12.1546V2.09523ZM15.0148 14.1831C15.689 12.0814 16.5139 10.1478 17.4657 8.42891C18.6441 6.30083 20.0426 4.46313 21.6183 3.05168C13.0499 5.52332 6.29612 12.2315 3.80767 20.742C5.22871 19.1769 7.07892 17.7878 9.22148 16.6174C10.952 15.672 12.8988 14.8527 15.0148 14.1831ZM14.3377 16.5495C13.5255 19.76 13.0466 23.2868 12.9725 26.9879H2.8447C3.29731 23.7936 5.88152 20.7519 10.2036 18.391C11.4572 17.7061 12.8423 17.0881 14.3377 16.5495ZM15.0109 26.9879C15.095 22.9488 15.6804 19.1568 16.649 15.8063C20.0223 14.8442 23.8403 14.2626 27.9068 14.1791V18.5511C26.3897 22.4087 23.2955 25.4817 19.4116 26.9879H15.0109ZM12.9725 29.0121H2.8447C3.29731 32.2064 5.88152 35.2479 10.2036 37.609C11.4572 38.2939 12.8423 38.9119 14.3377 39.4505C13.5255 36.24 13.0466 32.7132 12.9725 29.0121ZM16.649 40.1937C15.6804 36.8432 15.095 33.0512 15.0109 29.0121H19.4116C23.2955 30.5183 26.3898 33.5913 27.9068 37.4489V41.8209C23.8403 41.7374 20.0223 41.1558 16.649 40.1937ZM15.0148 41.8169C12.8988 41.1473 10.952 40.328 9.22148 39.3826C7.07892 38.2122 5.22871 36.8231 3.80767 35.258C6.29612 43.7685 13.0499 50.4767 21.6183 52.9483C20.0426 51.5368 18.6441 49.6992 17.4657 47.571C16.5139 45.8522 15.689 43.9186 15.0148 41.8169ZM27.9068 53.9048C24.6908 53.4552 21.6285 50.8885 19.2513 46.5956C18.5617 45.3505 17.9396 43.9747 17.3973 42.4894C20.6297 43.2961 24.1804 43.7718 27.9068 43.8453V53.9048ZM36.2331 52.9483C37.8088 51.5368 39.2073 49.6992 40.3858 47.571C41.3375 45.8522 42.1624 43.9186 42.8366 41.8169C44.9525 41.1473 46.8994 40.328 48.63 39.3826C50.7725 38.2122 52.6227 36.8231 54.0437 35.258C51.5553 43.7685 44.8014 50.4767 36.2331 52.9483ZM40.454 42.4894C39.9118 43.9747 39.2896 45.3505 38.6001 46.5956C36.2231 50.8885 33.1607 53.4552 29.9446 53.9048V43.8453C33.671 43.7718 37.2217 43.2961 40.454 42.4894ZM43.5137 39.4505C45.0091 38.9119 46.3942 38.2939 47.6478 37.609C51.9699 35.2479 54.5541 32.2064 55.0067 29.0121H44.8788C44.8048 32.7132 44.3259 36.24 43.5137 39.4505ZM42.8407 29.0121C42.7565 33.0512 42.171 36.8432 41.2024 40.1937C37.8291 41.1558 34.0113 41.7374 29.9446 41.8209V37.4521C31.4611 33.5931 34.556 30.5187 38.4411 29.0121H42.8407ZM44.8788 26.9879H55.0067C54.5541 23.7936 51.9699 20.7519 47.6478 18.391C46.3942 17.7061 45.0091 17.0881 43.5137 16.5495C44.3259 19.76 44.8048 23.2868 44.8788 26.9879ZM41.2024 15.8063C42.171 19.1568 42.7565 22.9488 42.8407 26.9879H38.4411C34.556 25.4813 31.4611 22.4069 29.9446 18.5479V14.1791C34.0113 14.2626 37.8291 14.8442 41.2024 15.8063ZM42.8366 14.1831C44.9525 14.8527 46.8994 15.672 48.63 16.6174C50.7725 17.7878 52.6227 19.1769 54.0437 20.742C51.5553 12.2315 44.8014 5.52332 36.2331 3.05168C37.8088 4.46313 39.2073 6.30083 40.3858 8.42891C41.3375 10.1478 42.1624 12.0814 42.8366 14.1831ZM29.9446 2.09523C33.1607 2.54477 36.2231 5.11151 38.6001 9.40436C39.2896 10.6496 39.9118 12.0252 40.454 13.5106C37.2217 12.7038 33.671 12.2282 29.9446 12.1546V2.09523Z" fill="black"/>
</svg>
