<svg width="148" height="46" viewBox="0 0 148 46" fill="none" xmlns="http://www.w3.org/2000/svg">
<g clip-path="url(#clip0_8_2501)">
<path d="M105.211 42.8087C106.11 42.8087 106.642 42.1475 106.642 41.1136C106.642 40.0418 106.071 39.4185 105.23 39.4185C104.75 39.4185 104.416 39.6255 104.166 39.9544H104.154V38.2605H103.633V42.7144H104.154V42.2912H104.166C104.436 42.6523 104.763 42.8087 105.211 42.8087ZM105.174 42.3844C104.468 42.3844 104.121 41.8427 104.121 41.1194C104.121 40.4225 104.455 39.8486 105.179 39.8486C105.808 39.8486 106.11 40.3972 106.11 41.1194C106.11 41.8485 105.808 42.3844 105.174 42.3844ZM107.521 43.7805C107.925 43.7805 108.182 43.6425 108.451 42.9755L109.869 39.4933H109.318L108.56 41.5C108.458 41.768 108.342 42.1291 108.342 42.1291H108.33C108.33 42.1291 108.207 41.768 108.105 41.5L107.323 39.4933H106.758L108.053 42.6213L107.925 42.9387C107.797 43.2503 107.649 43.332 107.431 43.332C107.31 43.338 107.188 43.3143 107.079 43.263H107.053V43.7115C107.195 43.7678 107.323 43.7805 107.521 43.7805ZM111.199 42.7144H112.072V38.2605H111.199V42.7144ZM114.205 42.8087C115.225 42.8087 115.924 42.0727 115.924 41.1194C115.924 40.166 115.226 39.4312 114.205 39.4312C113.186 39.4312 112.486 40.1672 112.486 41.1194C112.486 42.0739 113.185 42.8087 114.205 42.8087ZM114.205 42.1601C113.666 42.1601 113.372 41.7427 113.372 41.1194C113.372 40.4972 113.666 40.0729 114.205 40.0729C114.738 40.0729 115.039 40.4972 115.039 41.1194C115.039 41.7427 114.738 42.1601 114.205 42.1601ZM117.78 43.8046C118.267 43.8046 118.69 43.6931 118.966 43.4435C119.21 43.225 119.358 42.9203 119.358 42.4718V39.5186H118.517V39.8555H118.504C118.305 39.5876 118.005 39.4312 117.593 39.4312C116.76 39.4312 116.169 40.0418 116.169 40.9952C116.169 41.9612 116.888 42.5212 117.62 42.5212C118.037 42.5212 118.286 42.3602 118.478 42.1475H118.498V42.4971C118.498 42.9329 118.261 43.1641 117.767 43.1641C117.363 43.1641 117.177 43.0077 117.106 42.8076H116.24C116.329 43.4309 116.881 43.8046 117.78 43.8046ZM117.768 41.8427C117.318 41.8427 117.022 41.5253 117.022 40.9825C117.022 40.4466 117.318 40.1108 117.761 40.1108C118.286 40.1108 118.543 40.5087 118.543 40.9768C118.543 41.4506 118.318 41.8427 117.767 41.8427H117.768ZM121.478 42.8087C122.498 42.8087 123.198 42.0727 123.198 41.1194C123.198 40.166 122.498 39.4312 121.478 39.4312C120.458 39.4312 119.759 40.1672 119.759 41.1194C119.759 42.0739 120.458 42.8087 121.478 42.8087ZM121.478 42.1601C120.94 42.1601 120.644 41.7427 120.644 41.1194C120.644 40.4972 120.94 40.0729 121.478 40.0729C122.01 40.0729 122.312 40.4972 122.312 41.1194C122.312 41.7427 122.01 42.1601 121.478 42.1601ZM123.603 42.7144H124.475V39.5186H123.603V42.7156V42.7144ZM123.603 39.0206H124.475V38.2605H123.603V39.0195V39.0206ZM125.038 43.7609H125.91V42.3545H125.922C126.109 42.6293 126.41 42.8099 126.872 42.8099C127.718 42.8099 128.296 42.1544 128.296 41.1205C128.296 40.1235 127.738 39.4323 126.866 39.4323C126.675 39.4293 126.487 39.4722 126.318 39.5571C126.149 39.642 126.005 39.7663 125.897 39.9188H125.878V39.5197H125.038V43.7632V43.7609ZM126.686 42.1049C126.166 42.1049 125.89 41.7243 125.89 41.1447C125.89 40.572 126.109 40.1166 126.654 40.1166C127.192 40.1166 127.41 40.5398 127.41 41.1447C127.41 41.7496 127.128 42.1038 126.686 42.1038V42.1049ZM130.036 42.8087C130.857 42.8087 131.422 42.4223 131.422 41.7806C131.422 41.0331 130.812 40.8836 130.26 40.7709C129.792 40.6778 129.357 40.6525 129.357 40.3788C129.357 40.1488 129.581 40.0223 129.92 40.0223C130.293 40.0223 130.517 40.1488 130.556 40.4903H131.345C131.281 39.8486 130.8 39.4323 129.933 39.4323C129.183 39.4323 128.593 39.7612 128.593 40.4535C128.593 41.1504 129.17 41.3068 129.761 41.4195C130.209 41.5058 130.626 41.5368 130.626 41.8427C130.626 42.067 130.408 42.2107 130.023 42.2107C129.633 42.2107 129.363 42.0486 129.305 41.6806H128.497C128.548 42.3591 129.081 42.8076 130.036 42.8076V42.8087ZM134.734 42.7144V39.5186H133.862V41.3632C133.862 41.7864 133.611 42.0854 133.201 42.0854C132.829 42.0854 132.655 41.8795 132.655 41.5058V39.5186H131.79V41.6495C131.79 42.3476 132.201 42.8018 132.931 42.8018C133.393 42.8018 133.65 42.6339 133.875 42.3418H133.894V42.7144H134.734ZM135.298 42.7144H136.171V40.8595C136.171 40.4351 136.407 40.1614 136.76 40.1614C137.081 40.1614 137.267 40.3489 137.267 40.71V42.7156H138.14V40.8595C138.14 40.4351 138.365 40.1614 138.73 40.1614C139.051 40.1614 139.237 40.3489 139.237 40.71V42.7156H140.11V40.5662C140.11 39.8682 139.718 39.4323 139.025 39.4323C138.609 39.4323 138.262 39.6439 138.038 39.9935H138.025C137.946 39.8238 137.817 39.6802 137.655 39.5805C137.493 39.4808 137.305 39.4293 137.113 39.4323C136.921 39.4277 136.731 39.4732 136.563 39.5642C136.394 39.6553 136.255 39.7884 136.158 39.9498H136.139V39.5197H135.298V42.7167V42.7144Z" fill="#E5708C"/>
<path d="M140.281 2.4713C140.281 1.11085 141.417 0.00685367 142.818 0.00685367H144.509C145.182 0.00685367 145.828 0.2665 146.304 0.728674C146.779 1.19085 147.047 1.81769 147.047 2.4713C147.047 3.12492 146.779 3.75176 146.304 4.21393C145.828 4.67611 145.182 4.93575 144.509 4.93575H142.818C142.484 4.93575 142.154 4.872 141.847 4.74814C141.539 4.62427 141.259 4.44272 141.024 4.21386C140.788 3.985 140.601 3.71332 140.474 3.41432C140.347 3.11533 140.281 2.79489 140.281 2.4713ZM69.2521 16.4335C69.2521 25.5047 61.6816 32.8589 52.341 32.8589C43.0016 32.8589 35.4299 25.5047 35.4299 16.4335C35.4299 7.35995 43.0016 0.00800367 52.341 0.00800367C61.6816 0.00800367 69.2521 7.35995 69.2521 16.4335ZM32.1313 16.3518C33.0666 16.3518 33.8315 17.0878 33.738 17.9917C33.4183 21.085 32.2014 24.0267 30.2287 26.4748C28.256 28.923 25.6085 30.7771 22.5938 31.8218C19.5792 32.8664 16.3212 33.0586 13.1985 32.376C10.0759 31.6935 7.21678 30.1642 4.95351 27.9659C2.69024 25.7676 1.11574 22.9906 0.412996 19.9576C-0.289744 16.9246 -0.091866 13.7602 0.983632 10.8322C2.05913 7.90407 3.96808 5.33257 6.48864 3.4165C9.00919 1.50043 12.0378 0.318475 15.2226 0.00800367C16.152 -0.0839963 16.911 0.661204 16.911 1.5674V14.7085C16.911 15.617 17.6687 16.3518 18.6029 16.3518H32.1313ZM92.9285 36.1445C94.2741 36.1445 95.5645 36.6636 96.516 37.5878C97.4674 38.5119 98.0019 39.7653 98.0019 41.0722C98.0019 42.3791 97.4674 43.6325 96.516 44.5566C95.5645 45.4808 94.2741 46 92.9285 46H84.4736C83.128 46 81.8375 45.4808 80.8861 44.5566C79.9346 43.6325 79.4001 42.3791 79.4001 41.0722C79.4001 39.7653 79.9346 38.5119 80.8861 37.5878C81.8375 36.6636 83.128 36.1445 84.4736 36.1445H92.9285ZM87.8551 32.8589C97.1956 32.8589 104.767 25.5047 104.767 16.4335C104.771 13.6469 104.042 10.9056 102.649 8.4697L105.443 5.7557C105.765 5.44294 106.021 5.07167 106.195 4.66308C106.369 4.25449 106.458 3.8166 106.458 3.37439C106.458 2.93218 106.368 2.49433 106.194 2.08582C106.02 1.67732 105.764 1.30617 105.442 0.993554C105.12 0.680942 104.738 0.432994 104.317 0.263868C103.897 0.0947415 103.446 0.00774824 102.99 0.00785504C102.535 0.00796183 102.084 0.0951666 101.664 0.26449C101.243 0.433814 100.861 0.681941 100.539 0.994704L98.1002 3.3637C95.1577 1.1809 91.5564 0.00106706 87.8539 0.00685367C78.5157 0.00800367 70.9452 7.35995 70.9452 16.4335C70.9452 25.5047 78.5169 32.8589 87.8562 32.8589H87.8551ZM140.281 16.4335C140.281 25.5047 132.71 32.8589 123.369 32.8589C114.03 32.8589 106.458 25.5047 106.458 16.4335C106.458 7.35995 114.03 0.00800367 123.369 0.00800367C132.71 0.00800367 140.281 7.3611 140.281 16.4335Z" fill="url(#paint0_linear_8_2501)"/>
</g>
<defs>
<linearGradient id="paint0_linear_8_2501" x1="-0.000109322" y1="18.4" x2="140.896" y2="18.4" gradientUnits="userSpaceOnUse">
<stop stop-color="#64C2DB"/>
<stop offset="0.307" stop-color="#7476ED"/>
<stop offset="0.604" stop-color="#C994DF"/>
<stop offset="1" stop-color="#E56F8C"/>
</linearGradient>
<clipPath id="clip0_8_2501">
<rect width="148" height="46" fill="white"/>
</clipPath>
</defs>
</svg>
