<svg width="148" height="56" viewBox="0 0 148 56" fill="none" xmlns="http://www.w3.org/2000/svg">
<g clip-path="url(#clip0_8_2540)">
<path d="M35.1305 0C29.3507 0 23.8077 2.25876 19.7208 6.27939L6.3829 19.401C2.29599 23.4216 0 28.8747 0 34.5608C0 46.4014 9.75688 56 21.7926 56C27.5724 56 33.1154 53.7411 37.2023 49.7205L46.4282 40.6442C46.4284 40.6444 46.4282 40.6441 46.4282 40.6442L73.3093 14.199C75.2612 12.2788 77.9085 11.2 80.6689 11.2C85.2903 11.2 89.2083 14.1632 90.5667 18.2636L99.0503 9.91753C95.1801 3.95424 88.394 0 80.6689 0C74.8891 0 69.3462 2.25876 65.2593 6.27939L29.1522 41.801C27.2003 43.7213 24.553 44.8 21.7926 44.8C16.0444 44.8 11.3846 40.2158 11.3846 34.5608C11.3846 31.8451 12.4812 29.2408 14.433 27.3205L27.7709 14.199C29.7228 12.2788 32.3701 11.2 35.1305 11.2C39.752 11.2 43.6699 14.1633 45.0282 18.2639L53.5121 9.91773C49.6419 3.95435 42.8557 0 35.1305 0Z" fill="#394149"/>
<path d="M74.6907 41.801C72.7388 43.7213 70.0915 44.8 67.3311 44.8C62.7103 44.8 58.7926 41.8376 57.4339 37.7378L48.9504 46.0837C52.8208 52.0462 59.6066 56 67.3311 56C73.1109 56 78.6539 53.7411 82.7407 49.7205L118.848 14.199C120.8 12.2788 123.447 11.2 126.207 11.2C131.956 11.2 136.615 15.7842 136.615 21.4392C136.615 24.1549 135.519 26.7592 133.567 28.6795L120.229 41.801C118.277 43.7213 115.63 44.8 112.87 44.8C108.248 44.8 104.331 41.837 102.972 37.7369L94.4885 46.083C98.3587 52.046 105.145 56 112.87 56C118.649 56 124.192 53.7411 128.279 49.7205L141.617 36.599C145.704 32.5784 148 27.1253 148 21.4392C148 9.59866 138.243 0 126.207 0C120.428 0 114.885 2.25876 110.798 6.27939L74.6907 41.801Z" fill="#394149"/>
</g>
<defs>
<clipPath id="clip0_8_2540">
<rect width="148" height="56" fill="white"/>
</clipPath>
</defs>
</svg>
