<svg width="9" height="16" viewBox="0 0 9 16" fill="none" xmlns="http://www.w3.org/2000/svg">
<path d="M2.24216 15.3941L8.09458 8.97653C8.2218 8.83702 8.31171 8.68588 8.3643 8.52311C8.41773 8.36035 8.44445 8.18596 8.44445 7.99995C8.44445 7.81393 8.41773 7.63954 8.3643 7.47678C8.31171 7.31401 8.2218 7.16288 8.09458 7.02336L2.24216 0.605825C2.00891 0.350053 1.71205 0.222168 1.35157 0.222168C0.991098 0.222168 0.694237 0.350053 0.460988 0.605825C0.22774 0.861596 0.111115 1.18712 0.111115 1.58241C0.111115 1.97769 0.22774 2.30322 0.460988 2.55899L5.42282 7.99995L0.460988 13.4409C0.22774 13.6967 0.111115 14.0222 0.111115 14.4175C0.111115 14.8128 0.22774 15.1383 0.460988 15.3941C0.694237 15.6498 0.991098 15.7777 1.35157 15.7777C1.71205 15.7777 2.00891 15.6498 2.24216 15.3941Z" fill="white"/>
</svg>
