<svg width="17" height="18" viewBox="0 0 17 18" fill="none" xmlns="http://www.w3.org/2000/svg">
<path fill-rule="evenodd" clip-rule="evenodd" d="M12.4665 3.64168C14.1832 3.64168 15.3665 4.03335 16.0749 4.81668C16.8582 5.68335 16.8749 6.83335 16.8082 7.67502C16.8042 7.70273 16.8022 7.72668 16.8002 7.74955C16.798 7.77482 16.7959 7.79877 16.7915 7.82502L16.7499 8.21669L16.7367 8.33564C16.7238 8.45106 16.6636 8.55611 16.5694 8.62406C16.2568 8.84958 15.9138 9.07983 15.5832 9.26668C15.5693 9.27502 15.5564 9.28335 15.5434 9.29168C15.5175 9.30835 15.4915 9.32502 15.4582 9.34168C13.9749 10.2084 12.3332 10.8 10.6332 11.075C10.5749 11.8834 10.2165 12.7917 8.39153 12.7917C6.56653 12.7917 6.22487 11.875 6.14987 11.0917C4.5582 10.8334 2.99154 10.3084 1.56654 9.52502C1.44154 9.45835 1.31654 9.39169 1.19987 9.31668C0.999389 9.20531 0.664935 8.98973 0.465098 8.85895C0.360188 8.7903 0.292968 8.67757 0.281081 8.55275L0.216535 7.87502L0.208202 7.81668C0.124868 6.97502 0.0998685 5.74168 0.924869 4.82502C1.6332 4.04168 2.8082 3.65002 4.5332 3.65002H4.7332V3.60835C4.7332 2.21668 4.7332 0.475018 7.86654 0.475018H9.1332C12.2665 0.475018 12.2665 2.20835 12.2665 3.60835V3.64168H12.4665ZM8.3832 11.5417C9.4082 11.5417 9.4082 11.4084 9.4082 10.525V9.48335H7.3582V10.5334C7.3582 11.3834 7.3582 11.5417 8.3832 11.5417ZM5.92487 3.60835V3.65002H11.0749V3.60835C11.0749 2.20002 11.0749 1.66668 9.1332 1.66668H7.86654C5.92487 1.66668 5.92487 2.19168 5.92487 3.60835Z" fill="#6B7280"/>
<path d="M16.499 10.8635C16.5285 10.5385 16.1891 10.305 15.8945 10.4452C14.9014 10.9177 13.0359 11.7697 11.8863 12.0722C11.7493 12.1082 11.6384 12.2062 11.5784 12.3345C11.0709 13.4189 9.96 14.0167 8.39158 14.0167C6.8075 14.0167 5.71048 13.4411 5.20467 12.3593C5.14472 12.2311 5.03398 12.1331 4.89705 12.0972C3.81441 11.8137 2.06179 11.0515 1.11228 10.6219C0.818412 10.489 0.486783 10.7223 0.515984 11.0435L0.799911 14.1667C0.974911 15.825 1.65824 17.525 5.32491 17.525H11.6749C15.3416 17.525 16.0249 15.825 16.1999 14.1584L16.499 10.8635Z" fill="#6B7280"/>
</svg>
