<svg width="11" height="20" viewBox="0 0 11 20" fill="none" xmlns="http://www.w3.org/2000/svg">
<path d="M7.60925 18.8729L0.586351 11.1719C0.433679 11.0045 0.325791 10.8231 0.262687 10.6278C0.198565 10.4325 0.166504 10.2232 0.166504 9.99999C0.166504 9.77677 0.198565 9.5675 0.262687 9.37219C0.325791 9.17687 0.433679 8.99551 0.586351 8.82809L7.60925 1.12704C7.88915 0.820119 8.24538 0.666656 8.67795 0.666656C9.11052 0.666656 9.46676 0.820119 9.74666 1.12704C10.0266 1.43397 10.1665 1.8246 10.1665 2.29894C10.1665 2.77328 10.0266 3.16392 9.74666 3.47084L3.79246 9.99999L9.74666 16.5291C10.0266 16.8361 10.1665 17.2267 10.1665 17.701C10.1665 18.1754 10.0266 18.566 9.74666 18.8729C9.46676 19.1799 9.11052 19.3333 8.67795 19.3333C8.24538 19.3333 7.88915 19.1799 7.60925 18.8729Z" fill="#9CA3AF"/>
</svg>
