<svg width="11" height="20" viewBox="0 0 11 20" fill="none" xmlns="http://www.w3.org/2000/svg">
<path d="M2.8905 18.873L9.91341 11.1719C10.0661 11.0045 10.174 10.8231 10.2371 10.6278C10.3012 10.4325 10.3333 10.2232 10.3333 10C10.3333 9.7768 10.3012 9.56753 10.2371 9.37222C10.174 9.1769 10.0661 8.99554 9.91341 8.82812L2.8905 1.12708C2.61061 0.820149 2.25437 0.666687 1.8218 0.666687C1.38923 0.666687 1.033 0.820149 0.7531 1.12708C0.473202 1.434 0.333252 1.82463 0.333252 2.29897C0.333252 2.77331 0.473202 3.16395 0.7531 3.47087L6.7073 10L0.7531 16.5292C0.473202 16.8361 0.333252 17.2267 0.333252 17.7011C0.333252 18.1754 0.473202 18.566 0.7531 18.873C1.033 19.1799 1.38923 19.3334 1.8218 19.3334C2.25437 19.3334 2.61061 19.1799 2.8905 18.873Z" fill="#9CA3AF"/>
</svg>
