<svg width="11" height="20" viewBox="0 0 11 20" fill="none" xmlns="http://www.w3.org/2000/svg">
<path d="M3.39075 18.8729L10.4136 11.1719C10.5663 11.0045 10.6742 10.8231 10.7373 10.6278C10.8014 10.4325 10.8335 10.2232 10.8335 9.99999C10.8335 9.77677 10.8014 9.5675 10.7373 9.37219C10.6742 9.17687 10.5663 8.99551 10.4136 8.82809L3.39075 1.12704C3.11085 0.820119 2.75462 0.666656 2.32205 0.666656C1.88948 0.666656 1.53324 0.820119 1.25334 1.12704C0.973446 1.43397 0.833496 1.8246 0.833496 2.29894C0.833496 2.77328 0.973446 3.16392 1.25334 3.47084L7.20754 9.99999L1.25334 16.5291C0.973446 16.8361 0.833496 17.2267 0.833496 17.701C0.833496 18.1754 0.973446 18.566 1.25334 18.8729C1.53324 19.1799 1.88948 19.3333 2.32205 19.3333C2.75462 19.3333 3.11085 19.1799 3.39075 18.8729Z" fill="#009FCC"/>
</svg>
