<svg width="80" height="80" viewBox="0 0 80 80" fill="none" xmlns="http://www.w3.org/2000/svg">
<rect width="80" height="80" rx="40" fill="white"/>
<path fill-rule="evenodd" clip-rule="evenodd" d="M48.5348 34.4496C51.2141 36.3543 54.4229 37.372 57.7103 37.3597V30.8445C57.064 30.8463 56.4195 30.7771 55.7883 30.6382V35.8286C52.4935 35.8345 49.2801 34.8051 46.6019 32.8859V46.2854C46.5938 48.4842 45.9909 50.6397 44.857 52.5236C43.723 54.4074 42.1005 55.9492 40.1613 56.9856C38.2221 58.022 36.0386 58.5143 33.8423 58.4103C31.646 58.3062 29.5188 57.6098 27.6863 56.3948C29.3813 58.1098 31.5472 59.2833 33.9097 59.7666C36.2721 60.2499 38.7248 60.0213 40.9572 59.1097C43.1896 58.1982 45.1014 56.6446 46.4503 54.6459C47.7992 52.6471 48.5246 50.293 48.5348 47.8817V34.4496ZM50.9128 27.8041C49.5502 26.3273 48.7142 24.4414 48.5348 22.44V21.593H46.7105C46.936 22.8652 47.4267 24.0757 48.1507 25.1457C48.8747 26.2158 49.8158 27.1216 50.9128 27.8041ZM31.9103 51.237C31.278 50.4101 30.8905 49.4224 30.7919 48.3863C30.6934 47.3501 30.8877 46.307 31.3527 45.3758C31.8177 44.4446 32.5348 43.6627 33.4224 43.119C34.31 42.5753 35.3323 42.2916 36.3731 42.3003C36.9478 42.3002 37.5191 42.3881 38.0671 42.5609V35.8286C37.4265 35.7438 36.7803 35.7075 36.1343 35.72V40.9539C34.7999 40.5321 33.3556 40.628 32.0887 41.2226C30.8218 41.8171 29.8251 42.8668 29.2969 44.1627C28.7687 45.4587 28.7476 46.906 29.2379 48.2167C29.7281 49.5275 30.6938 50.6058 31.9428 51.237H31.9103Z" fill="#EE1D52"/>
<path fill-rule="evenodd" clip-rule="evenodd" d="M46.6008 32.8425C49.279 34.7617 52.4924 35.791 55.7872 35.7852V30.5948C53.91 30.1979 52.2047 29.2218 50.9117 27.8041C49.8147 27.1216 48.8736 26.2158 48.1496 25.1457C47.4256 24.0757 46.9349 22.8652 46.7094 21.593H41.9099V47.8817C41.9055 49.0453 41.5367 50.1783 40.8554 51.1216C40.1741 52.065 39.2146 52.7713 38.1114 53.1414C37.0082 53.5115 35.8168 53.5269 34.7044 53.1853C33.592 52.8438 32.6145 52.1624 31.9092 51.237C30.7913 50.6729 29.8961 49.7487 29.3679 48.6135C28.8397 47.4782 28.7094 46.1982 28.998 44.9798C29.2866 43.7614 29.9773 42.6758 30.9586 41.8981C31.9399 41.1204 33.1545 40.6959 34.4066 40.6933C34.9811 40.6951 35.5521 40.7829 36.1006 40.9539V35.72C33.7308 35.7769 31.4292 36.5245 29.4783 37.871C27.5274 39.2175 26.0121 41.1044 25.1184 43.2999C24.2247 45.4955 23.9916 47.9042 24.4475 50.2304C24.9035 52.5566 26.0288 54.6991 27.6852 56.3948C29.5181 57.6185 31.6487 58.3222 33.8499 58.4307C36.0511 58.5393 38.2406 58.0488 40.185 57.0113C42.1295 55.9739 43.7561 54.4285 44.8917 52.5397C46.0273 50.6508 46.6292 48.4893 46.6334 46.2854L46.6008 32.8425Z" fill="black"/>
<path fill-rule="evenodd" clip-rule="evenodd" d="M55.7879 30.5944V29.1937C54.064 29.201 52.3733 28.719 50.9124 27.8038C52.2021 29.2255 53.9088 30.2024 55.7879 30.5944ZM46.7101 21.5927C46.7101 21.3429 46.6341 21.0823 46.6016 20.8326V19.9856H39.9778V46.2851C39.9721 47.7577 39.3823 49.1679 38.3379 50.2061C37.2936 51.2444 35.88 51.8259 34.4074 51.823C33.5403 51.8273 32.6845 51.6264 31.9099 51.2366C32.6153 52.1621 33.5927 52.8434 34.7051 53.185C35.8175 53.5266 37.0089 53.5112 38.1121 53.1411C39.2153 52.7709 40.1749 52.0646 40.8561 51.1213C41.5374 50.1779 41.9062 49.0449 41.9106 47.8813V21.5927H46.7101ZM36.1013 35.7088V34.2212C33.3757 33.8509 30.605 34.4147 28.2408 35.8207C25.8767 37.2267 24.0584 39.392 23.0824 41.9637C22.1063 44.5354 22.0301 47.3618 22.8661 49.9823C23.7021 52.6029 25.401 54.863 27.6859 56.3944C26.042 54.6948 24.9287 52.5532 24.4821 50.2312C24.0354 47.9093 24.2747 45.5075 25.1707 43.3193C26.0667 41.1311 27.5807 39.2512 29.5276 37.9093C31.4745 36.5675 33.7701 35.8217 36.1339 35.7631L36.1013 35.7088Z" fill="#69C9D0"/>
</svg>
