<svg width="80" height="80" viewBox="0 0 80 80" fill="none" xmlns="http://www.w3.org/2000/svg">
<rect width="80" height="80" rx="40" fill="white"/>
<path d="M20.0002 58.4004L22.8702 47.7389C20.5556 43.5857 19.8203 38.7392 20.7991 34.0889C21.7778 29.4385 24.405 25.2962 28.1986 22.422C31.9922 19.5479 36.6976 18.1346 41.4515 18.4417C46.2054 18.7487 50.6888 20.7555 54.0791 24.0936C57.4693 27.4318 59.539 31.8775 59.9083 36.6149C60.2777 41.3523 58.9218 46.0637 56.0897 49.8845C53.2575 53.7053 49.139 56.3792 44.4898 57.4155C39.8407 58.4519 34.9727 57.7812 30.7793 55.5265L20.0002 58.4004ZM31.2991 51.5369L31.9657 51.9313C35.0031 53.7271 38.5507 54.4702 42.0557 54.0449C45.5607 53.6195 48.8261 52.0497 51.3432 49.5799C53.8604 47.1101 55.4877 43.8792 55.9716 40.3906C56.4556 36.902 55.769 33.3517 54.0189 30.2929C52.2687 27.2342 49.5533 24.8388 46.2958 23.4801C43.0383 22.1214 39.4217 21.8757 36.0096 22.7813C32.5975 23.6869 29.5816 25.6928 27.4318 28.4866C25.282 31.2804 24.1191 34.705 24.1243 38.2269C24.1215 41.1471 24.9311 44.0107 26.4632 46.4992L26.8812 47.1866L25.2768 53.1372L31.2991 51.5369Z" fill="#00D95F"/>
<path fill-rule="evenodd" clip-rule="evenodd" d="M47.4785 40.9645C47.0877 40.6501 46.6302 40.4288 46.1407 40.3175C45.6511 40.2062 45.1426 40.2078 44.6538 40.3221C43.9194 40.6264 43.4448 41.776 42.9703 42.3507C42.8702 42.4885 42.7232 42.5852 42.5568 42.6225C42.3903 42.6599 42.216 42.6354 42.0664 42.5536C39.3776 41.5032 37.1239 39.5769 35.6712 37.0876C35.5473 36.9323 35.4887 36.735 35.5077 36.5374C35.5266 36.3398 35.6217 36.1573 35.7729 36.0282C36.3022 35.5056 36.6908 34.8583 36.9028 34.1461C36.9499 33.3606 36.7695 32.5782 36.3831 31.8921C36.0843 30.9302 35.5158 30.0738 34.7447 29.4239C34.347 29.2455 33.906 29.1857 33.475 29.2517C33.0439 29.3177 32.6412 29.5067 32.3155 29.7958C31.7499 30.2825 31.301 30.8896 31.0019 31.5722C30.7027 32.2549 30.5608 32.9958 30.5867 33.7404C30.5885 34.1585 30.6416 34.5749 30.7449 34.9801C31.0073 35.9537 31.4108 36.8839 31.9426 37.7413C32.3263 38.398 32.745 39.0338 33.1968 39.6459C34.6651 41.6565 36.5109 43.3636 38.6315 44.6724C39.6957 45.3375 40.8331 45.8783 42.0212 46.284C43.2554 46.8421 44.6181 47.0563 45.9645 46.9039C46.7316 46.788 47.4585 46.4859 48.0811 46.0241C48.7037 45.5623 49.2029 44.9549 49.5349 44.2554C49.73 43.8328 49.7892 43.3604 49.7044 42.903C49.501 41.9676 48.2469 41.4153 47.4785 40.9645Z" fill="#00D95F"/>
</svg>
