<svg width="80" height="80" viewBox="0 0 80 80" fill="none" xmlns="http://www.w3.org/2000/svg">
<rect width="80" height="80" rx="40" fill="white"/>
<path d="M52.5517 28.5048C52.2863 28.3676 52.0279 28.2173 51.7776 28.0543C51.0496 27.573 50.3821 27.0059 49.7896 26.3652C48.307 24.6688 47.7533 22.9479 47.5493 21.743H47.5575C47.3871 20.7428 47.4576 20.0957 47.4682 20.0957H40.7154V46.2076C40.7154 46.5582 40.7154 46.9046 40.7006 47.247C40.7006 47.2896 40.6965 47.3289 40.6941 47.3748C40.6941 47.3937 40.6941 47.4133 40.69 47.433C40.69 47.4379 40.69 47.4428 40.69 47.4477C40.6188 48.3846 40.3185 49.2897 39.8154 50.0832C39.3124 50.8768 38.622 51.5346 37.8051 51.9987C36.9536 52.4831 35.9906 52.7372 35.011 52.736C31.8648 52.736 29.3149 50.1705 29.3149 47.0021C29.3149 43.8338 31.8648 41.2683 35.011 41.2683C35.6066 41.2677 36.1985 41.3615 36.7648 41.546L36.773 34.6703C35.0539 34.4482 33.3075 34.5849 31.6439 35.0715C29.9804 35.5582 28.4357 36.3844 27.1074 37.4979C25.9435 38.5092 24.9649 39.7158 24.2159 41.0635C23.9308 41.555 22.8553 43.5299 22.7251 46.7351C22.6432 48.5544 23.1895 50.4391 23.45 51.2181V51.2345C23.6138 51.6932 24.2486 53.2586 25.2832 54.5782C26.1174 55.6367 27.103 56.5665 28.2083 57.3378V57.3214L28.2246 57.3378C31.4937 59.5592 35.1183 59.4134 35.1183 59.4134C35.7458 59.388 37.8477 59.4134 40.2346 58.2822C42.882 57.0281 44.3891 55.1597 44.3891 55.1597C45.352 54.0433 46.1176 52.7711 46.6532 51.3975C47.2642 49.7912 47.4682 47.8647 47.4682 47.0947V33.2417C47.5501 33.2909 48.6412 34.0125 48.6412 34.0125C48.6412 34.0125 50.2131 35.0201 52.6655 35.6762C54.425 36.1431 56.7955 36.2414 56.7955 36.2414V29.5377C55.9649 29.6278 54.2784 29.3657 52.5517 28.5048Z" fill="#484D56"/>
</svg>
