<svg width="80" height="80" viewBox="0 0 80 80" fill="none" xmlns="http://www.w3.org/2000/svg">
<rect width="80" height="80" rx="40" fill="white"/>
<path d="M32.7173 39.9999C32.7173 35.9788 35.9781 32.7183 40.0015 32.7183C44.025 32.7183 47.2875 35.9788 47.2875 39.9999C47.2875 44.021 44.025 47.2815 40.0015 47.2815C35.9781 47.2815 32.7173 44.021 32.7173 39.9999ZM28.7786 39.9999C28.7786 46.1946 33.8031 51.2161 40.0015 51.2161C46.2 51.2161 51.2245 46.1946 51.2245 39.9999C51.2245 33.8052 46.2 28.7837 40.0015 28.7837C33.8031 28.7837 28.7786 33.8052 28.7786 39.9999ZM49.046 28.339C49.0458 28.8574 49.1994 29.3642 49.4874 29.7954C49.7755 30.2266 50.1849 30.5627 50.6641 30.7613C51.1433 30.9599 51.6706 31.012 52.1794 30.911C52.6882 30.8101 53.1556 30.5606 53.5226 30.1942C53.8895 29.8278 54.1395 29.3608 54.2409 28.8524C54.3423 28.344 54.2906 27.8169 54.0923 27.3379C53.894 26.8589 53.558 26.4494 53.1268 26.1612C52.6956 25.873 52.1885 25.7191 51.6698 25.7188H51.6688C50.9735 25.7192 50.3067 25.9953 49.8149 26.4866C49.3232 26.9778 49.0466 27.6441 49.046 28.339ZM31.1716 57.7797C29.0407 57.6827 27.8825 57.328 27.1128 57.0283C26.0924 56.6313 25.3643 56.1584 24.5988 55.3944C23.8333 54.6305 23.3595 53.9035 22.964 52.8837C22.6639 52.1148 22.309 50.957 22.2121 48.8273C22.1061 46.5249 22.085 45.8333 22.085 40.0001C22.085 34.1669 22.1079 33.4772 22.2121 31.1728C22.3091 29.0432 22.6667 27.8876 22.964 27.1165C23.3612 26.0966 23.8344 25.369 24.5988 24.604C25.3633 23.8389 26.0906 23.3654 27.1128 22.9701C27.8821 22.6702 29.0407 22.3155 31.1716 22.2187C33.4754 22.1128 34.1675 22.0917 40.0015 22.0917C45.8356 22.0917 46.5283 22.1145 48.8341 22.2187C50.965 22.3157 52.1213 22.673 52.8929 22.9701C53.9133 23.3654 54.6414 23.84 55.4069 24.604C56.1724 25.368 56.6445 26.0966 57.0417 27.1165C57.3418 27.8853 57.6967 29.0432 57.7936 31.1728C57.8996 33.4772 57.9207 34.1669 57.9207 40.0001C57.9207 45.8333 57.8996 46.523 57.7936 48.8273C57.6966 50.957 57.3399 52.1145 57.0417 52.8837C56.6445 53.9035 56.1713 54.6312 55.4069 55.3944C54.6424 56.1577 53.9133 56.6313 52.8929 57.0283C52.1236 57.3282 50.965 57.6829 48.8341 57.7797C46.5303 57.8856 45.8382 57.9068 40.0015 57.9068C34.1649 57.9068 33.4747 57.8856 31.1716 57.7797ZM30.9906 18.289C28.6639 18.3949 27.074 18.7636 25.6855 19.3036C24.2475 19.8612 23.0302 20.6093 21.8138 21.8231C20.5974 23.0369 19.8508 24.2554 19.2928 25.6925C18.7525 27.081 18.3836 28.6691 18.2776 30.9944C18.1699 33.3234 18.1453 34.068 18.1453 39.9999C18.1453 45.9318 18.1699 46.6764 18.2776 49.0054C18.3836 51.3309 18.7525 52.9188 19.2928 54.3074C19.8508 55.7436 20.5975 56.9635 21.8138 58.1767C23.0301 59.39 24.2475 60.137 25.6855 60.6962C27.0766 61.2362 28.6639 61.6049 30.9906 61.7108C33.3223 61.8167 34.0661 61.8431 40.0015 61.8431C45.937 61.8431 46.682 61.8184 49.0124 61.7108C51.3394 61.6049 52.9282 61.2362 54.3176 60.6962C55.7547 60.137 56.9729 59.3905 58.1893 58.1767C59.4057 56.963 60.1508 55.7436 60.7103 54.3074C61.2506 52.9188 61.6212 51.3307 61.7255 49.0054C61.8314 46.6747 61.8561 45.9318 61.8561 39.9999C61.8561 34.068 61.8314 33.3234 61.7255 30.9944C61.6195 28.6689 61.2506 27.0801 60.7103 25.6925C60.1508 24.2562 59.4038 23.0388 58.1893 21.8231C56.9748 20.6074 55.7547 19.8612 54.3193 19.3036C52.9282 18.7636 51.3392 18.3932 49.0142 18.289C46.6838 18.1831 45.9388 18.1567 40.0033 18.1567C34.0678 18.1567 33.3223 18.1814 30.9906 18.289Z" fill="url(#paint0_radial_1030_2179)"/>
<path d="M32.7173 39.9999C32.7173 35.9788 35.9781 32.7183 40.0015 32.7183C44.025 32.7183 47.2875 35.9788 47.2875 39.9999C47.2875 44.021 44.025 47.2815 40.0015 47.2815C35.9781 47.2815 32.7173 44.021 32.7173 39.9999ZM28.7786 39.9999C28.7786 46.1946 33.8031 51.2161 40.0015 51.2161C46.2 51.2161 51.2245 46.1946 51.2245 39.9999C51.2245 33.8052 46.2 28.7837 40.0015 28.7837C33.8031 28.7837 28.7786 33.8052 28.7786 39.9999ZM49.046 28.339C49.0458 28.8574 49.1994 29.3642 49.4874 29.7954C49.7755 30.2266 50.1849 30.5627 50.6641 30.7613C51.1433 30.9599 51.6706 31.012 52.1794 30.911C52.6882 30.8101 53.1556 30.5606 53.5226 30.1942C53.8895 29.8278 54.1395 29.3608 54.2409 28.8524C54.3423 28.344 54.2906 27.8169 54.0923 27.3379C53.894 26.8589 53.558 26.4494 53.1268 26.1612C52.6956 25.873 52.1885 25.7191 51.6698 25.7188H51.6688C50.9735 25.7192 50.3067 25.9953 49.8149 26.4866C49.3232 26.9778 49.0466 27.6441 49.046 28.339ZM31.1716 57.7797C29.0407 57.6827 27.8825 57.328 27.1128 57.0283C26.0924 56.6313 25.3643 56.1584 24.5988 55.3944C23.8333 54.6305 23.3595 53.9035 22.964 52.8837C22.6639 52.1148 22.309 50.957 22.2121 48.8273C22.1061 46.5249 22.085 45.8333 22.085 40.0001C22.085 34.1669 22.1079 33.4772 22.2121 31.1728C22.3091 29.0432 22.6667 27.8876 22.964 27.1165C23.3612 26.0966 23.8344 25.369 24.5988 24.604C25.3633 23.8389 26.0906 23.3654 27.1128 22.9701C27.8821 22.6702 29.0407 22.3155 31.1716 22.2187C33.4754 22.1128 34.1675 22.0917 40.0015 22.0917C45.8356 22.0917 46.5283 22.1145 48.8341 22.2187C50.965 22.3157 52.1213 22.673 52.8929 22.9701C53.9133 23.3654 54.6414 23.84 55.4069 24.604C56.1724 25.368 56.6445 26.0966 57.0417 27.1165C57.3418 27.8853 57.6967 29.0432 57.7936 31.1728C57.8996 33.4772 57.9207 34.1669 57.9207 40.0001C57.9207 45.8333 57.8996 46.523 57.7936 48.8273C57.6966 50.957 57.3399 52.1145 57.0417 52.8837C56.6445 53.9035 56.1713 54.6312 55.4069 55.3944C54.6424 56.1577 53.9133 56.6313 52.8929 57.0283C52.1236 57.3282 50.965 57.6829 48.8341 57.7797C46.5303 57.8856 45.8382 57.9068 40.0015 57.9068C34.1649 57.9068 33.4747 57.8856 31.1716 57.7797ZM30.9906 18.289C28.6639 18.3949 27.074 18.7636 25.6855 19.3036C24.2475 19.8612 23.0302 20.6093 21.8138 21.8231C20.5974 23.0369 19.8508 24.2554 19.2928 25.6925C18.7525 27.081 18.3836 28.6691 18.2776 30.9944C18.1699 33.3234 18.1453 34.068 18.1453 39.9999C18.1453 45.9318 18.1699 46.6764 18.2776 49.0054C18.3836 51.3309 18.7525 52.9188 19.2928 54.3074C19.8508 55.7436 20.5975 56.9635 21.8138 58.1767C23.0301 59.39 24.2475 60.137 25.6855 60.6962C27.0766 61.2362 28.6639 61.6049 30.9906 61.7108C33.3223 61.8167 34.0661 61.8431 40.0015 61.8431C45.937 61.8431 46.682 61.8184 49.0124 61.7108C51.3394 61.6049 52.9282 61.2362 54.3176 60.6962C55.7547 60.137 56.9729 59.3905 58.1893 58.1767C59.4057 56.963 60.1508 55.7436 60.7103 54.3074C61.2506 52.9188 61.6212 51.3307 61.7255 49.0054C61.8314 46.6747 61.8561 45.9318 61.8561 39.9999C61.8561 34.068 61.8314 33.3234 61.7255 30.9944C61.6195 28.6689 61.2506 27.0801 60.7103 25.6925C60.1508 24.2562 59.4038 23.0388 58.1893 21.8231C56.9748 20.6074 55.7547 19.8612 54.3193 19.3036C52.9282 18.7636 51.3392 18.3932 49.0142 18.289C46.6838 18.1831 45.9388 18.1567 40.0033 18.1567C34.0678 18.1567 33.3223 18.1814 30.9906 18.289Z" fill="url(#paint1_radial_1030_2179)"/>
<defs>
<radialGradient id="paint0_radial_1030_2179" cx="0" cy="0" r="1" gradientUnits="userSpaceOnUse" gradientTransform="translate(23.9527 62.0495) scale(57.0631 57.0288)">
<stop offset="0.09" stop-color="#FA8F21"/>
<stop offset="0.78" stop-color="#D82D7E"/>
</radialGradient>
<radialGradient id="paint1_radial_1030_2179" cx="0" cy="0" r="1" gradientUnits="userSpaceOnUse" gradientTransform="translate(44.655 64.0066) scale(44.9736 44.9466)">
<stop offset="0.64" stop-color="#8C3AAA" stop-opacity="0"/>
<stop offset="1" stop-color="#8C3AAA"/>
</radialGradient>
</defs>
</svg>
