<svg width="80" height="80" viewBox="0 0 80 80" fill="none" xmlns="http://www.w3.org/2000/svg">
<rect width="80" height="80" rx="40" fill="white"/>
<path d="M62.2505 28.9966C61.7282 27.033 60.1831 25.4839 58.2172 24.953C54.6626 24.0002 40.4008 24.0002 40.4008 24.0002C40.4008 24.0002 26.1463 24.0002 22.5845 24.953C20.6258 25.4766 19.0807 27.0257 18.5511 28.9966C17.6008 32.5602 17.6008 40.0002 17.6008 40.0002C17.6008 40.0002 17.6008 47.4402 18.5511 51.0039C19.0734 52.9675 20.6186 54.5166 22.5845 55.0475C26.1463 56.0002 40.4008 56.0002 40.4008 56.0002C40.4008 56.0002 54.6626 56.0002 58.2172 55.0475C60.1758 54.5239 61.721 52.9748 62.2505 51.0039C63.2008 47.4402 63.2008 40.0002 63.2008 40.0002C63.2008 40.0002 63.2008 32.5602 62.2505 28.9966Z" fill="#FF3000"/>
<path d="M35.8452 46.8584L47.6913 40.0002L35.8452 33.1421V46.8584Z" fill="white"/>
</svg>
