<svg width="80" height="80" viewBox="0 0 80 80" fill="none" xmlns="http://www.w3.org/2000/svg">
<rect width="80" height="80" rx="40" fill="white"/>
<path d="M60.2356 27.2129C58.9147 27.7814 57.526 28.1772 56.1039 28.3907C56.7687 28.2767 57.7471 27.0799 58.1365 26.5955C58.7281 25.8648 59.179 25.0307 59.4662 24.1354C59.4662 24.069 59.5327 23.974 59.4662 23.9265C59.4327 23.9082 59.3952 23.8986 59.357 23.8986C59.3188 23.8986 59.2813 23.9082 59.2478 23.9265C57.7036 24.7627 56.0601 25.401 54.3562 25.8261C54.2968 25.8443 54.2336 25.8459 54.1734 25.8308C54.1131 25.8158 54.0581 25.7846 54.0143 25.7406C53.8816 25.5827 53.7388 25.4336 53.5868 25.2942C52.8919 24.6716 52.1034 24.162 51.2503 23.784C50.0986 23.3115 48.8547 23.1069 47.6124 23.1856C46.407 23.2617 45.2302 23.5851 44.1551 24.1354C43.0964 24.7157 42.1659 25.504 41.4196 26.453C40.6345 27.4298 40.0678 28.5633 39.7574 29.7774C39.5015 30.9322 39.4724 32.1258 39.6719 33.2917C39.6719 33.4912 39.6719 33.5197 39.5009 33.4912C32.7287 32.4939 27.1722 30.0908 22.6321 24.9333C22.4326 24.7053 22.3281 24.7053 22.1667 24.9333C20.191 27.9347 21.1504 32.6839 23.6199 35.0299C23.9523 35.3434 24.2943 35.6473 24.6552 35.9323C23.5229 35.8519 22.4183 35.545 21.4068 35.0299C21.2168 34.9064 21.1124 34.9729 21.1029 35.2009C21.0759 35.5169 21.0759 35.8347 21.1029 36.1507C21.3011 37.6653 21.8979 39.1001 22.8325 40.3083C23.767 41.5166 25.0057 42.4549 26.4219 43.0274C26.7671 43.1753 27.1268 43.2867 27.4952 43.3599C26.447 43.5662 25.3719 43.5983 24.3133 43.4549C24.0853 43.4074 23.9998 43.5308 24.0853 43.7493C25.4816 47.5486 28.5115 48.7074 30.7341 49.3533C31.038 49.4008 31.342 49.4008 31.6839 49.4767C31.6839 49.4767 31.6839 49.4767 31.6269 49.5337C30.9715 50.7305 28.3215 51.5379 27.1057 51.9558C24.8866 52.7529 22.5207 53.0575 20.172 52.8486C19.8016 52.7916 19.7161 52.8011 19.6211 52.8486C19.5262 52.8961 19.6211 53.0006 19.7256 53.0956C20.2005 53.409 20.6754 53.6845 21.1694 53.9504C22.6397 54.7524 24.1942 55.3895 25.8045 55.8501C34.1439 58.1486 43.5282 56.458 49.7875 50.2366C54.7076 45.3545 56.4363 38.6203 56.4363 31.8765C56.4363 31.6201 56.7497 31.4681 56.9302 31.3351C58.175 30.3652 59.2724 29.2198 60.1881 27.9347C60.3467 27.7432 60.428 27.4993 60.4161 27.2509C60.4161 27.1084 60.4161 27.1369 60.2356 27.2129Z" fill="#33CCFF"/>
</svg>
