<svg width="80" height="80" viewBox="0 0 80 80" fill="none" xmlns="http://www.w3.org/2000/svg">
<rect width="80" height="80" rx="40" fill="white"/>
<path d="M18.9034 57.6659H26.315V39.6663L15.7271 31.7253V54.4895C15.7271 56.2471 17.1511 57.6659 18.9034 57.6659Z" fill="#4285F4"/>
<path d="M51.7261 57.6659H59.1376C60.8953 57.6659 62.314 56.2418 62.314 54.4895V31.7253L51.7261 39.6663" fill="#34A853"/>
<path d="M51.7261 25.9022V39.6666L62.314 31.7256V27.4904C62.314 23.5623 57.83 21.3229 54.6907 23.6787" fill="#FBBC04"/>
<path d="M26.3149 39.6662V25.9019L39.0205 35.431L51.7261 25.9019V39.6662L39.0205 49.1954" fill="#EA4335"/>
<path d="M15.7271 27.4904V31.7256L26.315 39.6666V25.9022L23.3504 23.6787C20.2058 21.3229 15.7271 23.5623 15.7271 27.4904Z" fill="#C5221F"/>
</svg>
