<svg width="80" height="80" viewBox="0 0 80 80" fill="none" xmlns="http://www.w3.org/2000/svg">
<rect width="80" height="80" rx="40" fill="white"/>
<path d="M20.0002 58.519L22.8702 47.848C20.5556 43.6911 19.8203 38.8403 20.7991 34.1858C21.7778 29.5313 24.405 25.3853 28.1986 22.5086C31.9922 19.6319 36.6976 18.2174 41.4515 18.5247C46.2054 18.832 50.6888 20.8406 54.0791 24.1817C57.4693 27.5228 59.539 31.9725 59.9083 36.7141C60.2777 41.4557 58.9218 46.1713 56.0897 49.9955C53.2575 53.8197 49.139 56.4959 44.4898 57.5332C39.8407 58.5705 34.9727 57.8992 30.7793 55.6425L20.0002 58.519ZM31.2991 51.6494L31.9657 52.0442C35.0031 53.8415 38.5507 54.5853 42.0557 54.1596C45.5607 53.7339 48.8261 52.1626 51.3432 49.6906C53.8604 47.2187 55.4877 43.9849 55.9716 40.4931C56.4556 37.0014 55.769 33.448 54.0189 30.3865C52.2687 27.325 49.5533 24.9276 46.2958 23.5676C43.0383 22.2077 39.4217 21.9618 36.0096 22.8682C32.5975 23.7746 29.5816 25.7823 27.4318 28.5786C25.282 31.3749 24.1191 34.8025 24.1243 38.3275C24.1215 41.2503 24.9311 44.1165 26.4632 46.6071L26.8812 47.2952L25.2768 53.2511L31.2991 51.6494Z" fill="#484D56"/>
<path fill-rule="evenodd" clip-rule="evenodd" d="M47.4785 41.0677C47.0877 40.7531 46.6302 40.5316 46.1407 40.4201C45.6511 40.3087 45.1426 40.3103 44.6538 40.4248C43.9194 40.7293 43.4448 41.8799 42.9703 42.4552C42.8702 42.5931 42.7232 42.6898 42.5568 42.7272C42.3903 42.7646 42.216 42.7401 42.0664 42.6582C39.3776 41.6069 37.1239 39.6789 35.6712 37.1874C35.5473 37.0319 35.4887 36.8345 35.5077 36.6367C35.5266 36.4389 35.6217 36.2562 35.7729 36.127C36.3022 35.6039 36.6908 34.956 36.9028 34.2433C36.9499 33.457 36.7695 32.6739 36.3831 31.9872C36.0843 31.0245 35.5158 30.1673 34.7447 29.5169C34.347 29.3383 33.906 29.2784 33.475 29.3445C33.0439 29.4105 32.6412 29.5997 32.3155 29.8891C31.7499 30.3762 31.301 30.9838 31.0019 31.6671C30.7027 32.3504 30.5608 33.0919 30.5867 33.8372C30.5885 34.2557 30.6416 34.6724 30.7449 35.078C31.0073 36.0525 31.4108 36.9835 31.9426 37.8416C32.3263 38.4989 32.745 39.1353 33.1968 39.748C34.6651 41.7603 36.5109 43.4689 38.6315 44.7789C39.6957 45.4446 40.8331 45.9858 42.0212 46.392C43.2554 46.9505 44.6181 47.1649 45.9645 47.0124C46.7316 46.8964 47.4585 46.594 48.0811 46.1318C48.7037 45.6696 49.2029 45.0616 49.5349 44.3615C49.73 43.9386 49.7892 43.4658 49.7044 43.0079C49.501 42.0717 48.2469 41.5189 47.4785 41.0677Z" fill="#484D56"/>
</svg>
