<svg width="80" height="80" viewBox="0 0 80 80" fill="none" xmlns="http://www.w3.org/2000/svg">
<rect width="80" height="80" rx="40" fill="white"/>
<path d="M33.3426 40.1025C33.3426 36.4175 36.3283 33.4294 40.0122 33.4294C43.6962 33.4294 46.6834 36.4175 46.6834 40.1025C46.6834 43.7875 43.6962 46.7756 40.0122 46.7756C36.3283 46.7756 33.3426 43.7875 33.3426 40.1025ZM29.7363 40.1025C29.7363 45.7795 34.3368 50.3814 40.0122 50.3814C45.6876 50.3814 50.2882 45.7795 50.2882 40.1025C50.2882 34.4255 45.6876 29.8236 40.0122 29.8236C34.3368 29.8236 29.7363 34.4255 29.7363 40.1025ZM48.2935 29.416C48.2933 29.8911 48.434 30.3556 48.6977 30.7508C48.9614 31.1459 49.3364 31.4539 49.7751 31.6359C50.2138 31.8179 50.6967 31.8657 51.1625 31.7732C51.6284 31.6807 52.0564 31.4521 52.3924 31.1162C52.7283 30.7804 52.9572 30.3525 53.0501 29.8866C53.1429 29.4206 53.0956 28.9376 52.914 28.4986C52.7324 28.0596 52.4247 27.6843 52.0299 27.4202C51.6351 27.1561 51.1709 27.0151 50.6959 27.0149H50.695C50.0583 27.0152 49.4478 27.2682 48.9976 27.7184C48.5473 28.1686 48.2941 28.7792 48.2935 29.416V29.416ZM31.9274 56.3965C29.9763 56.3076 28.9158 55.9825 28.2111 55.7079C27.2768 55.344 26.6101 54.9107 25.9092 54.2105C25.2083 53.5104 24.7745 52.8442 24.4123 51.9096C24.1376 51.205 23.8126 50.1439 23.7239 48.1922C23.6269 46.0822 23.6075 45.4484 23.6075 40.1027C23.6075 34.7569 23.6285 34.1249 23.7239 32.0131C23.8128 30.0614 24.1402 29.0024 24.4123 28.2957C24.7761 27.3611 25.2093 26.6943 25.9092 25.9932C26.6092 25.2921 27.2752 24.8581 28.2111 24.4958C28.9155 24.221 29.9763 23.8959 31.9274 23.8072C34.0368 23.7102 34.6705 23.6908 40.0122 23.6908C45.354 23.6908 45.9883 23.7118 48.0995 23.8072C50.0506 23.8961 51.1093 24.2236 51.8158 24.4958C52.7501 24.8581 53.4168 25.293 54.1177 25.9932C54.8186 26.6933 55.2508 27.3611 55.6146 28.2957C55.8893 29.0003 56.2143 30.0614 56.303 32.0131C56.4 34.1249 56.4194 34.7569 56.4194 40.1027C56.4194 45.4484 56.4 46.0804 56.303 48.1922C56.2141 50.1439 55.8875 51.2047 55.6146 51.9096C55.2508 52.8442 54.8176 53.511 54.1177 54.2105C53.4177 54.91 52.7501 55.344 51.8158 55.7079C51.1114 55.9827 50.0506 56.3078 48.0995 56.3965C45.9901 56.4935 45.3564 56.5129 40.0122 56.5129C34.6681 56.5129 34.0362 56.4935 31.9274 56.3965V56.3965ZM31.7617 20.2059C29.6313 20.303 28.1755 20.6409 26.9042 21.1357C25.5876 21.6467 24.473 22.3323 23.3592 23.4447C22.2454 24.557 21.5618 25.6737 21.051 26.9907C20.5563 28.2632 20.2185 29.7186 20.1214 31.8496C20.0228 33.9839 20.0002 34.6663 20.0002 40.1025C20.0002 45.5387 20.0228 46.221 20.1214 48.3554C20.2185 50.4866 20.5563 51.9418 21.051 53.2143C21.5618 54.5305 22.2456 55.6485 23.3592 56.7603C24.4728 57.8722 25.5876 58.5568 26.9042 59.0693C28.1779 59.5641 29.6313 59.902 31.7617 59.999C33.8966 60.0961 34.5776 60.1203 40.0122 60.1203C45.4469 60.1203 46.129 60.0977 48.2628 59.999C50.3933 59.902 51.8481 59.5641 53.1203 59.0693C54.4361 58.5568 55.5515 57.8727 56.6653 56.7603C57.7791 55.648 58.4612 54.5305 58.9735 53.2143C59.4682 51.9418 59.8076 50.4864 59.903 48.3554C60.0001 46.2194 60.0226 45.5387 60.0226 40.1025C60.0226 34.6663 60.0001 33.9839 59.903 31.8496C59.806 29.7184 59.4682 28.2624 58.9735 26.9907C58.4612 25.6745 57.7773 24.5588 56.6653 23.4447C55.5532 22.3306 54.4361 21.6467 53.1219 21.1357C51.8481 20.6409 50.3932 20.3014 48.2644 20.2059C46.1306 20.1089 45.4485 20.0847 40.0138 20.0847C34.5792 20.0847 33.8966 20.1073 31.7617 20.2059Z" fill="#484D56"/>
</svg>
