<svg width="80" height="80" viewBox="0 0 80 80" fill="none" xmlns="http://www.w3.org/2000/svg">
<rect width="80" height="80" rx="40" fill="white"/>
<path d="M20.0519 57.8272H27.4635V39.8277L16.8755 31.8867V54.6508C16.8755 56.4084 18.2996 57.8272 20.0519 57.8272Z" fill="#484D56"/>
<path d="M52.8745 57.8272H60.2861C62.0437 57.8272 63.4625 56.4031 63.4625 54.6508V31.8867L52.8745 39.8277" fill="#484D56"/>
<path d="M52.8745 26.0636V39.8279L63.4625 31.887V27.6518C63.4625 23.7236 58.9785 21.4843 55.8391 23.8401" fill="#484D56"/>
<path d="M27.4634 39.8276V26.0632L40.1689 35.5924L52.8745 26.0632V39.8276L40.1689 49.3568" fill="#484D56"/>
<path d="M16.8755 27.6518V31.887L27.4635 39.8279V26.0636L24.4988 23.8401C21.3542 21.4843 16.8755 23.7236 16.8755 27.6518" fill="#484D56"/>
</svg>
